{"glyphs":{"0":{"ha":772,"x_min":53,"x_max":719,"o":"m 386 908 q 259 865 306 908 q 189 758 213 822 q 159 622 165 694 q 153 492 153 550 q 159 361 153 433 q 189 225 165 289 q 259 118 213 161 q 386 75 306 75 q 513 118 467 75 q 583 225 560 161 q 613 361 607 289 q 619 492 619 433 q 613 622 619 550 q 583 758 607 694 q 513 865 560 822 q 386 908 467 908 m 386 1000 q 557 951 492 1000 q 658 828 622 903 q 707 663 694 753 q 719 492 719 574 q 707 320 719 410 q 658 156 694 231 q 557 32 622 81 q 386 -17 492 -17 q 215 32 281 -17 q 114 156 150 81 q 65 320 78 231 q 53 492 53 410 q 65 663 53 574 q 114 828 78 753 q 215 951 150 903 q 386 1000 281 1000 z "},"1":{"ha":772,"x_min":144,"x_max":483,"o":"m 483 0 l 383 0 l 383 858 l 207 703 l 144 778 l 394 983 l 483 983 l 483 0 z "},"2":{"ha":772,"x_min":67,"x_max":692,"o":"m 692 0 l 67 0 l 67 115 l 458 514 q 503 561 481 536 q 543 614 525 586 q 572 672 561 642 q 583 736 583 703 q 569 808 583 776 q 528 863 554 840 q 467 897 501 885 q 393 908 432 908 q 265 867 318 908 q 197 754 213 825 l 92 765 q 192 938 113 875 q 386 1000 272 1000 q 499 984 446 1000 q 594 936 553 968 q 659 856 635 904 q 683 744 683 808 q 666 640 683 688 q 621 551 649 593 q 558 472 593 510 q 485 399 522 435 l 175 92 l 692 92 l 692 0 z "},"3":{"ha":772,"x_min":53,"x_max":676,"o":"m 283 561 l 335 561 q 417 571 378 561 q 486 602 457 581 q 533 658 515 624 q 550 742 550 693 q 502 865 550 821 q 368 908 454 908 q 258 881 306 908 q 181 800 211 853 l 93 844 q 206 962 138 924 q 365 1000 275 1000 q 475 983 424 1000 q 565 934 526 967 q 627 853 604 901 q 650 744 650 806 q 637 668 650 704 q 601 603 624 632 q 547 552 578 574 q 483 519 517 531 l 488 517 q 564 485 529 508 q 624 429 599 463 q 663 354 649 396 q 676 267 676 313 q 651 146 676 199 q 583 57 626 93 q 483 2 540 21 q 363 -17 426 -17 q 174 31 254 -17 q 53 182 93 78 l 158 214 q 233 109 183 143 q 371 75 282 75 q 450 89 413 75 q 516 128 488 103 q 560 190 544 154 q 576 269 576 226 q 556 363 576 325 q 500 425 535 401 q 420 459 465 449 q 326 469 375 469 l 283 469 l 283 561 z "},"4":{"ha":772,"x_min":53,"x_max":719,"o":"m 478 883 l 475 883 l 136 325 l 478 325 l 478 883 m 578 325 l 719 325 l 719 233 l 578 233 l 578 0 l 478 0 l 478 233 l 53 233 l 53 347 l 450 983 l 578 983 l 578 325 z "},"5":{"ha":772,"x_min":67,"x_max":681,"o":"m 646 892 l 243 892 l 238 596 q 303 614 269 608 q 369 619 336 619 q 496 596 439 619 q 594 530 553 572 q 658 430 635 488 q 681 304 681 372 q 656 174 681 233 q 586 73 631 115 q 481 7 542 31 q 350 -17 421 -17 q 182 28 257 -17 q 67 158 107 72 l 165 201 q 243 109 193 143 q 358 75 293 75 q 446 92 406 75 q 516 139 486 110 q 563 208 546 168 q 581 294 581 249 q 563 389 581 346 q 513 463 544 432 q 436 511 481 494 q 339 528 392 528 q 234 513 286 528 q 135 474 182 499 l 144 983 l 646 983 l 646 892 z "},"6":{"ha":772,"x_min":67,"x_max":706,"o":"m 167 288 q 183 201 167 240 q 228 134 199 163 q 297 90 257 106 q 386 75 338 75 q 475 90 435 75 q 544 134 515 106 q 590 201 574 163 q 606 288 606 240 q 590 374 606 335 q 544 440 574 413 q 475 484 515 468 q 386 500 435 500 q 297 484 338 500 q 228 440 257 468 q 183 374 199 413 q 167 288 167 335 m 267 561 l 269 558 q 333 583 293 575 q 406 592 372 592 q 524 569 469 592 q 619 506 579 546 q 683 410 660 465 q 706 288 706 354 q 682 164 706 219 q 615 68 658 108 q 514 6 572 28 q 386 -17 456 -17 q 258 6 317 -17 q 157 68 200 28 q 90 164 114 108 q 67 288 67 219 q 91 431 67 369 q 151 551 115 492 l 417 983 l 535 983 l 267 561 z "},"7":{"ha":772,"x_min":75,"x_max":658,"o":"m 658 892 l 263 0 l 150 0 l 554 892 l 75 892 l 75 983 l 658 983 l 658 892 z "},"8":{"ha":772,"x_min":75,"x_max":697,"o":"m 597 276 q 582 356 597 319 q 540 420 567 393 q 473 463 513 447 q 386 478 433 478 q 299 463 338 478 q 233 420 260 447 q 190 356 206 393 q 175 276 175 319 q 190 197 175 233 q 233 133 206 160 q 299 90 260 106 q 386 75 338 75 q 473 90 433 75 q 540 133 513 106 q 582 197 567 160 q 597 276 597 233 m 561 735 q 548 804 561 772 q 511 859 535 836 q 456 895 488 882 q 386 908 424 908 q 317 895 349 908 q 261 859 285 882 q 224 804 238 836 q 211 735 211 772 q 224 665 211 697 q 261 610 238 633 q 317 574 285 588 q 386 561 349 561 q 456 574 424 561 q 511 610 488 588 q 548 665 535 633 q 561 735 561 697 m 258 524 q 199 556 226 535 q 153 607 172 578 q 122 671 133 636 q 111 743 111 706 q 133 849 111 801 q 193 931 156 897 q 281 982 231 964 q 386 1000 331 1000 q 492 982 442 1000 q 579 931 542 964 q 639 849 617 897 q 661 743 661 801 q 650 671 661 706 q 619 607 639 636 q 573 556 600 578 q 514 524 546 535 l 514 521 q 647 429 597 499 q 697 263 697 360 q 672 147 697 199 q 603 59 646 96 q 505 3 561 22 q 386 -17 449 -17 q 267 3 324 -17 q 169 59 211 22 q 101 147 126 96 q 75 263 75 199 q 125 429 75 360 q 258 521 175 499 l 258 524 z "},"9":{"ha":772,"x_min":67,"x_max":706,"o":"m 606 696 q 590 782 606 743 q 544 849 574 821 q 475 892 515 876 q 386 908 435 908 q 297 892 338 908 q 228 849 257 876 q 183 782 199 821 q 167 696 167 743 q 183 610 167 649 q 228 542 199 571 q 297 499 257 514 q 386 483 338 483 q 475 499 435 483 q 544 542 515 514 q 590 610 574 571 q 606 696 606 649 m 506 422 l 503 425 q 440 400 479 408 q 367 392 400 392 q 248 415 303 392 q 153 478 193 438 q 90 574 113 518 q 67 696 67 629 q 90 819 67 764 q 157 915 114 875 q 258 978 200 956 q 386 1000 317 1000 q 514 978 456 1000 q 615 915 572 956 q 682 819 658 875 q 706 696 706 764 q 681 553 706 614 q 621 432 657 492 l 356 0 l 238 0 l 506 422 z "}," ":{"ha":386,"x_min":0,"x_max":0,"o":""},"!":{"ha":386,"x_min":118,"x_max":268,"o":"m 268 67 q 247 15 268 38 q 193 -8 226 -8 q 139 15 160 -8 q 118 67 118 38 q 139 119 118 96 q 193 142 160 142 q 247 119 226 142 q 268 67 268 96 m 243 267 l 143 267 l 143 983 l 243 983 l 243 267 z "},"\"":{"ha":721,"x_min":218,"x_max":503,"o":"m 419 983 l 503 983 l 503 657 l 419 657 l 419 983 m 218 983 l 301 983 l 301 657 l 218 657 l 218 983 z "},"#":{"ha":772,"x_min":49,"x_max":724,"o":"m 286 381 l 471 381 l 501 606 l 317 606 l 286 381 m 190 297 l 49 297 l 49 381 l 201 381 l 232 606 l 82 606 l 82 689 l 244 689 l 285 983 l 369 983 l 329 689 l 514 689 l 554 983 l 639 983 l 599 689 l 724 689 l 724 606 l 586 606 l 556 381 l 688 381 l 688 297 l 544 297 l 503 0 l 418 0 l 460 297 l 275 297 l 233 0 l 149 0 l 190 297 z "},"$":{"ha":772,"x_min":60,"x_max":701,"o":"m 353 456 q 258 491 306 469 q 172 544 210 513 q 109 622 133 576 q 85 732 85 668 q 108 840 85 792 q 168 924 131 889 q 253 978 206 958 q 353 1003 301 999 l 353 1100 l 419 1100 l 419 1006 q 508 996 469 1006 q 578 969 547 986 q 633 931 608 953 q 676 888 657 910 l 599 821 q 519 892 569 869 q 419 914 469 915 l 419 543 q 521 502 471 525 q 611 445 571 479 q 676 363 651 411 q 701 247 701 315 q 680 141 701 189 q 620 58 658 93 q 531 3 582 24 q 419 -22 479 -18 l 419 -117 l 353 -117 l 353 -25 q 178 24 256 -19 q 60 128 101 68 l 143 188 q 193 136 165 158 q 249 99 221 114 q 303 76 276 83 q 353 68 331 68 l 353 456 m 419 69 q 478 78 446 69 q 537 107 510 86 q 583 162 564 128 q 601 247 601 196 q 551 365 603 318 q 419 436 499 411 l 419 69 m 353 913 q 285 895 315 910 q 232 857 254 881 q 197 802 210 833 q 185 735 185 771 q 198 672 185 699 q 234 626 211 646 q 288 590 257 606 q 353 563 318 575 l 353 913 z "},"%":{"ha":1157,"x_min":53,"x_max":1104,"o":"m 301 -43 l 229 -6 l 856 1026 l 926 989 l 301 -43 m 1021 226 q 1008 290 1021 261 q 973 341 994 319 q 922 374 951 363 q 860 386 893 386 q 797 374 826 386 q 747 341 768 363 q 712 290 725 319 q 699 226 699 261 q 712 163 699 192 q 747 112 725 133 q 797 78 768 90 q 860 67 826 67 q 922 78 893 67 q 973 112 951 90 q 1008 163 994 133 q 1021 226 1021 192 m 1104 226 q 1085 131 1104 175 q 1033 53 1067 86 q 956 2 1000 21 q 860 -17 911 -17 q 764 2 808 -17 q 686 53 719 21 q 634 131 653 86 q 615 226 615 175 q 634 322 615 278 q 686 399 653 367 q 764 451 719 432 q 860 469 808 469 q 956 451 911 469 q 1033 399 1000 432 q 1085 322 1067 367 q 1104 226 1104 278 m 458 757 q 445 821 458 792 q 410 872 432 850 q 360 905 389 893 q 297 917 331 917 q 235 905 264 917 q 184 872 206 893 q 149 821 163 850 q 136 757 136 792 q 149 693 136 722 q 184 642 163 664 q 235 609 206 621 q 297 597 264 597 q 360 609 331 597 q 410 642 389 621 q 445 693 432 664 q 458 757 458 722 m 542 757 q 523 661 542 706 q 471 584 504 617 q 393 533 438 551 q 297 514 349 514 q 201 533 246 514 q 124 584 157 551 q 72 661 90 617 q 53 757 53 706 q 72 853 53 808 q 124 930 90 897 q 201 981 157 963 q 297 1000 246 1000 q 393 981 349 1000 q 471 930 438 963 q 523 853 504 897 q 542 757 542 808 z "},"&":{"ha":978,"x_min":67,"x_max":956,"o":"m 353 483 q 270 431 304 456 q 215 380 236 407 q 185 322 194 353 q 175 254 175 292 q 192 178 175 213 q 236 119 208 143 q 300 81 264 94 q 376 67 336 67 q 449 78 417 67 q 510 108 482 89 q 564 154 539 128 q 613 211 589 181 l 353 483 m 558 788 q 519 881 558 846 q 422 917 479 917 q 317 878 360 917 q 275 772 275 839 q 287 720 275 747 q 315 669 299 693 q 348 626 331 646 q 378 596 365 606 q 438 630 406 613 q 497 669 469 647 q 541 721 524 692 q 558 788 558 750 m 735 228 l 956 0 l 814 0 l 675 144 q 544 20 614 65 q 375 -25 475 -25 q 258 -6 314 -25 q 159 49 201 13 q 92 137 117 85 q 67 256 67 189 q 85 354 67 310 q 134 434 103 399 q 206 497 165 469 q 290 546 246 525 q 210 651 246 593 q 175 776 175 708 q 194 875 175 832 q 246 948 213 918 q 324 993 279 978 q 421 1008 368 1008 q 513 994 469 1008 q 588 951 556 979 q 640 883 621 924 q 658 788 658 842 q 639 701 658 739 q 588 631 619 663 q 518 576 557 600 q 442 532 479 551 l 668 299 l 803 532 l 915 532 l 735 228 z "},"'":{"ha":361,"x_min":139,"x_max":222,"o":"m 139 983 l 222 983 l 222 657 l 139 657 l 139 983 z "},"(":{"ha":361,"x_min":75,"x_max":350,"o":"m 350 975 q 272 838 306 904 q 214 702 238 771 q 178 560 190 633 q 167 400 167 486 q 178 242 167 314 q 213 103 190 169 q 268 -29 235 36 q 344 -167 301 -94 l 271 -222 q 126 69 178 -92 q 75 400 75 231 q 126 724 75 561 q 276 1022 176 886 l 350 975 z "},")":{"ha":361,"x_min":11,"x_max":286,"o":"m 11 -175 q 90 -37 56 -104 q 147 98 124 29 q 183 240 171 167 q 194 400 194 314 q 183 558 194 486 q 149 697 171 631 q 93 829 126 764 q 17 967 60 894 l 90 1022 q 235 731 183 892 q 286 400 286 569 q 235 76 286 239 q 85 -222 185 -86 l 11 -175 z "},"*":{"ha":617,"x_min":43,"x_max":574,"o":"m 350 785 l 544 847 l 574 769 l 378 707 l 503 539 l 436 489 l 308 661 l 181 489 l 114 539 l 239 707 l 43 769 l 72 847 l 267 785 l 267 983 l 350 983 l 350 785 z "},"+":{"ha":925,"x_min":108,"x_max":817,"o":"m 504 463 l 817 463 l 817 379 l 504 379 l 504 67 l 421 67 l 421 379 l 108 379 l 108 463 l 421 463 l 421 775 l 504 775 l 504 463 z "},",":{"ha":386,"x_min":90,"x_max":296,"o":"m 183 -194 l 90 -194 l 183 132 l 296 132 l 183 -194 z "},"-":{"ha":463,"x_min":53,"x_max":410,"o":"m 410 288 l 53 288 l 53 379 l 410 379 l 410 288 z "},".":{"ha":386,"x_min":118,"x_max":268,"o":"m 268 67 q 247 15 268 38 q 193 -8 226 -8 q 139 15 160 -8 q 118 67 118 38 q 139 119 118 96 q 193 142 160 142 q 247 119 226 142 q 268 67 268 96 z "},"/":{"ha":514,"x_min":7,"x_max":507,"o":"m 88 -25 l 7 1 l 428 1008 l 507 981 l 88 -25 z "},":":{"ha":386,"x_min":118,"x_max":268,"o":"m 268 67 q 247 15 268 38 q 193 -8 226 -8 q 139 15 160 -8 q 118 67 118 38 q 139 119 118 96 q 193 142 160 142 q 247 119 226 142 q 268 67 268 96 m 268 582 q 247 530 268 553 q 193 507 226 507 q 139 530 160 507 q 118 582 118 553 q 139 634 118 611 q 193 657 160 657 q 247 634 226 657 q 268 582 268 611 z "},";":{"ha":386,"x_min":90,"x_max":296,"o":"m 281 582 q 260 530 281 553 q 206 507 239 507 q 151 530 172 507 q 131 582 131 553 q 151 634 131 611 q 206 657 172 657 q 260 634 239 657 q 281 582 281 611 m 183 -194 l 90 -194 l 183 132 l 296 132 l 183 -194 z "},"<":{"ha":925,"x_min":108,"x_max":817,"o":"m 817 700 l 221 421 l 817 142 l 817 58 l 108 389 l 108 453 l 817 783 l 817 700 z "},"=":{"ha":925,"x_min":108,"x_max":817,"o":"m 817 358 l 817 275 l 108 275 l 108 358 l 817 358 m 817 567 l 817 483 l 108 483 l 108 567 l 817 567 z "},">":{"ha":925,"x_min":108,"x_max":817,"o":"m 108 783 l 817 453 l 817 389 l 108 58 l 108 142 l 704 421 l 108 700 l 108 783 z "},"?":{"ha":669,"x_min":65,"x_max":608,"o":"m 417 67 q 396 15 417 38 q 342 -8 375 -8 q 288 15 308 -8 q 267 67 267 38 q 288 119 267 96 q 342 142 308 142 q 396 119 375 142 q 417 67 417 96 m 383 267 l 283 267 l 283 382 q 301 451 283 419 q 343 509 318 482 q 397 561 368 536 q 451 615 426 586 q 492 675 475 643 q 508 749 508 707 q 463 864 508 819 q 346 908 418 908 q 228 867 275 908 q 169 757 182 825 l 65 769 q 98 867 74 824 q 159 940 122 910 q 243 985 196 969 q 344 1000 290 1000 q 449 984 400 1000 q 533 938 497 968 q 588 861 568 907 q 608 757 608 815 q 592 658 608 699 q 550 588 575 618 q 496 535 525 558 q 442 484 467 511 q 400 422 417 457 q 383 338 383 388 l 383 267 z "},"@":{"ha":1111,"x_min":60,"x_max":1051,"o":"m 778 764 l 856 764 l 739 372 q 730 335 733 354 q 726 301 726 317 q 735 282 726 290 q 758 274 743 274 q 832 299 794 274 q 899 367 869 325 q 949 464 929 410 q 968 576 968 518 q 935 721 968 656 q 847 833 901 786 q 722 907 792 881 q 579 933 651 933 q 410 897 489 933 q 272 799 331 860 q 178 658 213 738 q 143 492 143 578 q 178 326 143 406 q 272 185 213 246 q 410 87 331 124 q 579 50 489 50 q 778 94 683 50 q 931 218 874 139 l 1018 218 q 938 116 985 161 q 833 40 890 71 q 712 -8 776 8 q 579 -25 647 -25 q 378 15 472 -25 q 213 124 283 54 q 101 289 142 194 q 60 492 60 383 q 101 694 60 600 q 213 859 142 789 q 378 969 283 929 q 579 1008 472 1008 q 761 977 675 1008 q 912 889 847 946 q 1014 753 976 832 q 1051 582 1051 675 q 1019 419 1051 492 q 938 296 986 347 q 835 217 890 244 q 732 190 779 190 q 665 210 690 190 q 635 272 640 229 l 632 272 q 560 215 600 239 q 458 190 519 190 q 315 248 369 190 q 261 399 261 306 q 284 541 261 471 q 350 667 307 611 q 453 756 393 722 q 586 790 513 790 q 680 765 638 790 q 744 676 722 740 l 747 676 l 778 764 m 699 568 q 689 623 699 597 q 664 667 679 649 q 628 697 649 686 q 586 707 608 707 q 493 676 536 704 q 419 603 450 647 q 370 508 388 560 q 353 407 353 456 q 390 311 353 349 q 483 274 426 274 q 568 303 529 274 q 636 378 607 333 q 682 474 665 422 q 699 568 699 525 z "},"A":{"ha":953,"x_min":0,"x_max":953,"o":"m 263 350 l 689 350 l 476 867 l 263 350 m 117 0 l 0 0 l 428 983 l 525 983 l 953 0 l 836 0 l 728 258 l 225 258 l 117 0 z "},"B":{"ha":875,"x_min":133,"x_max":792,"o":"m 233 92 l 425 92 q 526 103 479 92 q 608 137 574 114 q 663 194 643 160 q 683 278 683 229 q 621 422 683 375 q 438 469 558 469 l 233 469 l 233 92 m 233 553 l 435 553 q 506 562 471 553 q 570 592 542 571 q 617 645 599 613 q 635 725 635 678 q 628 768 635 740 q 601 824 622 796 q 538 872 579 851 q 425 892 496 892 l 233 892 l 233 553 m 133 983 l 426 983 q 544 971 488 983 q 646 929 601 958 q 717 853 690 900 q 743 736 743 806 q 698 598 743 656 q 569 521 653 540 l 569 518 q 733 445 674 510 q 792 272 792 381 q 780 203 792 249 q 731 112 768 157 q 622 33 693 67 q 433 0 551 0 l 133 0 l 133 983 z "},"C":{"ha":978,"x_min":67,"x_max":943,"o":"m 943 156 q 881 85 918 118 q 797 27 844 51 q 695 -11 750 3 q 579 -25 640 -25 q 376 14 469 -25 q 213 122 282 53 q 106 285 144 190 q 67 492 67 379 q 106 699 67 604 q 213 862 144 793 q 376 969 282 931 q 579 1008 469 1008 q 763 972 671 1008 q 919 853 854 936 l 832 788 q 790 835 817 811 q 730 876 764 858 q 657 906 696 894 q 579 917 618 917 q 410 882 485 917 q 283 789 335 847 q 203 653 231 731 q 175 492 175 576 q 203 330 175 407 q 283 194 231 253 q 410 101 335 136 q 579 67 485 67 q 656 74 618 67 q 731 97 694 81 q 801 142 768 114 q 861 214 833 171 l 943 156 z "},"D":{"ha":1029,"x_min":119,"x_max":963,"o":"m 219 92 l 414 92 q 609 126 526 92 q 747 216 692 160 q 828 344 801 272 q 854 492 854 415 q 828 640 854 568 q 747 767 801 711 q 609 858 692 824 q 414 892 526 892 l 219 892 l 219 92 m 119 983 l 446 983 q 630 953 538 983 q 797 860 722 922 q 917 706 871 799 q 963 492 963 614 q 917 276 963 368 q 797 123 871 185 q 630 31 722 61 q 446 0 538 0 l 119 0 l 119 983 z "},"E":{"ha":824,"x_min":133,"x_max":760,"o":"m 233 92 l 760 92 l 760 0 l 133 0 l 133 983 l 743 983 l 743 892 l 233 892 l 233 557 l 710 557 l 710 465 l 233 465 l 233 92 z "},"F":{"ha":772,"x_min":133,"x_max":726,"o":"m 233 0 l 133 0 l 133 983 l 726 983 l 726 892 l 233 892 l 233 557 l 692 557 l 692 465 l 233 465 l 233 0 z "},"G":{"ha":1081,"x_min":67,"x_max":951,"o":"m 860 803 q 740 886 810 856 q 579 917 671 917 q 410 882 485 917 q 283 789 335 847 q 203 653 231 731 q 175 492 175 576 q 203 330 175 407 q 283 194 231 253 q 410 101 335 136 q 579 67 485 67 q 726 85 656 67 q 851 136 796 104 l 851 465 l 617 465 l 617 557 l 951 557 l 951 75 q 769 1 868 26 q 579 -25 669 -25 q 376 14 469 -25 q 213 122 282 53 q 106 285 144 190 q 67 492 67 379 q 106 699 67 604 q 213 862 144 793 q 376 969 282 931 q 579 1008 469 1008 q 783 976 697 1008 q 935 876 868 943 l 860 803 z "},"H":{"ha":1003,"x_min":133,"x_max":869,"o":"m 133 983 l 233 983 l 233 557 l 769 557 l 769 983 l 869 983 l 869 0 l 769 0 l 769 465 l 233 465 l 233 0 l 133 0 l 133 983 z "},"I":{"ha":367,"x_min":133,"x_max":233,"o":"m 233 0 l 133 0 l 133 983 l 233 983 l 233 0 z "},"J":{"ha":669,"x_min":19,"x_max":550,"o":"m 121 201 q 172 103 135 139 q 276 67 210 67 q 365 88 331 67 q 417 144 399 110 q 443 222 436 178 q 450 311 450 265 l 450 983 l 550 983 l 550 269 q 537 167 550 219 q 491 73 524 115 q 406 3 458 31 q 274 -25 353 -25 q 104 27 172 -25 q 19 181 36 79 l 121 201 z "},"K":{"ha":875,"x_min":133,"x_max":881,"o":"m 233 557 l 235 557 l 247 557 l 710 983 l 853 983 l 357 538 l 881 0 l 733 0 l 250 507 l 235 507 l 233 507 l 233 0 l 133 0 l 133 983 l 233 983 l 233 557 z "},"L":{"ha":694,"x_min":133,"x_max":692,"o":"m 233 92 l 692 92 l 692 0 l 133 0 l 133 983 l 233 983 l 233 92 z "},"M":{"ha":1236,"x_min":133,"x_max":1103,"o":"m 618 183 l 950 983 l 1103 983 l 1103 0 l 1003 0 l 1003 850 l 1000 850 l 644 0 l 592 0 l 236 850 l 233 850 l 233 0 l 133 0 l 133 983 l 286 983 l 618 183 z "},"N":{"ha":1081,"x_min":133,"x_max":947,"o":"m 844 150 l 847 150 l 847 983 l 947 983 l 947 0 l 822 0 l 236 842 l 233 842 l 233 0 l 133 0 l 133 983 l 258 983 l 844 150 z "},"O":{"ha":1158,"x_min":67,"x_max":1092,"o":"m 983 492 q 956 653 983 576 q 876 789 928 731 q 749 882 824 847 q 579 917 674 917 q 410 882 485 917 q 283 789 335 847 q 203 653 231 731 q 175 492 175 576 q 203 330 175 407 q 283 194 231 253 q 410 101 335 136 q 579 67 485 67 q 749 101 674 67 q 876 194 824 136 q 956 330 928 253 q 983 492 983 407 m 1092 492 q 1053 285 1092 379 q 945 122 1014 190 q 783 14 876 53 q 579 -25 689 -25 q 376 14 469 -25 q 213 122 282 53 q 106 285 144 190 q 67 492 67 379 q 106 699 67 604 q 213 862 144 793 q 376 969 282 931 q 579 1008 469 1008 q 783 969 689 1008 q 945 862 876 931 q 1053 699 1014 793 q 1092 492 1092 604 z "},"P":{"ha":797,"x_min":133,"x_max":743,"o":"m 233 549 l 394 549 q 508 563 461 549 q 582 599 554 576 q 622 653 610 622 q 635 721 635 685 q 622 787 635 756 q 582 842 610 818 q 508 878 554 865 q 394 892 461 892 l 233 892 l 233 549 m 133 983 l 419 983 q 656 918 569 983 q 743 721 743 853 q 656 523 743 589 q 419 457 569 457 l 233 457 l 233 0 l 133 0 l 133 983 z "},"Q":{"ha":1158,"x_min":67,"x_max":1126,"o":"m 1126 0 l 564 0 q 366 38 457 0 q 208 142 275 75 q 104 302 142 210 q 67 504 67 394 q 104 706 67 614 q 208 866 142 799 q 366 971 275 933 q 564 1008 457 1008 q 760 971 669 1008 q 918 866 851 933 q 1022 706 985 799 q 1060 504 1060 614 q 1005 265 1060 371 q 829 94 950 158 l 829 92 l 1126 92 l 1126 0 m 175 504 q 201 348 175 422 q 278 217 228 274 q 400 126 328 160 q 564 92 472 92 q 726 126 654 92 q 849 217 799 160 q 925 348 899 274 q 951 504 951 422 q 925 660 951 586 q 849 792 899 735 q 726 883 799 849 q 564 917 654 917 q 400 883 472 917 q 278 792 328 849 q 201 660 228 735 q 175 504 175 586 z "},"R":{"ha":824,"x_min":133,"x_max":792,"o":"m 233 549 l 411 549 q 524 563 478 549 q 599 599 571 576 q 639 653 626 622 q 651 721 651 685 q 639 787 651 756 q 599 842 626 818 q 524 878 571 865 q 411 892 478 892 l 233 892 l 233 549 m 233 0 l 133 0 l 133 983 l 436 983 q 673 918 586 983 q 760 721 760 853 q 695 548 760 618 q 508 467 631 478 l 792 0 l 669 0 l 400 457 l 233 457 l 233 0 z "},"S":{"ha":772,"x_min":69,"x_max":703,"o":"m 599 821 q 408 917 533 917 q 332 906 369 917 q 265 874 294 896 q 217 819 235 853 q 199 739 199 785 q 236 635 199 672 q 329 575 274 599 q 451 533 385 551 q 572 483 517 514 q 665 400 628 451 q 703 260 703 349 q 674 140 703 193 q 599 50 646 86 q 495 -6 553 14 q 379 -25 438 -25 q 208 9 289 -25 q 69 121 126 43 l 160 186 q 249 99 192 132 q 383 67 306 67 q 458 78 421 67 q 526 113 496 90 q 575 169 556 136 q 594 246 594 203 q 573 331 594 297 q 516 388 551 365 q 435 426 481 411 q 342 457 390 442 q 249 492 294 472 q 169 541 204 511 q 112 616 133 571 q 90 729 90 661 q 117 853 90 800 q 190 940 144 906 q 292 992 235 975 q 408 1008 349 1008 q 560 982 492 1008 q 686 889 628 956 l 599 821 z "},"T":{"ha":797,"x_min":19,"x_max":778,"o":"m 449 0 l 349 0 l 349 892 l 19 892 l 19 983 l 778 983 l 778 892 l 449 892 l 449 0 z "},"U":{"ha":953,"x_min":117,"x_max":836,"o":"m 836 367 q 822 237 836 306 q 767 110 807 168 q 656 13 726 51 q 476 -25 586 -25 q 296 13 365 -25 q 186 110 226 51 q 131 237 146 168 q 117 367 117 306 l 117 983 l 217 983 l 217 378 q 231 256 217 307 q 267 171 244 206 q 319 116 290 136 q 376 85 347 96 q 431 70 404 74 q 476 67 457 67 q 522 70 494 67 q 577 85 549 74 q 634 116 606 96 q 685 171 663 136 q 722 256 708 206 q 736 378 736 307 l 736 983 l 836 983 l 836 367 z "},"V":{"ha":849,"x_min":-4,"x_max":853,"o":"m 419 150 l 422 150 l 744 983 l 853 983 l 469 0 l 369 0 l -4 983 l 107 983 l 419 150 z "},"W":{"ha":1311,"x_min":0,"x_max":1311,"o":"m 347 142 l 350 142 l 597 983 l 717 983 l 964 142 l 967 142 l 1200 983 l 1311 983 l 1021 0 l 904 0 l 657 842 l 654 842 l 407 0 l 290 0 l 0 983 l 111 983 l 347 142 z "},"X":{"ha":875,"x_min":8,"x_max":867,"o":"m 439 590 l 714 983 l 839 983 l 506 517 l 867 0 l 735 0 l 435 446 l 133 0 l 8 0 l 368 517 l 36 983 l 171 983 l 439 590 z "},"Y":{"ha":797,"x_min":-19,"x_max":817,"o":"m 449 0 l 349 0 l 349 424 l -19 983 l 106 983 l 399 519 l 692 983 l 817 983 l 449 424 l 449 0 z "},"Z":{"ha":772,"x_min":32,"x_max":740,"o":"m 732 900 l 158 92 l 740 92 l 740 0 l 32 0 l 32 83 l 607 892 l 40 892 l 40 983 l 732 983 l 732 900 z "},"[":{"ha":361,"x_min":90,"x_max":315,"o":"m 315 942 l 182 942 l 182 -142 l 315 -142 l 315 -217 l 90 -217 l 90 1017 l 315 1017 l 315 942 z "},"\\":{"ha":514,"x_min":7,"x_max":507,"o":"m 7 981 l 86 1008 l 507 1 l 426 -25 l 7 981 z "},"]":{"ha":361,"x_min":46,"x_max":271,"o":"m 46 -142 l 179 -142 l 179 942 l 46 942 l 46 1017 l 271 1017 l 271 -217 l 46 -217 l 46 -142 z "},"^":{"ha":925,"x_min":111,"x_max":814,"o":"m 429 983 l 496 983 l 814 382 l 728 382 l 463 883 l 197 382 l 111 382 l 429 983 z "},"_":{"ha":694,"x_min":0,"x_max":694,"o":"m 0 -104 l 694 -104 l 694 -174 l 0 -174 l 0 -104 z "},"`":{"ha":333,"x_min":-14,"x_max":251,"o":"m -14 983 l 113 983 l 251 783 l 169 783 l -14 983 z "},"a":{"ha":721,"x_min":67,"x_max":619,"o":"m 469 324 q 383 320 435 324 q 283 303 331 317 q 201 263 235 290 q 167 186 167 235 q 180 131 167 154 q 215 94 193 108 q 265 73 238 79 q 319 67 292 67 q 406 83 369 67 q 468 128 443 100 q 505 195 493 157 q 517 276 517 233 l 517 324 l 469 324 m 517 399 l 517 415 q 350 583 517 583 q 151 507 236 583 l 96 572 q 371 667 188 667 q 462 653 418 667 q 538 610 506 639 q 589 539 569 582 q 608 436 608 496 l 608 146 q 612 67 608 108 q 619 0 615 26 l 531 0 q 524 51 526 24 q 522 106 522 79 l 519 106 q 424 12 479 40 q 290 -17 369 -17 q 207 -5 247 -17 q 135 31 167 7 q 85 91 104 56 q 67 174 67 126 q 108 298 67 253 q 210 365 149 343 q 342 393 272 388 q 471 399 413 399 l 517 399 z "},"b":{"ha":849,"x_min":100,"x_max":793,"o":"m 693 325 q 676 426 693 379 q 626 508 658 474 q 549 563 594 543 q 447 583 504 583 q 343 563 390 583 q 261 508 296 543 q 207 426 226 474 q 188 325 188 379 q 207 224 188 271 q 261 142 226 176 q 343 87 296 107 q 447 67 390 67 q 549 87 504 67 q 626 142 594 107 q 676 224 658 176 q 693 325 693 271 m 100 1050 l 192 1050 l 192 542 l 194 542 q 247 599 217 575 q 311 638 278 622 q 380 660 344 653 q 447 667 415 667 q 587 641 524 667 q 696 569 650 615 q 767 461 742 524 q 793 325 793 399 q 767 189 793 251 q 696 81 742 126 q 587 9 650 35 q 447 -17 524 -17 q 380 -10 415 -17 q 311 13 344 -3 q 247 51 278 28 q 194 108 217 75 l 192 108 l 192 0 l 100 0 l 100 1050 z "},"c":{"ha":669,"x_min":67,"x_max":649,"o":"m 574 497 q 508 558 550 533 q 411 583 465 583 q 309 565 354 585 q 232 511 264 546 q 183 428 200 476 q 167 325 167 381 q 183 222 167 269 q 232 139 200 174 q 309 85 264 104 q 411 67 354 65 q 508 92 465 67 q 574 153 550 117 l 649 96 q 539 12 600 39 q 411 -17 478 -15 q 268 8 332 -18 q 159 79 204 33 q 90 188 114 125 q 67 325 67 251 q 90 462 67 399 q 159 571 114 525 q 268 642 204 617 q 411 667 332 668 q 539 638 478 665 q 649 554 600 611 l 574 497 z "},"d":{"ha":849,"x_min":56,"x_max":749,"o":"m 156 325 q 173 224 156 271 q 222 142 190 176 q 299 87 254 107 q 401 67 344 67 q 505 87 457 67 q 588 142 553 107 q 642 224 622 176 q 661 325 661 271 q 642 426 661 379 q 588 508 622 474 q 505 563 553 543 q 401 583 457 583 q 299 563 344 583 q 222 508 254 543 q 173 426 190 474 q 156 325 156 379 m 749 0 l 657 0 l 657 108 l 654 108 q 601 51 632 75 q 538 13 571 28 q 469 -10 504 -3 q 401 -17 433 -17 q 262 9 325 -17 q 153 81 199 35 q 81 189 107 126 q 56 325 56 251 q 81 461 56 399 q 153 569 107 524 q 262 641 199 615 q 401 667 325 667 q 469 660 433 667 q 538 638 504 653 q 601 599 571 622 q 654 542 632 575 l 657 542 l 657 1050 l 749 1050 l 749 0 z "},"e":{"ha":772,"x_min":67,"x_max":706,"o":"m 606 375 q 550 526 606 468 q 394 583 494 583 q 308 566 350 583 q 235 519 267 549 q 185 453 204 490 q 167 375 167 415 l 606 375 m 164 300 q 188 208 168 251 q 239 134 207 165 q 313 85 271 103 q 403 67 354 67 q 530 101 476 67 q 611 179 583 135 l 682 121 q 553 15 624 47 q 403 -17 483 -17 q 269 9 331 -17 q 163 81 207 35 q 92 189 118 126 q 67 325 67 251 q 92 461 67 399 q 161 569 117 524 q 265 641 206 615 q 394 667 325 667 q 526 640 468 667 q 624 570 585 614 q 685 467 664 526 q 706 342 706 408 l 706 300 l 164 300 z "},"f":{"ha":411,"x_min":19,"x_max":454,"o":"m 403 567 l 249 567 l 249 0 l 157 0 l 157 567 l 19 567 l 19 650 l 157 650 l 157 828 q 217 1012 157 957 q 375 1067 276 1067 q 415 1064 394 1067 q 454 1057 435 1061 l 438 974 q 403 981 421 978 q 367 983 385 983 q 306 971 329 983 q 269 935 282 958 q 253 882 257 913 q 249 817 249 851 l 249 650 l 403 650 l 403 567 z "},"g":{"ha":849,"x_min":67,"x_max":743,"o":"m 167 333 q 185 237 167 282 q 237 158 204 192 q 313 103 269 124 q 408 83 357 83 q 503 101 458 83 q 583 152 549 119 q 637 231 618 185 q 654 333 656 276 q 638 430 654 385 q 589 509 621 475 q 511 563 557 543 q 408 583 465 583 q 313 563 357 583 q 237 509 269 543 q 185 430 204 475 q 167 333 167 385 m 150 -131 q 255 -217 190 -185 q 399 -250 319 -250 q 517 -230 468 -250 q 595 -175 565 -210 q 638 -94 625 -140 q 651 6 651 -47 l 651 122 l 649 122 q 540 28 604 56 q 406 0 476 0 q 273 25 335 0 q 165 94 211 50 q 93 199 119 138 q 67 331 67 260 q 92 463 67 401 q 160 569 117 524 q 265 641 204 615 q 397 667 325 667 q 459 661 426 667 q 524 642 492 656 q 589 603 557 628 q 649 542 621 579 l 651 542 l 651 650 l 743 650 l 743 6 q 730 -107 743 -47 q 678 -217 717 -167 q 572 -300 640 -267 q 394 -333 504 -333 q 221 -301 297 -333 q 82 -203 144 -269 l 150 -131 z "},"h":{"ha":772,"x_min":100,"x_max":657,"o":"m 100 1050 l 192 1050 l 192 546 l 194 546 q 233 594 210 572 q 286 633 257 617 q 348 658 315 649 q 413 667 381 667 q 597 601 538 667 q 657 413 657 535 l 657 0 l 565 0 l 565 360 q 528 526 565 468 q 389 583 490 583 q 350 578 382 583 q 283 547 318 572 q 219 472 247 522 q 192 333 192 422 l 192 0 l 100 0 l 100 1050 z "},"i":{"ha":333,"x_min":100,"x_max":233,"o":"m 233 900 q 213 852 233 871 q 167 833 192 833 q 121 852 142 833 q 100 900 100 871 q 121 948 100 929 q 167 967 142 967 q 213 948 192 967 q 233 900 233 929 m 213 0 l 121 0 l 121 650 l 213 650 l 213 0 z "},"j":{"ha":333,"x_min":-43,"x_max":233,"o":"m 233 900 q 213 852 233 871 q 167 833 192 833 q 121 852 142 833 q 100 900 100 871 q 121 948 100 929 q 167 967 142 967 q 213 948 192 967 q 233 900 233 929 m -31 -240 l -26 -242 q -2 -247 -15 -244 q 22 -250 11 -250 q 76 -237 56 -250 q 106 -205 96 -225 q 118 -161 115 -185 q 121 -114 121 -137 l 121 650 l 213 650 l 213 -129 q 211 -177 213 -143 q 194 -246 210 -211 q 140 -307 178 -281 q 29 -333 101 -333 q -43 -319 -10 -333 l -31 -240 z "},"k":{"ha":669,"x_min":100,"x_max":671,"o":"m 192 357 l 499 650 l 636 650 l 313 353 l 671 0 l 529 0 l 192 342 l 192 0 l 100 0 l 100 1050 l 192 1050 l 192 357 z "},"l":{"ha":333,"x_min":121,"x_max":213,"o":"m 213 0 l 121 0 l 121 1050 l 213 1050 l 213 0 z "},"m":{"ha":1183,"x_min":93,"x_max":1069,"o":"m 100 506 q 98 578 100 542 q 93 650 96 614 l 192 650 l 192 551 l 194 551 q 287 638 228 608 q 404 667 346 667 q 460 661 431 667 q 518 641 490 656 q 570 600 546 626 q 611 532 594 574 q 699 631 639 594 q 825 667 760 667 q 1010 601 950 667 q 1069 413 1069 535 l 1069 0 l 978 0 l 978 379 q 943 531 978 478 q 814 583 908 583 q 728 563 763 583 q 672 510 693 543 q 640 434 650 476 q 631 346 631 392 l 631 0 l 539 0 l 539 379 q 504 531 539 478 q 375 583 469 583 q 337 578 367 583 q 275 547 307 572 q 217 472 243 522 q 192 333 192 422 l 192 0 l 100 0 l 100 506 z "},"n":{"ha":772,"x_min":93,"x_max":657,"o":"m 188 650 q 191 598 190 624 q 192 546 192 572 l 194 546 q 233 594 210 572 q 286 633 257 617 q 348 658 315 649 q 413 667 381 667 q 597 601 538 667 q 657 413 657 535 l 657 0 l 565 0 l 565 360 q 528 526 565 468 q 389 583 490 583 q 350 578 382 583 q 283 547 318 572 q 219 472 247 522 q 192 333 192 422 l 192 0 l 100 0 l 100 507 q 98 574 100 533 q 93 650 96 614 l 188 650 z "},"o":{"ha":824,"x_min":67,"x_max":757,"o":"m 657 325 q 640 426 657 379 q 590 508 622 474 q 513 563 558 543 q 411 583 468 583 q 309 563 354 583 q 233 508 264 543 q 184 426 201 474 q 167 325 167 379 q 184 224 167 271 q 233 142 201 176 q 309 87 264 107 q 411 67 354 67 q 513 87 468 67 q 590 142 558 107 q 640 224 622 176 q 657 325 657 271 m 757 325 q 731 189 757 251 q 660 81 706 126 q 551 9 614 35 q 411 -17 488 -17 q 273 9 336 -17 q 164 81 210 35 q 92 189 118 126 q 67 325 67 251 q 92 461 67 399 q 164 569 118 524 q 273 641 210 615 q 411 667 336 667 q 551 641 488 667 q 660 569 614 615 q 731 461 706 524 q 757 325 757 399 z "},"p":{"ha":849,"x_min":100,"x_max":793,"o":"m 693 325 q 676 426 693 379 q 626 508 658 474 q 549 563 594 543 q 447 583 504 583 q 343 563 390 583 q 261 508 296 543 q 207 426 226 474 q 188 325 188 379 q 207 224 188 271 q 261 142 226 176 q 343 87 296 107 q 447 67 390 67 q 549 87 504 67 q 626 142 594 107 q 676 224 658 176 q 693 325 693 271 m 100 650 l 192 650 l 192 542 l 194 542 q 247 599 217 575 q 311 638 278 622 q 380 660 344 653 q 447 667 415 667 q 587 641 524 667 q 696 569 650 615 q 767 461 742 524 q 793 325 793 399 q 767 189 793 251 q 696 81 742 126 q 587 9 650 35 q 447 -17 524 -17 q 380 -10 415 -17 q 311 13 344 -3 q 247 51 278 28 q 194 108 217 75 l 192 108 l 192 -400 l 100 -400 l 100 650 z "},"q":{"ha":849,"x_min":56,"x_max":749,"o":"m 156 325 q 173 224 156 271 q 222 142 190 176 q 299 87 254 107 q 401 67 344 67 q 505 87 457 67 q 588 142 553 107 q 642 224 622 176 q 661 325 661 271 q 642 426 661 379 q 588 508 622 474 q 505 563 553 543 q 401 583 457 583 q 299 563 344 583 q 222 508 254 543 q 173 426 190 474 q 156 325 156 379 m 749 -400 l 657 -400 l 657 108 l 654 108 q 601 51 632 75 q 538 13 571 28 q 469 -10 504 -3 q 401 -17 433 -17 q 262 9 325 -17 q 153 81 199 35 q 81 189 107 126 q 56 325 56 251 q 81 461 56 399 q 153 569 107 524 q 262 641 199 615 q 401 667 325 667 q 469 660 433 667 q 538 638 504 653 q 601 599 571 622 q 654 542 632 575 l 657 542 l 657 650 l 749 650 l 749 -400 z "},"r":{"ha":461,"x_min":104,"x_max":474,"o":"m 110 447 q 108 535 110 490 q 104 650 106 579 l 194 650 l 194 529 l 197 529 q 225 580 207 556 q 269 624 243 604 q 328 655 294 643 q 406 667 363 667 q 474 658 444 667 l 456 568 q 403 575 438 575 q 313 555 350 575 q 250 503 275 535 q 213 436 225 472 q 201 367 201 400 l 201 0 l 110 0 l 110 447 z "},"s":{"ha":592,"x_min":46,"x_max":549,"o":"m 444 496 q 389 560 424 536 q 304 583 354 583 q 256 578 281 583 q 213 560 232 572 q 181 531 193 549 q 169 486 169 513 q 201 419 169 440 q 297 383 233 399 l 390 361 q 503 299 458 346 q 549 183 549 253 q 527 92 549 131 q 470 30 506 54 q 389 -6 435 6 q 296 -17 343 -17 q 156 12 221 -17 q 46 110 92 40 l 125 164 q 195 93 153 119 q 296 67 238 67 q 351 73 324 67 q 401 92 379 79 q 435 126 422 106 q 449 175 449 147 q 413 245 449 224 q 325 279 376 267 l 236 300 q 191 314 219 304 q 135 343 163 324 q 89 394 108 363 q 69 471 69 425 q 90 558 69 521 q 144 619 110 596 q 221 655 178 643 q 310 667 264 667 q 436 640 378 667 q 526 550 494 614 l 444 496 z "},"t":{"ha":461,"x_min":19,"x_max":442,"o":"m 436 567 l 249 567 l 249 183 q 256 124 249 147 q 275 89 263 101 q 305 72 288 76 q 343 67 322 67 q 392 74 367 67 q 438 92 417 81 l 442 7 q 318 -17 390 -17 q 263 -10 292 -17 q 211 17 235 -3 q 172 69 188 36 q 157 157 157 103 l 157 567 l 19 567 l 19 650 l 157 650 l 157 833 l 249 833 l 249 650 l 436 650 l 436 567 z "},"u":{"ha":772,"x_min":100,"x_max":664,"o":"m 569 0 q 566 52 567 26 q 565 104 565 78 l 563 104 q 524 56 547 78 q 471 17 500 33 q 409 -8 442 1 q 344 -17 376 -17 q 160 49 219 -17 q 100 238 100 115 l 100 650 l 192 650 l 192 290 q 200 194 192 236 q 228 124 208 153 q 283 81 249 96 q 368 67 317 67 q 407 72 375 67 q 474 103 439 78 q 538 178 510 128 q 565 317 565 228 l 565 650 l 657 650 l 657 143 q 659 76 657 117 q 664 0 661 36 l 569 0 z "},"v":{"ha":669,"x_min":19,"x_max":650,"o":"m 386 0 l 283 0 l 19 650 l 129 650 l 336 103 l 339 103 l 546 650 l 650 650 l 386 0 z "},"w":{"ha":1003,"x_min":19,"x_max":983,"o":"m 128 650 l 278 122 l 281 122 l 454 650 l 549 650 l 722 122 l 725 122 l 875 650 l 983 650 l 778 0 l 675 0 l 503 533 l 500 533 l 328 0 l 225 0 l 19 650 l 128 650 z "},"x":{"ha":669,"x_min":0,"x_max":669,"o":"m 268 347 l 32 650 l 157 650 l 338 407 l 510 650 l 624 650 l 397 347 l 669 0 l 544 0 l 326 285 l 117 0 l 0 0 l 268 347 z "},"y":{"ha":669,"x_min":22,"x_max":651,"o":"m 342 113 l 540 650 l 651 650 l 326 -169 q 252 -289 297 -244 q 122 -333 207 -333 q 80 -332 101 -333 q 38 -324 58 -331 l 47 -235 q 117 -250 76 -250 q 193 -219 165 -250 q 242 -133 221 -189 l 289 -8 l 22 650 l 138 650 l 342 113 z "},"z":{"ha":592,"x_min":32,"x_max":560,"o":"m 546 583 l 165 83 l 560 83 l 560 0 l 32 0 l 32 67 l 413 567 l 51 567 l 51 650 l 546 650 l 546 583 z "},"{":{"ha":361,"x_min":17,"x_max":379,"o":"m 17 442 q 102 482 64 442 q 140 596 140 522 l 140 843 q 153 925 140 892 q 186 978 165 958 q 234 1008 207 999 q 290 1017 261 1017 l 379 1017 l 379 933 l 301 933 q 262 923 276 933 q 241 896 247 913 q 233 858 235 879 q 232 818 232 838 l 232 579 q 217 495 232 529 q 183 441 203 461 q 142 412 163 421 q 108 401 121 403 l 108 399 q 142 388 121 397 q 183 359 163 379 q 217 305 203 339 q 232 221 232 271 l 232 -18 q 233 -58 232 -37 q 241 -96 235 -79 q 262 -123 247 -112 q 301 -133 276 -133 l 379 -133 l 379 -217 l 290 -217 q 234 -208 261 -217 q 186 -178 207 -199 q 153 -125 165 -158 q 140 -43 140 -92 l 140 204 q 102 318 140 278 q 17 358 64 358 l 17 442 z "},"|":{"ha":308,"x_min":113,"x_max":196,"o":"m 113 1050 l 196 1050 l 196 -25 l 113 -25 l 113 1050 z "},"}":{"ha":361,"x_min":-18,"x_max":344,"o":"m 344 358 q 259 318 297 358 q 221 204 221 278 l 221 -43 q 208 -125 221 -92 q 175 -178 196 -158 q 127 -208 154 -199 q 71 -217 100 -217 l -18 -217 l -18 -133 l 60 -133 q 99 -123 85 -133 q 120 -96 114 -112 q 128 -58 126 -79 q 129 -18 129 -37 l 129 221 q 144 305 129 271 q 178 359 158 339 q 219 388 199 379 q 253 399 240 397 l 253 401 q 219 412 240 403 q 178 441 199 421 q 144 495 158 461 q 129 579 129 529 l 129 818 q 128 858 129 838 q 120 896 126 879 q 99 923 114 913 q 60 933 85 933 l -18 933 l -18 1017 l 71 1017 q 127 1008 100 1017 q 175 978 154 999 q 208 925 196 958 q 221 843 221 892 l 221 596 q 259 482 221 522 q 344 442 297 442 l 344 358 z "},"~":{"ha":925,"x_min":124,"x_max":801,"o":"m 801 456 q 767 410 786 433 q 726 369 749 388 q 674 338 703 350 q 613 326 646 326 q 575 327 590 326 q 544 332 560 328 q 511 344 529 336 q 468 367 493 353 q 396 409 433 386 q 319 432 358 432 q 275 422 296 432 q 236 395 254 411 q 205 362 218 379 q 182 331 192 344 l 124 386 q 158 431 139 408 q 199 473 176 454 q 251 503 222 492 q 313 515 279 515 q 350 515 335 515 q 381 510 365 514 q 414 497 396 506 q 457 475 432 489 q 529 433 492 456 q 606 410 567 410 q 650 420 629 410 q 689 447 671 431 q 720 480 707 463 q 743 511 733 497 l 801 456 z "}," ":{"ha":386,"x_min":0,"x_max":0,"o":""},"¡":{"ha":386,"x_min":118,"x_max":268,"o":"m 118 600 q 139 652 118 629 q 193 675 160 675 q 247 652 226 675 q 268 600 268 629 q 247 548 268 571 q 193 525 226 525 q 139 548 160 525 q 118 600 118 571 m 143 400 l 243 400 l 243 -317 l 143 -317 l 143 400 z "},"¢":{"ha":772,"x_min":108,"x_max":690,"o":"m 467 68 q 556 95 517 71 q 615 153 594 119 l 690 96 q 588 15 646 43 q 467 -15 529 -12 l 467 -100 l 400 -100 l 400 -12 q 278 23 332 -6 q 186 97 224 51 q 128 200 149 142 q 108 325 108 258 q 128 450 108 392 q 186 553 149 508 q 278 627 224 599 q 400 663 332 656 l 400 750 l 467 750 l 467 665 q 588 635 529 663 q 690 554 646 607 l 615 497 q 556 555 594 531 q 467 582 517 579 l 467 68 m 400 579 q 320 549 356 571 q 260 493 285 526 q 222 417 235 460 q 208 325 208 374 q 222 233 208 276 q 260 157 235 190 q 320 101 285 124 q 400 71 356 79 l 400 579 z "},"£":{"ha":772,"x_min":117,"x_max":768,"o":"m 592 465 l 358 465 l 358 83 l 710 83 l 710 0 l 117 0 l 117 83 l 258 83 l 258 465 l 125 465 l 125 549 l 258 549 l 258 669 q 272 796 258 736 q 319 901 286 856 q 410 973 353 946 q 553 1000 467 1000 q 670 981 614 1000 q 768 917 726 961 l 703 846 q 636 897 675 878 q 549 917 597 917 q 447 890 485 917 q 390 824 410 864 q 364 740 369 785 q 358 661 358 696 l 358 549 l 592 549 l 592 465 z "},"¤":{"ha":772,"x_min":40,"x_max":729,"o":"m 133 492 q 153 390 133 438 q 207 306 172 342 q 288 250 242 271 q 386 229 333 229 q 483 250 438 229 q 563 306 529 271 q 617 390 597 342 q 636 492 636 438 q 617 594 636 546 q 563 677 597 642 q 483 733 529 713 q 386 754 438 754 q 288 733 333 754 q 207 677 242 713 q 153 594 172 642 q 133 492 133 546 m 654 703 q 710 603 690 657 q 728 492 729 550 q 710 380 729 433 q 654 281 690 326 l 728 207 l 667 146 l 593 219 q 494 165 547 183 q 385 146 440 146 q 276 165 329 146 q 176 219 222 183 l 103 146 l 42 207 l 115 281 q 60 380 79 326 q 42 492 40 433 q 60 603 40 550 q 115 703 79 657 l 42 776 l 103 838 l 176 764 q 276 819 222 800 q 385 838 329 838 q 494 819 440 838 q 593 764 547 800 l 667 838 l 728 776 l 654 703 z "},"¥":{"ha":772,"x_min":-3,"x_max":775,"o":"m 336 310 l 336 417 l 326 433 l 110 433 l 110 508 l 282 508 l -3 983 l 115 983 l 386 511 l 657 983 l 775 983 l 492 508 l 663 508 l 663 433 l 446 433 l 436 417 l 436 310 l 663 310 l 663 235 l 436 235 l 436 0 l 336 0 l 336 235 l 110 235 l 110 310 l 336 310 z "},"¦":{"ha":308,"x_min":113,"x_max":196,"o":"m 196 631 l 113 631 l 113 1050 l 196 1050 l 196 631 m 113 394 l 196 394 l 196 -25 l 113 -25 l 113 394 z "},"§":{"ha":772,"x_min":86,"x_max":647,"o":"m 313 551 q 241 507 272 535 q 210 435 210 479 q 224 384 210 406 q 260 347 239 363 q 307 318 282 331 q 354 296 332 306 l 446 251 q 482 271 464 258 q 515 299 500 283 q 538 335 529 315 q 547 375 547 354 q 535 428 547 406 q 505 469 524 451 q 463 501 486 488 q 415 525 439 514 l 336 561 l 313 551 m 547 828 q 528 857 540 842 q 498 885 517 872 q 454 908 479 899 q 397 917 429 917 q 319 901 349 917 q 274 865 290 886 q 253 824 258 844 q 247 792 247 803 q 280 712 247 740 q 360 660 313 683 l 513 582 q 609 506 571 551 q 647 389 647 461 q 614 281 647 325 q 526 207 581 236 q 601 132 579 171 q 622 33 622 93 q 601 -67 622 -25 q 542 -138 579 -110 q 458 -180 506 -167 q 361 -193 411 -193 q 194 -154 268 -193 q 86 -33 119 -115 l 178 11 q 252 -82 201 -54 q 361 -110 303 -110 q 417 -103 389 -110 q 469 -79 446 -96 q 508 -35 493 -62 q 522 32 522 -8 q 496 103 522 75 q 425 154 469 132 l 235 247 q 145 317 181 274 q 110 428 110 361 q 151 542 110 497 q 254 614 192 586 q 222 637 240 624 q 186 669 203 650 q 158 716 169 689 q 147 781 147 743 q 167 876 147 835 q 221 944 188 917 q 298 986 254 972 q 390 1000 342 1000 q 546 962 483 1000 q 629 869 608 924 l 547 828 z "},"¨":{"ha":333,"x_min":-37,"x_max":371,"o":"m 229 899 q 249 948 229 926 q 300 969 268 969 q 351 948 332 969 q 371 899 371 926 q 351 849 371 871 q 300 828 332 828 q 249 849 268 828 q 229 899 229 871 m -37 899 q -18 948 -37 926 q 33 969 1 969 q 85 948 65 969 q 104 899 104 926 q 85 849 104 871 q 33 828 65 828 q -18 849 1 828 q -37 899 -37 871 z "},"©":{"ha":1111,"x_min":35,"x_max":1076,"o":"m 118 489 q 152 316 118 396 q 246 177 186 236 q 385 84 306 118 q 556 50 464 50 q 726 84 647 50 q 865 178 806 118 q 959 319 925 238 q 993 494 993 400 q 959 668 993 588 q 865 808 925 749 q 726 900 806 867 q 556 933 647 933 q 385 899 464 933 q 246 806 306 865 q 152 666 186 747 q 118 489 118 585 m 35 489 q 76 695 35 600 q 189 860 118 790 q 354 969 260 929 q 556 1008 449 1008 q 756 969 661 1008 q 922 860 851 929 q 1035 698 993 792 q 1076 494 1076 604 q 1035 288 1076 383 q 922 124 993 193 q 756 15 851 54 q 556 -25 661 -25 q 354 15 449 -25 q 189 123 260 54 q 76 285 118 192 q 35 489 35 379 m 836 392 q 742 233 813 292 q 576 175 672 175 q 449 199 506 175 q 351 266 392 224 q 289 366 311 308 q 267 492 267 424 q 288 618 267 560 q 348 718 308 676 q 444 783 388 760 q 572 807 501 807 q 667 794 622 807 q 746 754 711 781 q 804 688 781 728 q 835 596 828 649 l 757 596 q 696 693 746 654 q 574 732 646 732 q 479 713 521 732 q 409 663 438 694 q 365 588 381 631 q 350 494 350 544 q 366 402 350 446 q 412 324 382 358 q 483 270 442 290 q 576 250 525 250 q 697 291 649 250 q 757 392 746 332 l 836 392 z "},"ª":{"ha":468,"x_min":43,"x_max":407,"o":"m 299 776 q 251 775 281 776 q 194 767 222 774 q 147 747 167 761 q 126 708 126 733 q 152 668 126 681 q 208 656 178 656 q 266 667 244 656 q 299 697 288 679 q 313 737 310 715 q 317 776 317 758 l 299 776 m 189 589 q 135 596 161 589 q 88 617 108 603 q 56 653 68 632 q 43 704 43 675 q 56 762 43 736 q 96 806 68 788 q 170 833 124 824 q 286 843 217 843 l 317 843 l 317 854 q 228 933 317 933 q 160 922 190 933 q 104 892 129 911 l 60 943 q 138 989 96 978 q 225 1000 181 1000 q 310 987 276 1000 q 365 955 344 974 q 392 914 385 936 q 400 875 400 892 l 400 685 q 402 638 400 661 q 407 597 404 615 l 332 597 l 328 647 l 326 647 q 272 604 307 619 q 189 589 238 589 z "},"«":{"ha":669,"x_min":72,"x_max":585,"o":"m 425 333 l 585 89 l 519 43 l 325 333 l 519 624 l 585 578 l 425 333 m 172 333 l 332 89 l 267 43 l 72 333 l 267 624 l 332 578 l 172 333 z "},"¬":{"ha":925,"x_min":108,"x_max":817,"o":"m 817 181 l 733 181 l 733 483 l 108 483 l 108 567 l 817 567 l 817 181 z "},"­":{"ha":463,"x_min":53,"x_max":410,"o":"m 410 288 l 53 288 l 53 379 l 410 379 l 410 288 z "},"®":{"ha":1111,"x_min":35,"x_max":1076,"o":"m 118 489 q 152 316 118 396 q 246 177 186 236 q 385 84 306 118 q 556 50 464 50 q 726 84 647 50 q 865 178 806 118 q 959 319 925 238 q 993 494 993 400 q 959 668 993 588 q 865 808 925 749 q 726 900 806 867 q 556 933 647 933 q 385 899 464 933 q 246 806 306 865 q 152 666 186 747 q 118 489 118 585 m 35 489 q 76 695 35 600 q 189 860 118 790 q 354 969 260 929 q 556 1008 449 1008 q 756 969 661 1008 q 922 860 851 929 q 1035 698 993 792 q 1076 494 1076 604 q 1035 288 1076 383 q 922 124 993 193 q 756 15 851 54 q 556 -25 661 -25 q 354 15 449 -25 q 189 123 260 54 q 76 285 118 192 q 35 489 35 379 m 446 521 l 549 521 q 608 523 579 521 q 660 535 638 525 q 697 564 683 544 q 710 619 710 583 q 698 669 710 650 q 667 697 686 688 q 623 710 647 707 q 575 713 599 713 l 446 713 l 446 521 m 363 788 l 582 788 q 742 747 690 788 q 793 615 793 706 q 747 497 793 535 q 635 453 701 460 l 807 189 l 717 189 l 553 446 l 446 446 l 446 189 l 363 189 l 363 788 z "},"¯":{"ha":333,"x_min":-21,"x_max":354,"o":"m 354 833 l -21 833 l -21 908 l 354 908 l 354 833 z "},"°":{"ha":556,"x_min":71,"x_max":485,"o":"m 418 793 q 407 848 418 822 q 377 892 396 874 q 333 922 358 911 q 278 933 307 933 q 223 922 249 933 q 178 892 197 911 q 149 848 160 874 q 138 793 138 822 q 149 738 138 764 q 178 694 160 713 q 223 664 197 675 q 278 653 249 653 q 333 664 307 653 q 377 694 358 675 q 407 738 396 713 q 418 793 418 764 m 485 793 q 469 710 485 749 q 426 644 454 672 q 360 601 399 617 q 278 586 322 586 q 195 601 233 586 q 129 644 157 617 q 86 710 101 672 q 71 793 71 749 q 86 876 71 838 q 129 942 101 914 q 195 985 157 969 q 278 1000 233 1000 q 360 985 322 1000 q 426 942 399 969 q 469 876 454 914 q 485 793 485 838 z "},"±":{"ha":925,"x_min":108,"x_max":817,"o":"m 108 150 l 817 150 l 817 67 l 108 67 l 108 150 m 108 565 l 421 565 l 421 782 l 504 782 l 504 565 l 817 565 l 817 482 l 504 482 l 504 272 l 421 272 l 421 482 l 108 482 l 108 565 z "},"²":{"ha":501,"x_min":47,"x_max":454,"o":"m 454 401 l 47 401 l 47 481 l 285 708 q 339 769 313 736 q 365 842 365 801 q 356 874 365 858 q 331 901 346 889 q 297 919 317 913 q 260 925 278 925 q 181 902 214 925 q 138 847 149 879 l 60 860 q 127 964 74 928 q 256 1000 181 1000 q 329 990 294 1000 q 390 962 364 981 q 433 914 417 943 q 449 847 449 885 q 438 785 449 814 q 408 731 426 756 q 367 683 390 706 q 319 639 343 661 l 139 476 l 454 476 l 454 401 z "},"³":{"ha":501,"x_min":47,"x_max":454,"o":"m 181 746 l 214 746 q 312 769 271 746 q 353 839 353 792 q 324 901 353 876 q 253 925 296 925 q 187 912 213 925 q 133 861 161 899 l 68 907 q 149 980 104 960 q 251 1000 193 1000 q 322 990 289 1000 q 381 960 356 979 q 422 912 407 940 q 436 847 436 883 q 403 762 436 799 q 322 710 371 725 l 322 707 q 420 656 386 696 q 454 563 454 617 q 438 490 454 522 q 394 437 422 458 q 328 404 365 415 q 250 393 292 393 q 127 422 179 393 q 47 513 75 450 l 119 554 q 167 490 136 513 q 256 468 197 468 q 297 476 276 468 q 333 498 317 485 q 360 528 350 511 q 371 564 371 546 q 365 599 371 581 q 342 634 358 618 q 296 660 325 650 q 221 671 267 671 l 181 671 l 181 746 z "},"´":{"ha":333,"x_min":82,"x_max":347,"o":"m 164 783 l 82 783 l 221 983 l 347 983 l 164 783 z "},"µ":{"ha":772,"x_min":100,"x_max":664,"o":"m 100 650 l 192 650 l 192 290 q 230 119 192 171 q 368 67 268 67 q 446 83 410 67 q 508 132 482 100 q 550 210 535 164 q 565 317 565 257 l 565 650 l 657 650 l 657 143 q 659 72 657 107 q 664 0 661 36 l 565 0 l 565 106 l 563 106 q 524 58 547 81 q 471 19 500 36 q 409 -7 442 3 q 344 -17 376 -17 q 192 24 249 -17 l 192 -317 l 100 -317 l 100 650 z "},"¶":{"ha":833,"x_min":67,"x_max":713,"o":"m 713 -175 l 621 -175 l 621 908 l 449 908 l 449 -175 l 357 -175 l 357 439 q 240 459 293 439 q 148 514 186 479 q 88 596 110 549 q 67 697 67 643 q 151 908 67 833 q 383 983 236 983 l 713 983 l 713 -175 z "},"·":{"ha":386,"x_min":118,"x_max":268,"o":"m 268 436 q 247 384 268 407 q 193 361 226 361 q 139 384 160 361 q 118 436 118 407 q 139 488 118 465 q 193 511 160 511 q 247 488 226 511 q 268 436 268 465 z "},"¸":{"ha":333,"x_min":19,"x_max":314,"o":"m 154 -83 l 157 -85 q 180 -78 168 -81 q 207 -75 192 -75 q 281 -102 249 -75 q 314 -179 314 -129 q 299 -235 314 -211 q 262 -273 285 -258 q 210 -294 239 -287 q 154 -301 182 -301 q 19 -268 82 -301 l 42 -218 q 144 -243 89 -243 q 203 -229 175 -243 q 231 -181 231 -215 q 228 -165 231 -175 q 218 -147 225 -156 q 197 -131 211 -137 q 163 -125 183 -125 q 128 -129 143 -125 q 99 -140 113 -133 l 74 -117 l 160 0 l 217 0 l 154 -83 z "},"¹":{"ha":501,"x_min":75,"x_max":313,"o":"m 313 401 l 229 401 l 229 908 l 115 815 l 75 868 l 238 992 l 313 992 l 313 401 z "},"º":{"ha":535,"x_min":43,"x_max":492,"o":"m 408 793 q 398 847 408 822 q 369 892 388 872 q 324 922 350 911 q 267 933 297 933 q 165 892 204 933 q 126 793 126 851 q 165 696 126 736 q 267 656 204 656 q 324 667 297 656 q 369 697 350 678 q 398 740 388 715 q 408 793 408 765 m 492 793 q 475 712 492 749 q 428 647 458 675 q 358 604 399 619 q 267 589 317 589 q 177 604 218 589 q 106 647 136 619 q 60 712 76 675 q 43 793 43 749 q 60 876 43 838 q 106 942 76 914 q 177 985 136 969 q 267 1000 218 1000 q 358 985 317 1000 q 428 942 399 969 q 475 876 458 914 q 492 793 492 838 z "},"»":{"ha":669,"x_min":85,"x_max":597,"o":"m 244 333 l 85 578 l 150 624 l 344 333 l 150 43 l 85 89 l 244 333 m 497 333 l 338 578 l 403 624 l 597 333 l 403 43 l 338 89 l 497 333 z "},"¼":{"ha":1158,"x_min":89,"x_max":1069,"o":"m 903 507 l 900 507 l 711 206 l 903 206 l 903 507 m 986 206 l 1069 206 l 1069 131 l 986 131 l 986 0 l 903 0 l 903 131 l 636 131 l 636 217 l 885 590 l 986 590 l 986 206 m 326 401 l 243 401 l 243 908 l 129 815 l 89 868 l 251 992 l 326 992 l 326 401 m 213 0 l 839 1028 l 910 985 l 285 -44 l 213 0 z "},"½":{"ha":1158,"x_min":54,"x_max":1104,"o":"m 1104 0 l 697 0 l 697 79 l 935 307 q 989 367 963 335 q 1015 440 1015 400 q 1006 472 1015 457 q 981 499 996 488 q 947 517 967 511 q 910 524 928 524 q 831 501 864 524 q 788 446 799 478 l 710 458 q 777 563 724 526 q 906 599 831 599 q 979 589 944 599 q 1040 560 1014 579 q 1083 513 1067 542 q 1099 446 1099 483 q 1088 383 1099 413 q 1058 329 1076 354 q 1017 282 1040 304 q 969 238 993 260 l 789 75 l 1104 75 l 1104 0 m 292 401 l 208 401 l 208 908 l 94 815 l 54 868 l 217 992 l 292 992 l 292 401 m 178 0 l 804 1028 l 875 985 l 250 -44 l 178 0 z "},"¾":{"ha":1158,"x_min":61,"x_max":1097,"o":"m 931 507 l 928 507 l 739 206 l 931 206 l 931 507 m 1014 206 l 1097 206 l 1097 131 l 1014 131 l 1014 0 l 931 0 l 931 131 l 664 131 l 664 217 l 913 590 l 1014 590 l 1014 206 m 193 746 l 226 746 q 324 769 283 746 q 365 844 365 793 q 337 901 365 878 q 265 925 308 925 q 199 912 225 925 q 146 861 174 899 l 81 907 q 161 980 117 960 q 264 1000 206 1000 q 335 990 301 1000 q 394 960 368 979 q 434 912 419 940 q 449 847 449 883 q 416 762 449 799 q 335 710 383 725 l 335 707 q 433 656 399 696 q 467 563 467 617 q 451 490 467 522 q 406 437 435 458 q 341 404 378 415 q 263 393 304 393 q 140 422 192 393 q 61 513 88 450 l 132 554 q 179 490 149 513 q 268 468 210 468 q 309 476 289 468 q 346 498 329 485 q 373 528 363 511 q 383 564 383 546 q 377 599 383 581 q 354 634 371 618 q 308 660 338 650 q 233 671 279 671 l 193 671 l 193 746 m 268 0 l 894 1028 l 965 985 l 340 -44 l 268 0 z "},"¿":{"ha":669,"x_min":61,"x_max":604,"o":"m 253 600 q 274 652 253 629 q 328 675 294 675 q 382 652 361 675 q 403 600 403 629 q 382 548 403 571 q 328 525 361 525 q 274 548 294 525 q 253 600 253 571 m 286 400 l 386 400 l 386 285 q 368 215 385 246 q 326 158 351 185 q 272 106 301 131 q 219 52 243 81 q 178 -9 194 24 q 161 -82 161 -42 q 206 -197 161 -153 q 324 -242 251 -242 q 441 -200 394 -242 q 500 -90 488 -158 l 604 -103 q 572 -200 596 -157 q 510 -273 547 -243 q 426 -318 474 -303 q 325 -333 379 -333 q 221 -317 269 -333 q 137 -271 172 -301 q 81 -194 101 -240 q 61 -90 61 -149 q 78 8 61 -32 q 119 78 94 49 q 174 132 144 108 q 228 183 203 156 q 269 244 253 210 q 286 329 286 278 l 286 400 z "},"À":{"ha":953,"x_min":0,"x_max":953,"o":"m 263 350 l 689 350 l 476 867 l 263 350 m 117 0 l 0 0 l 428 983 l 525 983 l 953 0 l 836 0 l 728 258 l 225 258 l 117 0 m 296 1226 l 422 1226 l 561 1026 l 479 1026 l 296 1226 z "},"Á":{"ha":953,"x_min":0,"x_max":953,"o":"m 263 350 l 689 350 l 476 867 l 263 350 m 117 0 l 0 0 l 428 983 l 525 983 l 953 0 l 836 0 l 728 258 l 225 258 l 117 0 m 474 1026 l 392 1026 l 531 1226 l 657 1226 l 474 1026 z "},"Â":{"ha":953,"x_min":0,"x_max":953,"o":"m 263 350 l 689 350 l 476 867 l 263 350 m 117 0 l 0 0 l 428 983 l 525 983 l 953 0 l 836 0 l 728 258 l 225 258 l 117 0 m 683 1026 l 592 1026 l 476 1176 l 361 1026 l 269 1026 l 421 1226 l 532 1226 l 683 1026 z "},"Ã":{"ha":953,"x_min":0,"x_max":953,"o":"m 263 350 l 689 350 l 476 867 l 263 350 m 117 0 l 0 0 l 428 983 l 525 983 l 953 0 l 836 0 l 728 258 l 225 258 l 117 0 m 251 1043 q 265 1096 256 1069 q 289 1142 274 1122 q 326 1175 304 1163 q 379 1188 347 1188 q 430 1178 404 1188 q 481 1156 456 1168 q 529 1134 506 1144 q 574 1124 553 1124 q 620 1145 606 1124 q 642 1193 635 1167 l 701 1193 q 688 1140 697 1165 q 664 1094 679 1114 q 626 1061 649 1074 q 574 1049 604 1049 q 523 1059 549 1049 q 472 1081 497 1069 q 425 1103 449 1093 q 379 1113 401 1113 q 333 1091 347 1113 q 311 1043 318 1069 l 251 1043 z "},"Ä":{"ha":953,"x_min":0,"x_max":953,"o":"m 263 350 l 689 350 l 476 867 l 263 350 m 117 0 l 0 0 l 428 983 l 525 983 l 953 0 l 836 0 l 728 258 l 225 258 l 117 0 m 539 1142 q 558 1191 539 1169 q 610 1213 578 1213 q 661 1191 642 1213 q 681 1142 681 1169 q 661 1092 681 1114 q 610 1071 642 1071 q 558 1092 578 1071 q 539 1142 539 1114 m 272 1142 q 292 1191 272 1169 q 343 1213 311 1213 q 394 1191 375 1213 q 414 1142 414 1169 q 394 1092 414 1114 q 343 1071 375 1071 q 292 1092 311 1071 q 272 1142 272 1114 z "},"Å":{"ha":953,"x_min":0,"x_max":953,"o":"m 263 350 l 689 350 l 476 867 l 263 350 m 117 0 l 0 0 l 428 983 l 525 983 l 953 0 l 836 0 l 728 258 l 225 258 l 117 0 m 560 1146 q 535 1204 560 1181 q 476 1228 511 1228 q 417 1204 442 1228 q 393 1146 393 1181 q 417 1088 393 1111 q 476 1064 442 1064 q 535 1088 511 1064 q 560 1146 560 1111 m 610 1146 q 599 1094 610 1118 q 570 1051 589 1069 q 527 1024 551 1033 q 476 1014 503 1014 q 425 1024 449 1014 q 383 1051 401 1033 q 353 1094 364 1069 q 343 1146 343 1118 q 353 1198 343 1174 q 383 1240 364 1222 q 425 1267 401 1257 q 476 1278 449 1278 q 527 1267 503 1278 q 570 1240 551 1257 q 599 1198 589 1222 q 610 1146 610 1174 z "},"Æ":{"ha":1311,"x_min":0,"x_max":1235,"o":"m 710 367 l 710 892 l 694 892 l 354 367 l 710 367 m 810 557 l 1193 557 l 1193 465 l 810 465 l 810 92 l 1235 92 l 1235 0 l 710 0 l 710 275 l 296 275 l 118 0 l 0 0 l 640 983 l 1218 983 l 1218 892 l 810 892 l 810 557 z "},"Ç":{"ha":978,"x_min":67,"x_max":943,"o":"m 504 -83 l 507 -85 q 530 -78 518 -81 q 557 -75 542 -75 q 631 -102 599 -75 q 664 -179 664 -129 q 649 -235 664 -211 q 612 -273 635 -258 q 560 -294 589 -287 q 504 -301 532 -301 q 369 -268 432 -301 l 392 -218 q 494 -243 439 -243 q 553 -229 525 -243 q 581 -181 581 -215 q 578 -165 581 -175 q 568 -147 575 -156 q 547 -131 561 -137 q 513 -125 533 -125 q 478 -129 493 -125 q 449 -140 463 -133 l 424 -117 l 496 -18 q 375 14 433 -10 q 213 122 282 53 q 106 285 144 190 q 67 492 67 379 q 106 699 67 604 q 213 862 144 793 q 376 969 282 931 q 579 1008 469 1008 q 763 972 671 1008 q 919 853 854 936 l 832 788 q 790 835 817 811 q 730 876 764 858 q 657 906 696 894 q 579 917 618 917 q 410 882 485 917 q 283 789 335 847 q 203 653 231 731 q 175 492 175 576 q 203 330 175 407 q 283 194 231 253 q 410 101 335 136 q 579 67 485 67 q 656 74 618 67 q 731 97 694 81 q 801 142 768 114 q 861 214 833 171 l 943 156 q 881 85 918 118 q 797 27 844 51 q 695 -11 750 3 q 579 -25 640 -25 q 549 -24 564 -25 l 504 -83 z "},"È":{"ha":824,"x_min":133,"x_max":760,"o":"m 233 92 l 760 92 l 760 0 l 133 0 l 133 983 l 743 983 l 743 892 l 233 892 l 233 557 l 710 557 l 710 465 l 233 465 l 233 92 m 232 1226 l 358 1226 l 497 1026 l 415 1026 l 232 1226 z "},"É":{"ha":824,"x_min":133,"x_max":760,"o":"m 233 92 l 760 92 l 760 0 l 133 0 l 133 983 l 743 983 l 743 892 l 233 892 l 233 557 l 710 557 l 710 465 l 233 465 l 233 92 m 410 1026 l 328 1026 l 467 1226 l 593 1226 l 410 1026 z "},"Ê":{"ha":824,"x_min":133,"x_max":760,"o":"m 233 92 l 760 92 l 760 0 l 133 0 l 133 983 l 743 983 l 743 892 l 233 892 l 233 557 l 710 557 l 710 465 l 233 465 l 233 92 m 619 1026 l 528 1026 l 413 1176 l 297 1026 l 206 1026 l 357 1226 l 468 1226 l 619 1026 z "},"Ë":{"ha":824,"x_min":133,"x_max":760,"o":"m 233 92 l 760 92 l 760 0 l 133 0 l 133 983 l 743 983 l 743 892 l 233 892 l 233 557 l 710 557 l 710 465 l 233 465 l 233 92 m 475 1142 q 494 1191 475 1169 q 546 1213 514 1213 q 597 1191 578 1213 q 617 1142 617 1169 q 597 1092 617 1114 q 546 1071 578 1071 q 494 1092 514 1071 q 475 1142 475 1114 m 208 1142 q 228 1191 208 1169 q 279 1213 247 1213 q 331 1191 311 1213 q 350 1142 350 1169 q 331 1092 350 1114 q 279 1071 311 1071 q 228 1092 247 1071 q 208 1142 208 1114 z "},"Ì":{"ha":367,"x_min":3,"x_max":268,"o":"m 233 0 l 133 0 l 133 983 l 233 983 l 233 0 m 3 1226 l 129 1226 l 268 1026 l 186 1026 l 3 1226 z "},"Í":{"ha":367,"x_min":99,"x_max":364,"o":"m 233 0 l 133 0 l 133 983 l 233 983 l 233 0 m 181 1026 l 99 1026 l 238 1226 l 364 1226 l 181 1026 z "},"Î":{"ha":367,"x_min":-24,"x_max":390,"o":"m 233 0 l 133 0 l 133 983 l 233 983 l 233 0 m 390 1026 l 299 1026 l 183 1176 l 68 1026 l -24 1026 l 128 1226 l 239 1226 l 390 1026 z "},"Ï":{"ha":367,"x_min":-21,"x_max":388,"o":"m 233 0 l 133 0 l 133 983 l 233 983 l 233 0 m 246 1142 q 265 1191 246 1169 q 317 1213 285 1213 q 368 1191 349 1213 q 388 1142 388 1169 q 368 1092 388 1114 q 317 1071 349 1071 q 265 1092 285 1071 q 246 1142 246 1114 m -21 1142 q -1 1191 -21 1169 q 50 1213 18 1213 q 101 1191 82 1213 q 121 1142 121 1169 q 101 1092 121 1114 q 50 1071 82 1071 q -1 1092 18 1071 q -21 1142 -21 1114 z "},"Ð":{"ha":1029,"x_min":18,"x_max":963,"o":"m 219 92 l 414 92 q 609 126 526 92 q 747 216 692 160 q 828 344 801 272 q 854 492 854 415 q 828 640 854 568 q 747 767 801 711 q 609 858 692 824 q 414 892 526 892 l 219 892 l 219 557 l 578 557 l 578 482 l 219 482 l 219 92 m 119 482 l 18 482 l 18 557 l 119 557 l 119 983 l 446 983 q 630 953 538 983 q 797 860 722 922 q 917 706 871 799 q 963 492 963 614 q 917 276 963 368 q 797 123 871 185 q 630 31 722 61 q 446 0 538 0 l 119 0 l 119 482 z "},"Ñ":{"ha":1081,"x_min":133,"x_max":947,"o":"m 844 150 l 847 150 l 847 983 l 947 983 l 947 0 l 822 0 l 236 842 l 233 842 l 233 0 l 133 0 l 133 983 l 258 983 l 844 150 m 315 1043 q 328 1096 319 1069 q 353 1142 338 1122 q 390 1175 368 1163 q 443 1188 411 1188 q 494 1178 468 1188 q 544 1156 519 1168 q 593 1134 569 1144 q 638 1124 617 1124 q 684 1145 669 1124 q 706 1193 699 1167 l 765 1193 q 752 1140 761 1165 q 728 1094 743 1114 q 690 1061 713 1074 q 638 1049 668 1049 q 587 1059 613 1049 q 536 1081 561 1069 q 489 1103 513 1093 q 443 1113 465 1113 q 397 1091 411 1113 q 375 1043 382 1069 l 315 1043 z "},"Ò":{"ha":1158,"x_min":67,"x_max":1092,"o":"m 983 492 q 956 653 983 576 q 876 789 928 731 q 749 882 824 847 q 579 917 674 917 q 410 882 485 917 q 283 789 335 847 q 203 653 231 731 q 175 492 175 576 q 203 330 175 407 q 283 194 231 253 q 410 101 335 136 q 579 67 485 67 q 749 101 674 67 q 876 194 824 136 q 956 330 928 253 q 983 492 983 407 m 1092 492 q 1053 285 1092 379 q 945 122 1014 190 q 783 14 876 53 q 579 -25 689 -25 q 376 14 469 -25 q 213 122 282 53 q 106 285 144 190 q 67 492 67 379 q 106 699 67 604 q 213 862 144 793 q 376 969 282 931 q 579 1008 469 1008 q 783 969 689 1008 q 945 862 876 931 q 1053 699 1014 793 q 1092 492 1092 604 m 399 1226 l 525 1226 l 664 1026 l 582 1026 l 399 1226 z "},"Ó":{"ha":1158,"x_min":67,"x_max":1092,"o":"m 983 492 q 956 653 983 576 q 876 789 928 731 q 749 882 824 847 q 579 917 674 917 q 410 882 485 917 q 283 789 335 847 q 203 653 231 731 q 175 492 175 576 q 203 330 175 407 q 283 194 231 253 q 410 101 335 136 q 579 67 485 67 q 749 101 674 67 q 876 194 824 136 q 956 330 928 253 q 983 492 983 407 m 1092 492 q 1053 285 1092 379 q 945 122 1014 190 q 783 14 876 53 q 579 -25 689 -25 q 376 14 469 -25 q 213 122 282 53 q 106 285 144 190 q 67 492 67 379 q 106 699 67 604 q 213 862 144 793 q 376 969 282 931 q 579 1008 469 1008 q 783 969 689 1008 q 945 862 876 931 q 1053 699 1014 793 q 1092 492 1092 604 m 576 1026 l 494 1026 l 633 1226 l 760 1226 l 576 1026 z "},"Ô":{"ha":1158,"x_min":67,"x_max":1092,"o":"m 983 492 q 956 653 983 576 q 876 789 928 731 q 749 882 824 847 q 579 917 674 917 q 410 882 485 917 q 283 789 335 847 q 203 653 231 731 q 175 492 175 576 q 203 330 175 407 q 283 194 231 253 q 410 101 335 136 q 579 67 485 67 q 749 101 674 67 q 876 194 824 136 q 956 330 928 253 q 983 492 983 407 m 1092 492 q 1053 285 1092 379 q 945 122 1014 190 q 783 14 876 53 q 579 -25 689 -25 q 376 14 469 -25 q 213 122 282 53 q 106 285 144 190 q 67 492 67 379 q 106 699 67 604 q 213 862 144 793 q 376 969 282 931 q 579 1008 469 1008 q 783 969 689 1008 q 945 862 876 931 q 1053 699 1014 793 q 1092 492 1092 604 m 786 1026 l 694 1026 l 579 1176 l 464 1026 l 372 1026 l 524 1226 l 635 1226 l 786 1026 z "},"Õ":{"ha":1158,"x_min":67,"x_max":1092,"o":"m 983 492 q 956 653 983 576 q 876 789 928 731 q 749 882 824 847 q 579 917 674 917 q 410 882 485 917 q 283 789 335 847 q 203 653 231 731 q 175 492 175 576 q 203 330 175 407 q 283 194 231 253 q 410 101 335 136 q 579 67 485 67 q 749 101 674 67 q 876 194 824 136 q 956 330 928 253 q 983 492 983 407 m 1092 492 q 1053 285 1092 379 q 945 122 1014 190 q 783 14 876 53 q 579 -25 689 -25 q 376 14 469 -25 q 213 122 282 53 q 106 285 144 190 q 67 492 67 379 q 106 699 67 604 q 213 862 144 793 q 376 969 282 931 q 579 1008 469 1008 q 783 969 689 1008 q 945 862 876 931 q 1053 699 1014 793 q 1092 492 1092 604 m 354 1043 q 367 1096 358 1069 q 392 1142 376 1122 q 428 1175 407 1163 q 482 1188 450 1188 q 533 1178 507 1188 q 583 1156 558 1168 q 632 1134 608 1144 q 676 1124 656 1124 q 723 1145 708 1124 q 744 1193 738 1167 l 804 1193 q 791 1140 800 1165 q 767 1094 782 1114 q 729 1061 751 1074 q 676 1049 707 1049 q 626 1059 651 1049 q 575 1081 600 1069 q 528 1103 551 1093 q 482 1113 504 1113 q 435 1091 450 1113 q 414 1043 421 1069 l 354 1043 z "},"Ö":{"ha":1158,"x_min":67,"x_max":1092,"o":"m 983 492 q 956 653 983 576 q 876 789 928 731 q 749 882 824 847 q 579 917 674 917 q 410 882 485 917 q 283 789 335 847 q 203 653 231 731 q 175 492 175 576 q 203 330 175 407 q 283 194 231 253 q 410 101 335 136 q 579 67 485 67 q 749 101 674 67 q 876 194 824 136 q 956 330 928 253 q 983 492 983 407 m 1092 492 q 1053 285 1092 379 q 945 122 1014 190 q 783 14 876 53 q 579 -25 689 -25 q 376 14 469 -25 q 213 122 282 53 q 106 285 144 190 q 67 492 67 379 q 106 699 67 604 q 213 862 144 793 q 376 969 282 931 q 579 1008 469 1008 q 783 969 689 1008 q 945 862 876 931 q 1053 699 1014 793 q 1092 492 1092 604 m 642 1142 q 661 1191 642 1169 q 713 1213 681 1213 q 764 1191 744 1213 q 783 1142 783 1169 q 764 1092 783 1114 q 713 1071 744 1071 q 661 1092 681 1071 q 642 1142 642 1114 m 375 1142 q 394 1191 375 1169 q 446 1213 414 1213 q 497 1191 478 1213 q 517 1142 517 1169 q 497 1092 517 1114 q 446 1071 478 1071 q 394 1092 414 1071 q 375 1142 375 1114 z "},"×":{"ha":925,"x_min":183,"x_max":742,"o":"m 463 481 l 682 701 l 742 643 l 521 421 l 742 200 l 682 140 l 463 361 l 242 140 l 183 200 l 404 421 l 183 643 l 242 701 l 463 481 z "},"Ø":{"ha":1158,"x_min":67,"x_max":1092,"o":"m 840 824 q 725 892 790 868 q 579 917 660 917 q 410 882 485 917 q 283 789 335 847 q 203 653 231 731 q 175 492 175 576 q 199 340 175 413 q 269 211 224 268 l 840 824 m 318 160 q 433 91 368 115 q 579 67 499 67 q 749 101 674 67 q 876 194 824 136 q 956 330 928 253 q 983 492 983 407 q 959 642 983 571 q 889 772 935 714 l 318 160 m 958 847 q 1057 689 1022 779 q 1092 492 1092 599 q 1053 285 1092 379 q 945 122 1014 190 q 783 14 876 53 q 579 -25 689 -25 q 400 5 483 -25 q 251 88 317 35 l 146 -25 l 94 22 l 200 136 q 101 294 136 204 q 67 492 67 385 q 106 699 67 604 q 213 862 144 793 q 376 969 282 931 q 579 1008 469 1008 q 758 979 675 1008 q 907 896 840 950 l 1013 1008 l 1064 961 l 958 847 z "},"Ù":{"ha":953,"x_min":117,"x_max":836,"o":"m 836 367 q 822 237 836 306 q 767 110 807 168 q 656 13 726 51 q 476 -25 586 -25 q 296 13 365 -25 q 186 110 226 51 q 131 237 146 168 q 117 367 117 306 l 117 983 l 217 983 l 217 378 q 231 256 217 307 q 267 171 244 206 q 319 116 290 136 q 376 85 347 96 q 431 70 404 74 q 476 67 457 67 q 522 70 494 67 q 577 85 549 74 q 634 116 606 96 q 685 171 663 136 q 722 256 708 206 q 736 378 736 307 l 736 983 l 836 983 l 836 367 m 296 1226 l 422 1226 l 561 1026 l 479 1026 l 296 1226 z "},"Ú":{"ha":953,"x_min":117,"x_max":836,"o":"m 836 367 q 822 237 836 306 q 767 110 807 168 q 656 13 726 51 q 476 -25 586 -25 q 296 13 365 -25 q 186 110 226 51 q 131 237 146 168 q 117 367 117 306 l 117 983 l 217 983 l 217 378 q 231 256 217 307 q 267 171 244 206 q 319 116 290 136 q 376 85 347 96 q 431 70 404 74 q 476 67 457 67 q 522 70 494 67 q 577 85 549 74 q 634 116 606 96 q 685 171 663 136 q 722 256 708 206 q 736 378 736 307 l 736 983 l 836 983 l 836 367 m 474 1026 l 392 1026 l 531 1226 l 657 1226 l 474 1026 z "},"Û":{"ha":953,"x_min":117,"x_max":836,"o":"m 836 367 q 822 237 836 306 q 767 110 807 168 q 656 13 726 51 q 476 -25 586 -25 q 296 13 365 -25 q 186 110 226 51 q 131 237 146 168 q 117 367 117 306 l 117 983 l 217 983 l 217 378 q 231 256 217 307 q 267 171 244 206 q 319 116 290 136 q 376 85 347 96 q 431 70 404 74 q 476 67 457 67 q 522 70 494 67 q 577 85 549 74 q 634 116 606 96 q 685 171 663 136 q 722 256 708 206 q 736 378 736 307 l 736 983 l 836 983 l 836 367 m 683 1026 l 592 1026 l 476 1176 l 361 1026 l 269 1026 l 421 1226 l 532 1226 l 683 1026 z "},"Ü":{"ha":953,"x_min":117,"x_max":836,"o":"m 836 367 q 822 237 836 306 q 767 110 807 168 q 656 13 726 51 q 476 -25 586 -25 q 296 13 365 -25 q 186 110 226 51 q 131 237 146 168 q 117 367 117 306 l 117 983 l 217 983 l 217 378 q 231 256 217 307 q 267 171 244 206 q 319 116 290 136 q 376 85 347 96 q 431 70 404 74 q 476 67 457 67 q 522 70 494 67 q 577 85 549 74 q 634 116 606 96 q 685 171 663 136 q 722 256 708 206 q 736 378 736 307 l 736 983 l 836 983 l 836 367 m 539 1142 q 558 1191 539 1169 q 610 1213 578 1213 q 661 1191 642 1213 q 681 1142 681 1169 q 661 1092 681 1114 q 610 1071 642 1071 q 558 1092 578 1071 q 539 1142 539 1114 m 272 1142 q 292 1191 272 1169 q 343 1213 311 1213 q 394 1191 375 1213 q 414 1142 414 1169 q 394 1092 414 1114 q 343 1071 375 1071 q 292 1092 311 1071 q 272 1142 272 1114 z "},"Ý":{"ha":797,"x_min":-19,"x_max":817,"o":"m 449 0 l 349 0 l 349 424 l -19 983 l 106 983 l 399 519 l 692 983 l 817 983 l 449 424 l 449 0 m 396 1026 l 314 1026 l 453 1226 l 579 1226 l 396 1026 z "},"Þ":{"ha":797,"x_min":133,"x_max":743,"o":"m 233 332 l 394 332 q 476 336 433 332 q 554 358 519 340 q 612 410 589 375 q 635 504 635 444 q 612 598 635 564 q 554 649 589 632 q 476 671 519 667 q 394 675 433 675 l 233 675 l 233 332 m 133 983 l 233 983 l 233 767 l 456 767 q 569 751 517 767 q 660 702 622 735 q 721 620 699 669 q 743 504 743 571 q 721 388 743 438 q 660 306 699 339 q 569 256 622 272 q 456 240 517 240 l 233 240 l 233 0 l 133 0 l 133 983 z "},"ß":{"ha":824,"x_min":117,"x_max":751,"o":"m 208 0 l 117 0 l 117 756 q 131 873 117 817 q 180 972 146 929 q 270 1041 214 1015 q 410 1067 326 1067 q 514 1050 465 1067 q 598 1002 563 1033 q 654 925 633 971 q 675 821 675 879 q 514 600 675 658 l 514 597 q 620 567 575 592 q 694 502 665 542 q 738 413 724 463 q 751 310 751 364 q 728 176 751 236 q 660 72 704 115 q 556 6 617 29 q 422 -17 496 -17 q 382 -15 403 -17 q 342 -6 361 -12 l 342 74 q 375 68 358 69 q 408 67 392 67 q 585 131 519 67 q 651 311 651 194 q 576 496 651 438 q 372 554 501 554 l 372 638 q 451 647 414 638 q 516 676 489 656 q 559 728 543 696 q 575 808 575 761 q 525 938 575 892 q 404 983 475 983 q 311 963 349 983 q 251 910 274 942 q 218 839 228 878 q 208 764 208 800 l 208 0 z "},"à":{"ha":721,"x_min":67,"x_max":619,"o":"m 469 324 q 383 320 435 324 q 283 303 331 317 q 201 263 235 290 q 167 186 167 235 q 180 131 167 154 q 215 94 193 108 q 265 73 238 79 q 319 67 292 67 q 406 83 369 67 q 468 128 443 100 q 505 195 493 157 q 517 276 517 233 l 517 324 l 469 324 m 517 399 l 517 415 q 350 583 517 583 q 151 507 236 583 l 96 572 q 371 667 188 667 q 462 653 418 667 q 538 610 506 639 q 589 539 569 582 q 608 436 608 496 l 608 146 q 612 67 608 108 q 619 0 615 26 l 531 0 q 524 51 526 24 q 522 106 522 79 l 519 106 q 424 12 479 40 q 290 -17 369 -17 q 207 -5 247 -17 q 135 31 167 7 q 85 91 104 56 q 67 174 67 126 q 108 298 67 253 q 210 365 149 343 q 342 393 272 388 q 471 399 413 399 l 517 399 m 181 983 l 307 983 l 446 783 l 364 783 l 181 983 z "},"á":{"ha":721,"x_min":67,"x_max":619,"o":"m 469 324 q 383 320 435 324 q 283 303 331 317 q 201 263 235 290 q 167 186 167 235 q 180 131 167 154 q 215 94 193 108 q 265 73 238 79 q 319 67 292 67 q 406 83 369 67 q 468 128 443 100 q 505 195 493 157 q 517 276 517 233 l 517 324 l 469 324 m 517 399 l 517 415 q 350 583 517 583 q 151 507 236 583 l 96 572 q 371 667 188 667 q 462 653 418 667 q 538 610 506 639 q 589 539 569 582 q 608 436 608 496 l 608 146 q 612 67 608 108 q 619 0 615 26 l 531 0 q 524 51 526 24 q 522 106 522 79 l 519 106 q 424 12 479 40 q 290 -17 369 -17 q 207 -5 247 -17 q 135 31 167 7 q 85 91 104 56 q 67 174 67 126 q 108 298 67 253 q 210 365 149 343 q 342 393 272 388 q 471 399 413 399 l 517 399 m 358 783 l 276 783 l 415 983 l 542 983 l 358 783 z "},"â":{"ha":721,"x_min":67,"x_max":619,"o":"m 469 324 q 383 320 435 324 q 283 303 331 317 q 201 263 235 290 q 167 186 167 235 q 180 131 167 154 q 215 94 193 108 q 265 73 238 79 q 319 67 292 67 q 406 83 369 67 q 468 128 443 100 q 505 195 493 157 q 517 276 517 233 l 517 324 l 469 324 m 517 399 l 517 415 q 350 583 517 583 q 151 507 236 583 l 96 572 q 371 667 188 667 q 462 653 418 667 q 538 610 506 639 q 589 539 569 582 q 608 436 608 496 l 608 146 q 612 67 608 108 q 619 0 615 26 l 531 0 q 524 51 526 24 q 522 106 522 79 l 519 106 q 424 12 479 40 q 290 -17 369 -17 q 207 -5 247 -17 q 135 31 167 7 q 85 91 104 56 q 67 174 67 126 q 108 298 67 253 q 210 365 149 343 q 342 393 272 388 q 471 399 413 399 l 517 399 m 568 783 l 476 783 l 361 933 l 246 783 l 154 783 l 306 983 l 417 983 l 568 783 z "},"ã":{"ha":721,"x_min":67,"x_max":619,"o":"m 469 324 q 383 320 435 324 q 283 303 331 317 q 201 263 235 290 q 167 186 167 235 q 180 131 167 154 q 215 94 193 108 q 265 73 238 79 q 319 67 292 67 q 406 83 369 67 q 468 128 443 100 q 505 195 493 157 q 517 276 517 233 l 517 324 l 469 324 m 517 399 l 517 415 q 350 583 517 583 q 151 507 236 583 l 96 572 q 371 667 188 667 q 462 653 418 667 q 538 610 506 639 q 589 539 569 582 q 608 436 608 496 l 608 146 q 612 67 608 108 q 619 0 615 26 l 531 0 q 524 51 526 24 q 522 106 522 79 l 519 106 q 424 12 479 40 q 290 -17 369 -17 q 207 -5 247 -17 q 135 31 167 7 q 85 91 104 56 q 67 174 67 126 q 108 298 67 253 q 210 365 149 343 q 342 393 272 388 q 471 399 413 399 l 517 399 m 136 800 q 149 853 140 826 q 174 899 158 879 q 210 932 189 919 q 264 944 232 944 q 315 935 289 944 q 365 913 340 925 q 414 891 390 901 q 458 881 438 881 q 505 902 490 881 q 526 950 519 924 l 586 950 q 573 897 582 922 q 549 851 564 871 q 511 818 533 831 q 458 806 489 806 q 408 816 433 806 q 357 838 382 826 q 310 860 333 850 q 264 869 286 869 q 217 848 232 869 q 196 800 203 826 l 136 800 z "},"ä":{"ha":721,"x_min":67,"x_max":619,"o":"m 469 324 q 383 320 435 324 q 283 303 331 317 q 201 263 235 290 q 167 186 167 235 q 180 131 167 154 q 215 94 193 108 q 265 73 238 79 q 319 67 292 67 q 406 83 369 67 q 468 128 443 100 q 505 195 493 157 q 517 276 517 233 l 517 324 l 469 324 m 517 399 l 517 415 q 350 583 517 583 q 151 507 236 583 l 96 572 q 371 667 188 667 q 462 653 418 667 q 538 610 506 639 q 589 539 569 582 q 608 436 608 496 l 608 146 q 612 67 608 108 q 619 0 615 26 l 531 0 q 524 51 526 24 q 522 106 522 79 l 519 106 q 424 12 479 40 q 290 -17 369 -17 q 207 -5 247 -17 q 135 31 167 7 q 85 91 104 56 q 67 174 67 126 q 108 298 67 253 q 210 365 149 343 q 342 393 272 388 q 471 399 413 399 l 517 399 m 424 899 q 443 948 424 926 q 494 969 463 969 q 546 948 526 969 q 565 899 565 926 q 546 849 565 871 q 494 828 526 828 q 443 849 463 828 q 424 899 424 871 m 157 899 q 176 948 157 926 q 228 969 196 969 q 279 948 260 969 q 299 899 299 926 q 279 849 299 871 q 228 828 260 828 q 176 849 196 828 q 157 899 157 871 z "},"å":{"ha":721,"x_min":67,"x_max":619,"o":"m 469 324 q 383 320 435 324 q 283 303 331 317 q 201 263 235 290 q 167 186 167 235 q 180 131 167 154 q 215 94 193 108 q 265 73 238 79 q 319 67 292 67 q 406 83 369 67 q 468 128 443 100 q 505 195 493 157 q 517 276 517 233 l 517 324 l 469 324 m 517 399 l 517 415 q 350 583 517 583 q 151 507 236 583 l 96 572 q 371 667 188 667 q 462 653 418 667 q 538 610 506 639 q 589 539 569 582 q 608 436 608 496 l 608 146 q 612 67 608 108 q 619 0 615 26 l 531 0 q 524 51 526 24 q 522 106 522 79 l 519 106 q 424 12 479 40 q 290 -17 369 -17 q 207 -5 247 -17 q 135 31 167 7 q 85 91 104 56 q 67 174 67 126 q 108 298 67 253 q 210 365 149 343 q 342 393 272 388 q 471 399 413 399 l 517 399 m 444 903 q 420 961 444 938 q 361 985 396 985 q 302 961 326 985 q 278 903 278 938 q 302 844 278 868 q 361 821 326 821 q 420 844 396 821 q 444 903 444 868 m 494 903 q 484 851 494 875 q 455 808 474 826 q 412 781 436 790 q 361 771 388 771 q 310 781 333 771 q 267 808 286 790 q 238 851 249 826 q 228 903 228 875 q 238 955 228 931 q 267 997 249 979 q 310 1024 286 1014 q 361 1035 333 1035 q 412 1024 388 1035 q 455 997 436 1014 q 484 955 474 979 q 494 903 494 931 z "},"æ":{"ha":1183,"x_min":67,"x_max":1117,"o":"m 1025 375 q 1011 459 1025 421 q 971 525 997 497 q 908 568 944 553 q 825 583 871 583 q 748 567 783 583 q 686 524 713 551 q 644 458 660 496 q 629 375 629 419 l 1025 375 m 347 300 q 286 294 318 300 q 228 276 254 289 q 184 241 201 263 q 167 186 167 219 q 180 131 167 154 q 215 94 193 108 q 265 73 238 79 q 319 67 292 67 q 410 83 369 67 q 478 129 450 100 q 522 199 507 158 q 538 288 538 239 l 538 300 l 347 300 m 629 300 l 629 288 q 642 203 629 243 q 680 133 656 163 q 740 85 704 103 q 819 67 775 67 q 892 75 861 67 q 947 98 924 83 q 989 132 971 113 q 1022 172 1007 151 l 1094 115 q 970 15 1042 47 q 822 -17 899 -17 q 682 19 749 -17 q 579 135 615 56 q 462 17 531 51 q 290 -17 393 -17 q 207 -5 247 -17 q 135 31 167 7 q 85 91 104 56 q 67 174 67 126 q 96 278 67 239 q 171 340 125 318 q 273 368 217 361 q 383 375 329 375 l 538 375 l 538 415 q 517 499 536 467 q 471 551 497 532 q 417 576 444 569 q 371 583 389 583 q 174 506 256 583 l 117 572 q 230 642 164 617 q 375 667 296 667 q 508 631 450 667 q 590 542 567 594 q 687 633 622 600 q 822 667 751 667 q 949 642 894 667 q 1042 573 1004 617 q 1098 469 1079 529 q 1117 342 1117 410 l 1117 300 l 629 300 z "},"ç":{"ha":669,"x_min":67,"x_max":649,"o":"m 350 -83 l 353 -85 q 376 -78 364 -81 q 403 -75 388 -75 q 477 -102 444 -75 q 510 -179 510 -129 q 495 -235 510 -211 q 458 -273 481 -258 q 406 -294 435 -287 q 350 -301 378 -301 q 215 -268 278 -301 l 238 -218 q 340 -243 285 -243 q 399 -229 371 -243 q 426 -181 426 -215 q 424 -165 426 -175 q 414 -147 421 -156 q 393 -131 407 -137 q 358 -125 379 -125 q 324 -129 339 -125 q 294 -140 308 -133 l 269 -117 l 346 -12 q 268 7 304 -7 q 159 79 204 33 q 90 188 114 125 q 67 325 67 251 q 90 462 67 399 q 159 571 114 525 q 268 642 204 617 q 411 667 332 668 q 539 638 478 665 q 649 554 600 611 l 574 497 q 508 558 550 533 q 411 583 465 583 q 309 565 354 585 q 232 511 264 546 q 183 428 200 476 q 167 325 167 381 q 183 222 167 269 q 232 139 200 174 q 309 85 264 104 q 411 67 354 65 q 508 92 465 67 q 574 153 550 117 l 649 96 q 539 12 600 39 q 411 -17 478 -15 l 400 -17 l 350 -83 z "},"è":{"ha":772,"x_min":67,"x_max":706,"o":"m 606 375 q 550 526 606 468 q 394 583 494 583 q 308 566 350 583 q 235 519 267 549 q 185 453 204 490 q 167 375 167 415 l 606 375 m 164 300 q 188 208 168 251 q 239 134 207 165 q 313 85 271 103 q 403 67 354 67 q 530 101 476 67 q 611 179 583 135 l 682 121 q 553 15 624 47 q 403 -17 483 -17 q 269 9 331 -17 q 163 81 207 35 q 92 189 118 126 q 67 325 67 251 q 92 461 67 399 q 161 569 117 524 q 265 641 206 615 q 394 667 325 667 q 526 640 468 667 q 624 570 585 614 q 685 467 664 526 q 706 342 706 408 l 706 300 l 164 300 m 206 983 l 332 983 l 471 783 l 389 783 l 206 983 z "},"é":{"ha":772,"x_min":67,"x_max":706,"o":"m 606 375 q 550 526 606 468 q 394 583 494 583 q 308 566 350 583 q 235 519 267 549 q 185 453 204 490 q 167 375 167 415 l 606 375 m 164 300 q 188 208 168 251 q 239 134 207 165 q 313 85 271 103 q 403 67 354 67 q 530 101 476 67 q 611 179 583 135 l 682 121 q 553 15 624 47 q 403 -17 483 -17 q 269 9 331 -17 q 163 81 207 35 q 92 189 118 126 q 67 325 67 251 q 92 461 67 399 q 161 569 117 524 q 265 641 206 615 q 394 667 325 667 q 526 640 468 667 q 624 570 585 614 q 685 467 664 526 q 706 342 706 408 l 706 300 l 164 300 m 383 783 l 301 783 l 440 983 l 567 983 l 383 783 z "},"ê":{"ha":772,"x_min":67,"x_max":706,"o":"m 606 375 q 550 526 606 468 q 394 583 494 583 q 308 566 350 583 q 235 519 267 549 q 185 453 204 490 q 167 375 167 415 l 606 375 m 164 300 q 188 208 168 251 q 239 134 207 165 q 313 85 271 103 q 403 67 354 67 q 530 101 476 67 q 611 179 583 135 l 682 121 q 553 15 624 47 q 403 -17 483 -17 q 269 9 331 -17 q 163 81 207 35 q 92 189 118 126 q 67 325 67 251 q 92 461 67 399 q 161 569 117 524 q 265 641 206 615 q 394 667 325 667 q 526 640 468 667 q 624 570 585 614 q 685 467 664 526 q 706 342 706 408 l 706 300 l 164 300 m 593 783 l 501 783 l 386 933 l 271 783 l 179 783 l 331 983 l 442 983 l 593 783 z "},"ë":{"ha":772,"x_min":67,"x_max":706,"o":"m 606 375 q 550 526 606 468 q 394 583 494 583 q 308 566 350 583 q 235 519 267 549 q 185 453 204 490 q 167 375 167 415 l 606 375 m 164 300 q 188 208 168 251 q 239 134 207 165 q 313 85 271 103 q 403 67 354 67 q 530 101 476 67 q 611 179 583 135 l 682 121 q 553 15 624 47 q 403 -17 483 -17 q 269 9 331 -17 q 163 81 207 35 q 92 189 118 126 q 67 325 67 251 q 92 461 67 399 q 161 569 117 524 q 265 641 206 615 q 394 667 325 667 q 526 640 468 667 q 624 570 585 614 q 685 467 664 526 q 706 342 706 408 l 706 300 l 164 300 m 449 899 q 468 948 449 926 q 519 969 488 969 q 571 948 551 969 q 590 899 590 926 q 571 849 590 871 q 519 828 551 828 q 468 849 488 828 q 449 899 449 871 m 182 899 q 201 948 182 926 q 253 969 221 969 q 304 948 285 969 q 324 899 324 926 q 304 849 324 871 q 253 828 285 828 q 201 849 221 828 q 182 899 182 871 z "},"ì":{"ha":333,"x_min":-14,"x_max":251,"o":"m 213 0 l 121 0 l 121 650 l 213 650 l 213 0 m -14 983 l 113 983 l 251 783 l 169 783 l -14 983 z "},"í":{"ha":333,"x_min":82,"x_max":347,"o":"m 213 0 l 121 0 l 121 650 l 213 650 l 213 0 m 164 783 l 82 783 l 221 983 l 347 983 l 164 783 z "},"î":{"ha":333,"x_min":-40,"x_max":374,"o":"m 213 0 l 121 0 l 121 650 l 213 650 l 213 0 m 374 783 l 282 783 l 167 933 l 51 783 l -40 783 l 111 983 l 222 983 l 374 783 z "},"ï":{"ha":333,"x_min":-37,"x_max":371,"o":"m 213 0 l 121 0 l 121 650 l 213 650 l 213 0 m 229 899 q 249 948 229 926 q 300 969 268 969 q 351 948 332 969 q 371 899 371 926 q 351 849 371 871 q 300 828 332 828 q 249 849 268 828 q 229 899 229 871 m -37 899 q -18 948 -37 926 q 33 969 1 969 q 85 948 65 969 q 104 899 104 926 q 85 849 104 871 q 33 828 65 828 q -18 849 1 828 q -37 899 -37 871 z "},"ð":{"ha":824,"x_min":67,"x_max":758,"o":"m 489 917 q 603 788 553 853 q 688 653 653 722 q 740 510 722 585 q 757 353 758 435 q 740 225 757 290 q 684 106 724 160 q 578 17 644 51 q 411 -17 511 -17 q 273 9 336 -17 q 164 81 210 35 q 92 189 118 126 q 67 325 67 251 q 92 461 67 399 q 164 569 118 524 q 273 641 210 615 q 411 667 336 667 q 521 647 472 667 q 619 586 569 628 l 622 589 q 569 680 594 640 q 517 753 543 719 q 462 815 490 786 q 401 872 433 844 l 249 793 l 199 843 l 349 921 q 280 982 313 954 q 217 1031 247 1010 l 300 1082 q 369 1024 336 1053 q 435 967 403 996 l 576 1040 l 632 992 l 489 917 m 167 325 q 184 224 167 271 q 233 142 201 176 q 309 87 264 107 q 411 67 354 67 q 513 87 468 67 q 590 142 558 107 q 640 224 622 176 q 657 325 657 271 q 640 426 657 379 q 590 508 622 474 q 513 563 558 543 q 411 583 468 583 q 309 563 354 583 q 233 508 264 543 q 184 426 201 474 q 167 325 167 379 z "},"ñ":{"ha":772,"x_min":93,"x_max":657,"o":"m 188 650 q 191 598 190 624 q 192 546 192 572 l 194 546 q 233 594 210 572 q 286 633 257 617 q 348 658 315 649 q 413 667 381 667 q 597 601 538 667 q 657 413 657 535 l 657 0 l 565 0 l 565 360 q 528 526 565 468 q 389 583 490 583 q 350 578 382 583 q 283 547 318 572 q 219 472 247 522 q 192 333 192 422 l 192 0 l 100 0 l 100 507 q 98 574 100 533 q 93 650 96 614 l 188 650 m 161 800 q 174 853 165 826 q 199 899 183 879 q 235 932 214 919 q 289 944 257 944 q 340 935 314 944 q 390 913 365 925 q 439 891 415 901 q 483 881 463 881 q 530 902 515 881 q 551 950 544 924 l 611 950 q 598 897 607 922 q 574 851 589 871 q 536 818 558 831 q 483 806 514 806 q 433 816 458 806 q 382 838 407 826 q 335 860 358 850 q 289 869 311 869 q 242 848 257 869 q 221 800 228 826 l 161 800 z "},"ò":{"ha":824,"x_min":67,"x_max":757,"o":"m 657 325 q 640 426 657 379 q 590 508 622 474 q 513 563 558 543 q 411 583 468 583 q 309 563 354 583 q 233 508 264 543 q 184 426 201 474 q 167 325 167 379 q 184 224 167 271 q 233 142 201 176 q 309 87 264 107 q 411 67 354 67 q 513 87 468 67 q 590 142 558 107 q 640 224 622 176 q 657 325 657 271 m 757 325 q 731 189 757 251 q 660 81 706 126 q 551 9 614 35 q 411 -17 488 -17 q 273 9 336 -17 q 164 81 210 35 q 92 189 118 126 q 67 325 67 251 q 92 461 67 399 q 164 569 118 524 q 273 641 210 615 q 411 667 336 667 q 551 641 488 667 q 660 569 614 615 q 731 461 706 524 q 757 325 757 399 m 232 983 l 358 983 l 497 783 l 415 783 l 232 983 z "},"ó":{"ha":824,"x_min":67,"x_max":757,"o":"m 657 325 q 640 426 657 379 q 590 508 622 474 q 513 563 558 543 q 411 583 468 583 q 309 563 354 583 q 233 508 264 543 q 184 426 201 474 q 167 325 167 379 q 184 224 167 271 q 233 142 201 176 q 309 87 264 107 q 411 67 354 67 q 513 87 468 67 q 590 142 558 107 q 640 224 622 176 q 657 325 657 271 m 757 325 q 731 189 757 251 q 660 81 706 126 q 551 9 614 35 q 411 -17 488 -17 q 273 9 336 -17 q 164 81 210 35 q 92 189 118 126 q 67 325 67 251 q 92 461 67 399 q 164 569 118 524 q 273 641 210 615 q 411 667 336 667 q 551 641 488 667 q 660 569 614 615 q 731 461 706 524 q 757 325 757 399 m 410 783 l 328 783 l 467 983 l 593 983 l 410 783 z "},"ô":{"ha":824,"x_min":67,"x_max":757,"o":"m 657 325 q 640 426 657 379 q 590 508 622 474 q 513 563 558 543 q 411 583 468 583 q 309 563 354 583 q 233 508 264 543 q 184 426 201 474 q 167 325 167 379 q 184 224 167 271 q 233 142 201 176 q 309 87 264 107 q 411 67 354 67 q 513 87 468 67 q 590 142 558 107 q 640 224 622 176 q 657 325 657 271 m 757 325 q 731 189 757 251 q 660 81 706 126 q 551 9 614 35 q 411 -17 488 -17 q 273 9 336 -17 q 164 81 210 35 q 92 189 118 126 q 67 325 67 251 q 92 461 67 399 q 164 569 118 524 q 273 641 210 615 q 411 667 336 667 q 551 641 488 667 q 660 569 614 615 q 731 461 706 524 q 757 325 757 399 m 619 783 l 528 783 l 413 933 l 297 783 l 206 783 l 357 983 l 468 983 l 619 783 z "},"õ":{"ha":824,"x_min":67,"x_max":757,"o":"m 657 325 q 640 426 657 379 q 590 508 622 474 q 513 563 558 543 q 411 583 468 583 q 309 563 354 583 q 233 508 264 543 q 184 426 201 474 q 167 325 167 379 q 184 224 167 271 q 233 142 201 176 q 309 87 264 107 q 411 67 354 67 q 513 87 468 67 q 590 142 558 107 q 640 224 622 176 q 657 325 657 271 m 757 325 q 731 189 757 251 q 660 81 706 126 q 551 9 614 35 q 411 -17 488 -17 q 273 9 336 -17 q 164 81 210 35 q 92 189 118 126 q 67 325 67 251 q 92 461 67 399 q 164 569 118 524 q 273 641 210 615 q 411 667 336 667 q 551 641 488 667 q 660 569 614 615 q 731 461 706 524 q 757 325 757 399 m 188 800 q 201 853 192 826 q 225 899 210 879 q 262 932 240 919 q 315 944 283 944 q 366 935 340 944 q 417 913 392 925 q 465 891 442 901 q 510 881 489 881 q 556 902 542 881 q 578 950 571 924 l 638 950 q 624 897 633 922 q 600 851 615 871 q 563 818 585 831 q 510 806 540 806 q 459 816 485 806 q 408 838 433 826 q 361 860 385 850 q 315 869 338 869 q 269 848 283 869 q 247 800 254 826 l 188 800 z "},"ö":{"ha":824,"x_min":67,"x_max":757,"o":"m 657 325 q 640 426 657 379 q 590 508 622 474 q 513 563 558 543 q 411 583 468 583 q 309 563 354 583 q 233 508 264 543 q 184 426 201 474 q 167 325 167 379 q 184 224 167 271 q 233 142 201 176 q 309 87 264 107 q 411 67 354 67 q 513 87 468 67 q 590 142 558 107 q 640 224 622 176 q 657 325 657 271 m 757 325 q 731 189 757 251 q 660 81 706 126 q 551 9 614 35 q 411 -17 488 -17 q 273 9 336 -17 q 164 81 210 35 q 92 189 118 126 q 67 325 67 251 q 92 461 67 399 q 164 569 118 524 q 273 641 210 615 q 411 667 336 667 q 551 641 488 667 q 660 569 614 615 q 731 461 706 524 q 757 325 757 399 m 475 899 q 494 948 475 926 q 546 969 514 969 q 597 948 578 969 q 617 899 617 926 q 597 849 617 871 q 546 828 578 828 q 494 849 514 828 q 475 899 475 871 m 208 899 q 228 948 208 926 q 279 969 247 969 q 331 948 311 969 q 350 899 350 926 q 331 849 350 871 q 279 828 311 828 q 228 849 247 828 q 208 899 208 871 z "},"÷":{"ha":925,"x_min":108,"x_max":817,"o":"m 538 196 q 517 144 538 167 q 463 121 496 121 q 408 144 429 121 q 388 196 388 167 q 408 248 388 225 q 463 271 429 271 q 517 248 496 271 q 538 196 538 225 m 538 646 q 517 594 538 617 q 463 571 496 571 q 408 594 429 571 q 388 646 388 617 q 408 698 388 675 q 463 721 429 721 q 517 698 496 721 q 538 646 538 675 m 817 379 l 108 379 l 108 463 l 817 463 l 817 379 z "},"ø":{"ha":824,"x_min":56,"x_max":768,"o":"m 676 551 q 735 451 714 508 q 757 325 757 393 q 731 189 757 251 q 660 81 706 126 q 551 9 614 35 q 411 -17 488 -17 q 290 3 344 -17 q 193 56 235 22 l 100 -39 l 56 4 l 147 99 q 88 201 108 143 q 67 325 67 258 q 92 461 67 399 q 164 569 118 524 q 273 641 210 615 q 411 667 336 667 q 532 648 476 667 q 632 594 588 629 l 724 689 l 768 646 l 676 551 m 568 529 q 411 583 506 583 q 309 563 354 583 q 233 508 264 543 q 184 426 201 474 q 167 325 167 379 q 214 167 167 231 l 568 529 m 256 119 q 325 81 286 94 q 411 67 364 67 q 513 87 468 67 q 590 142 558 107 q 640 224 622 176 q 657 325 657 271 q 610 483 657 415 l 256 119 z "},"ù":{"ha":772,"x_min":100,"x_max":664,"o":"m 569 0 q 566 52 567 26 q 565 104 565 78 l 563 104 q 524 56 547 78 q 471 17 500 33 q 409 -8 442 1 q 344 -17 376 -17 q 160 49 219 -17 q 100 238 100 115 l 100 650 l 192 650 l 192 290 q 200 194 192 236 q 228 124 208 153 q 283 81 249 96 q 368 67 317 67 q 407 72 375 67 q 474 103 439 78 q 538 178 510 128 q 565 317 565 228 l 565 650 l 657 650 l 657 143 q 659 76 657 117 q 664 0 661 36 l 569 0 m 206 983 l 332 983 l 471 783 l 389 783 l 206 983 z "},"ú":{"ha":772,"x_min":100,"x_max":664,"o":"m 569 0 q 566 52 567 26 q 565 104 565 78 l 563 104 q 524 56 547 78 q 471 17 500 33 q 409 -8 442 1 q 344 -17 376 -17 q 160 49 219 -17 q 100 238 100 115 l 100 650 l 192 650 l 192 290 q 200 194 192 236 q 228 124 208 153 q 283 81 249 96 q 368 67 317 67 q 407 72 375 67 q 474 103 439 78 q 538 178 510 128 q 565 317 565 228 l 565 650 l 657 650 l 657 143 q 659 76 657 117 q 664 0 661 36 l 569 0 m 383 783 l 301 783 l 440 983 l 567 983 l 383 783 z "},"û":{"ha":772,"x_min":100,"x_max":664,"o":"m 569 0 q 566 52 567 26 q 565 104 565 78 l 563 104 q 524 56 547 78 q 471 17 500 33 q 409 -8 442 1 q 344 -17 376 -17 q 160 49 219 -17 q 100 238 100 115 l 100 650 l 192 650 l 192 290 q 200 194 192 236 q 228 124 208 153 q 283 81 249 96 q 368 67 317 67 q 407 72 375 67 q 474 103 439 78 q 538 178 510 128 q 565 317 565 228 l 565 650 l 657 650 l 657 143 q 659 76 657 117 q 664 0 661 36 l 569 0 m 593 783 l 501 783 l 386 933 l 271 783 l 179 783 l 331 983 l 442 983 l 593 783 z "},"ü":{"ha":772,"x_min":100,"x_max":664,"o":"m 569 0 q 566 52 567 26 q 565 104 565 78 l 563 104 q 524 56 547 78 q 471 17 500 33 q 409 -8 442 1 q 344 -17 376 -17 q 160 49 219 -17 q 100 238 100 115 l 100 650 l 192 650 l 192 290 q 200 194 192 236 q 228 124 208 153 q 283 81 249 96 q 368 67 317 67 q 407 72 375 67 q 474 103 439 78 q 538 178 510 128 q 565 317 565 228 l 565 650 l 657 650 l 657 143 q 659 76 657 117 q 664 0 661 36 l 569 0 m 449 899 q 468 948 449 926 q 519 969 488 969 q 571 948 551 969 q 590 899 590 926 q 571 849 590 871 q 519 828 551 828 q 468 849 488 828 q 449 899 449 871 m 182 899 q 201 948 182 926 q 253 969 221 969 q 304 948 285 969 q 324 899 324 926 q 304 849 324 871 q 253 828 285 828 q 201 849 221 828 q 182 899 182 871 z "},"ý":{"ha":669,"x_min":22,"x_max":651,"o":"m 342 113 l 540 650 l 651 650 l 326 -169 q 252 -289 297 -244 q 122 -333 207 -333 q 80 -332 101 -333 q 38 -324 58 -331 l 47 -235 q 117 -250 76 -250 q 193 -219 165 -250 q 242 -133 221 -189 l 289 -8 l 22 650 l 138 650 l 342 113 m 332 783 l 250 783 l 389 983 l 515 983 l 332 783 z "},"þ":{"ha":849,"x_min":100,"x_max":793,"o":"m 693 325 q 676 426 693 379 q 626 508 658 474 q 549 563 594 543 q 447 583 504 583 q 343 563 390 583 q 261 508 296 543 q 207 426 226 474 q 188 325 188 379 q 206 224 188 271 q 258 142 224 176 q 340 87 292 107 q 447 67 388 67 q 549 87 504 67 q 626 142 594 107 q 676 224 658 176 q 693 325 693 271 m 100 1050 l 192 1050 l 192 529 l 194 529 q 258 598 225 571 q 324 640 292 625 q 388 661 357 656 q 447 667 419 667 q 587 641 524 667 q 696 569 650 615 q 767 461 742 524 q 793 325 793 399 q 767 189 793 251 q 696 81 742 126 q 587 9 650 35 q 447 -17 524 -17 q 380 -10 415 -17 q 311 13 344 -3 q 247 51 278 28 q 194 108 217 75 l 192 108 l 192 -317 l 100 -317 l 100 1050 z "},"ÿ":{"ha":669,"x_min":22,"x_max":651,"o":"m 342 113 l 540 650 l 651 650 l 326 -169 q 252 -289 297 -244 q 122 -333 207 -333 q 80 -332 101 -333 q 38 -324 58 -331 l 47 -235 q 117 -250 76 -250 q 193 -219 165 -250 q 242 -133 221 -189 l 289 -8 l 22 650 l 138 650 l 342 113 m 397 899 q 417 948 397 926 q 468 969 436 969 q 519 948 500 969 q 539 899 539 926 q 519 849 539 871 q 468 828 500 828 q 417 849 436 828 q 397 899 397 871 m 131 899 q 150 948 131 926 q 201 969 169 969 q 253 948 233 969 q 272 899 272 926 q 253 849 272 871 q 201 828 233 828 q 150 849 169 828 q 131 899 131 871 z "},"Ā":{"ha":953,"x_min":0,"x_max":953,"o":"m 263 350 l 689 350 l 476 867 l 263 350 m 117 0 l 0 0 l 428 983 l 525 983 l 953 0 l 836 0 l 728 258 l 225 258 l 117 0 m 664 1099 l 289 1099 l 289 1174 l 664 1174 l 664 1099 z "},"ā":{"ha":721,"x_min":67,"x_max":619,"o":"m 469 324 q 383 320 435 324 q 283 303 331 317 q 201 263 235 290 q 167 186 167 235 q 180 131 167 154 q 215 94 193 108 q 265 73 238 79 q 319 67 292 67 q 406 83 369 67 q 468 128 443 100 q 505 195 493 157 q 517 276 517 233 l 517 324 l 469 324 m 517 399 l 517 415 q 350 583 517 583 q 151 507 236 583 l 96 572 q 371 667 188 667 q 462 653 418 667 q 538 610 506 639 q 589 539 569 582 q 608 436 608 496 l 608 146 q 612 67 608 108 q 619 0 615 26 l 531 0 q 524 51 526 24 q 522 106 522 79 l 519 106 q 424 12 479 40 q 290 -17 369 -17 q 207 -5 247 -17 q 135 31 167 7 q 85 91 104 56 q 67 174 67 126 q 108 298 67 253 q 210 365 149 343 q 342 393 272 388 q 471 399 413 399 l 517 399 m 529 833 l 154 833 l 154 908 l 529 908 l 529 833 z "},"Ă":{"ha":953,"x_min":0,"x_max":953,"o":"m 263 350 l 689 350 l 476 867 l 263 350 m 117 0 l 0 0 l 428 983 l 525 983 l 953 0 l 836 0 l 728 258 l 225 258 l 117 0 m 681 1247 q 619 1112 675 1160 q 476 1064 563 1064 q 334 1112 390 1064 q 272 1247 278 1160 l 333 1247 q 383 1166 343 1193 q 476 1139 424 1139 q 569 1166 529 1139 q 619 1247 610 1193 l 681 1247 z "},"ă":{"ha":721,"x_min":67,"x_max":619,"o":"m 469 324 q 383 320 435 324 q 283 303 331 317 q 201 263 235 290 q 167 186 167 235 q 180 131 167 154 q 215 94 193 108 q 265 73 238 79 q 319 67 292 67 q 406 83 369 67 q 468 128 443 100 q 505 195 493 157 q 517 276 517 233 l 517 324 l 469 324 m 517 399 l 517 415 q 350 583 517 583 q 151 507 236 583 l 96 572 q 371 667 188 667 q 462 653 418 667 q 538 610 506 639 q 589 539 569 582 q 608 436 608 496 l 608 146 q 612 67 608 108 q 619 0 615 26 l 531 0 q 524 51 526 24 q 522 106 522 79 l 519 106 q 424 12 479 40 q 290 -17 369 -17 q 207 -5 247 -17 q 135 31 167 7 q 85 91 104 56 q 67 174 67 126 q 108 298 67 253 q 210 365 149 343 q 342 393 272 388 q 471 399 413 399 l 517 399 m 546 983 q 484 848 540 896 q 342 800 428 800 q 199 848 256 800 q 138 983 143 896 l 199 983 q 249 902 208 929 q 342 875 289 875 q 435 902 394 875 q 485 983 475 929 l 546 983 z "},"Ą":{"ha":953,"x_min":0,"x_max":972,"o":"m 972 -251 q 915 -288 949 -275 q 847 -301 882 -301 q 800 -293 822 -301 q 760 -269 778 -285 q 733 -231 743 -253 q 722 -183 722 -210 q 733 -127 722 -154 q 763 -76 744 -100 q 803 -29 781 -51 q 836 0 819 -12 l 728 258 l 225 258 l 117 0 l 0 0 l 428 983 l 525 983 l 953 0 l 904 0 q 833 -81 858 -46 q 806 -160 806 -119 q 826 -208 806 -189 q 875 -226 847 -226 q 913 -219 894 -226 q 946 -196 932 -211 l 972 -251 m 263 350 l 689 350 l 476 867 l 263 350 z "},"ą":{"ha":721,"x_min":67,"x_max":669,"o":"m 669 -251 q 613 -288 646 -275 q 544 -301 579 -301 q 497 -293 519 -301 q 458 -269 475 -285 q 430 -231 440 -253 q 419 -183 419 -210 q 431 -127 419 -154 q 460 -76 442 -100 q 500 -29 478 -51 q 532 0 517 -14 l 531 0 q 524 51 526 24 q 522 106 522 79 l 519 106 q 424 12 479 40 q 290 -17 369 -17 q 207 -5 247 -17 q 135 31 167 7 q 85 91 104 56 q 67 174 67 126 q 108 298 67 253 q 210 365 149 343 q 342 393 272 388 q 471 399 413 399 l 517 399 l 517 415 q 350 583 517 583 q 151 507 236 583 l 96 572 q 371 667 188 667 q 462 653 418 667 q 538 610 506 639 q 589 539 569 582 q 608 436 608 496 l 608 146 q 612 67 608 108 q 619 0 615 26 l 601 0 q 531 -81 556 -46 q 503 -160 503 -119 q 524 -208 503 -189 q 572 -226 544 -226 q 610 -219 592 -226 q 643 -196 629 -211 l 669 -251 m 469 324 q 383 320 435 324 q 283 303 331 317 q 201 263 235 290 q 167 186 167 235 q 180 131 167 154 q 215 94 193 108 q 265 73 238 79 q 319 67 292 67 q 406 83 369 67 q 468 128 443 100 q 505 195 493 157 q 517 276 517 233 l 517 324 l 469 324 z "},"Ć":{"ha":978,"x_min":67,"x_max":943,"o":"m 943 156 q 881 85 918 118 q 797 27 844 51 q 695 -11 750 3 q 579 -25 640 -25 q 376 14 469 -25 q 213 122 282 53 q 106 285 144 190 q 67 492 67 379 q 106 699 67 604 q 213 862 144 793 q 376 969 282 931 q 579 1008 469 1008 q 763 972 671 1008 q 919 853 854 936 l 832 788 q 790 835 817 811 q 730 876 764 858 q 657 906 696 894 q 579 917 618 917 q 410 882 485 917 q 283 789 335 847 q 203 653 231 731 q 175 492 175 576 q 203 330 175 407 q 283 194 231 253 q 410 101 335 136 q 579 67 485 67 q 656 74 618 67 q 731 97 694 81 q 801 142 768 114 q 861 214 833 171 l 943 156 m 599 1056 l 517 1056 l 656 1256 l 782 1256 l 599 1056 z "},"ć":{"ha":669,"x_min":67,"x_max":649,"o":"m 574 497 q 508 558 550 533 q 411 583 465 583 q 309 565 354 585 q 232 511 264 546 q 183 428 200 476 q 167 325 167 381 q 183 222 167 269 q 232 139 200 174 q 309 85 264 104 q 411 67 354 65 q 508 92 465 67 q 574 153 550 117 l 649 96 q 539 12 600 39 q 411 -17 478 -15 q 268 8 332 -18 q 159 79 204 33 q 90 188 114 125 q 67 325 67 251 q 90 462 67 399 q 159 571 114 525 q 268 642 204 617 q 411 667 332 668 q 539 638 478 665 q 649 554 600 611 l 574 497 m 413 783 l 331 783 l 469 983 l 596 983 l 413 783 z "},"Ĉ":{"ha":978,"x_min":67,"x_max":943,"o":"m 943 156 q 881 85 918 118 q 797 27 844 51 q 695 -11 750 3 q 579 -25 640 -25 q 376 14 469 -25 q 213 122 282 53 q 106 285 144 190 q 67 492 67 379 q 106 699 67 604 q 213 862 144 793 q 376 969 282 931 q 579 1008 469 1008 q 763 972 671 1008 q 919 853 854 936 l 832 788 q 790 835 817 811 q 730 876 764 858 q 657 906 696 894 q 579 917 618 917 q 410 882 485 917 q 283 789 335 847 q 203 653 231 731 q 175 492 175 576 q 203 330 175 407 q 283 194 231 253 q 410 101 335 136 q 579 67 485 67 q 656 74 618 67 q 731 97 694 81 q 801 142 768 114 q 861 214 833 171 l 943 156 m 778 1056 l 686 1056 l 571 1206 l 456 1056 l 364 1056 l 515 1256 l 626 1256 l 778 1056 z "},"ĉ":{"ha":669,"x_min":67,"x_max":649,"o":"m 574 497 q 508 558 550 533 q 411 583 465 583 q 309 565 354 585 q 232 511 264 546 q 183 428 200 476 q 167 325 167 381 q 183 222 167 269 q 232 139 200 174 q 309 85 264 104 q 411 67 354 65 q 508 92 465 67 q 574 153 550 117 l 649 96 q 539 12 600 39 q 411 -17 478 -15 q 268 8 332 -18 q 159 79 204 33 q 90 188 114 125 q 67 325 67 251 q 90 462 67 399 q 159 571 114 525 q 268 642 204 617 q 411 667 332 668 q 539 638 478 665 q 649 554 600 611 l 574 497 m 611 783 l 519 783 l 404 933 l 289 783 l 197 783 l 349 983 l 460 983 l 611 783 z "},"Ċ":{"ha":978,"x_min":67,"x_max":943,"o":"m 943 156 q 881 85 918 118 q 797 27 844 51 q 695 -11 750 3 q 579 -25 640 -25 q 376 14 469 -25 q 213 122 282 53 q 106 285 144 190 q 67 492 67 379 q 106 699 67 604 q 213 862 144 793 q 376 969 282 931 q 579 1008 469 1008 q 763 972 671 1008 q 919 853 854 936 l 832 788 q 790 835 817 811 q 730 876 764 858 q 657 906 696 894 q 579 917 618 917 q 410 882 485 917 q 283 789 335 847 q 203 653 231 731 q 175 492 175 576 q 203 330 175 407 q 283 194 231 253 q 410 101 335 136 q 579 67 485 67 q 656 74 618 67 q 731 97 694 81 q 801 142 768 114 q 861 214 833 171 l 943 156 m 497 1135 q 517 1184 497 1163 q 568 1206 536 1206 q 619 1184 600 1206 q 639 1135 639 1163 q 619 1085 639 1107 q 568 1064 600 1064 q 517 1085 536 1064 q 497 1135 497 1107 z "},"ċ":{"ha":669,"x_min":67,"x_max":649,"o":"m 574 497 q 508 558 550 533 q 411 583 465 583 q 309 565 354 585 q 232 511 264 546 q 183 428 200 476 q 167 325 167 381 q 183 222 167 269 q 232 139 200 174 q 309 85 264 104 q 411 67 354 65 q 508 92 465 67 q 574 153 550 117 l 649 96 q 539 12 600 39 q 411 -17 478 -15 q 268 8 332 -18 q 159 79 204 33 q 90 188 114 125 q 67 325 67 251 q 90 462 67 399 q 159 571 114 525 q 268 642 204 617 q 411 667 332 668 q 539 638 478 665 q 649 554 600 611 l 574 497 m 322 913 q 342 962 322 940 q 393 983 361 983 q 444 962 425 983 q 464 913 464 940 q 444 863 464 885 q 393 842 425 842 q 342 863 361 842 q 322 913 322 885 z "},"Č":{"ha":978,"x_min":67,"x_max":943,"o":"m 943 156 q 881 85 918 118 q 797 27 844 51 q 695 -11 750 3 q 579 -25 640 -25 q 376 14 469 -25 q 213 122 282 53 q 106 285 144 190 q 67 492 67 379 q 106 699 67 604 q 213 862 144 793 q 376 969 282 931 q 579 1008 469 1008 q 763 972 671 1008 q 919 853 854 936 l 832 788 q 790 835 817 811 q 730 876 764 858 q 657 906 696 894 q 579 917 618 917 q 410 882 485 917 q 283 789 335 847 q 203 653 231 731 q 175 492 175 576 q 203 330 175 407 q 283 194 231 253 q 410 101 335 136 q 579 67 485 67 q 656 74 618 67 q 731 97 694 81 q 801 142 768 114 q 861 214 833 171 l 943 156 m 613 1056 l 501 1056 l 350 1256 l 442 1256 l 557 1106 l 672 1256 l 764 1256 l 613 1056 z "},"č":{"ha":669,"x_min":67,"x_max":649,"o":"m 574 497 q 508 558 550 533 q 411 583 465 583 q 309 565 354 585 q 232 511 264 546 q 183 428 200 476 q 167 325 167 381 q 183 222 167 269 q 232 139 200 174 q 309 85 264 104 q 411 67 354 65 q 508 92 465 67 q 574 153 550 117 l 649 96 q 539 12 600 39 q 411 -17 478 -15 q 268 8 332 -18 q 159 79 204 33 q 90 188 114 125 q 67 325 67 251 q 90 462 67 399 q 159 571 114 525 q 268 642 204 617 q 411 667 332 668 q 539 638 478 665 q 649 554 600 611 l 574 497 m 454 783 l 343 783 l 192 983 l 283 983 l 399 833 l 514 983 l 606 983 l 454 783 z "},"Ď":{"ha":1029,"x_min":119,"x_max":963,"o":"m 219 92 l 414 92 q 609 126 526 92 q 747 216 692 160 q 828 344 801 272 q 854 492 854 415 q 828 640 854 568 q 747 767 801 711 q 609 858 692 824 q 414 892 526 892 l 219 892 l 219 92 m 119 983 l 446 983 q 630 953 538 983 q 797 860 722 922 q 917 706 871 799 q 963 492 963 614 q 917 276 963 368 q 797 123 871 185 q 630 31 722 61 q 446 0 538 0 l 119 0 l 119 983 m 533 1056 l 422 1056 l 271 1256 l 363 1256 l 478 1106 l 593 1256 l 685 1256 l 533 1056 z "},"ď":{"ha":849,"x_min":56,"x_max":1018,"o":"m 156 325 q 173 224 156 271 q 222 142 190 176 q 299 87 254 107 q 401 67 344 67 q 505 87 457 67 q 588 142 553 107 q 642 224 622 176 q 661 325 661 271 q 642 426 661 379 q 588 508 622 474 q 505 563 553 543 q 401 583 457 583 q 299 563 344 583 q 222 508 254 543 q 173 426 190 474 q 156 325 156 379 m 749 0 l 657 0 l 657 108 l 654 108 q 601 51 632 75 q 538 13 571 28 q 469 -10 504 -3 q 401 -17 433 -17 q 262 9 325 -17 q 153 81 199 35 q 81 189 107 126 q 56 325 56 251 q 81 461 56 399 q 153 569 107 524 q 262 641 199 615 q 401 667 325 667 q 469 660 433 667 q 538 638 504 653 q 601 599 571 622 q 654 542 632 575 l 657 542 l 657 1050 l 749 1050 l 749 0 m 913 726 l 833 726 l 919 983 l 1018 983 l 913 726 z "},"Đ":{"ha":1029,"x_min":18,"x_max":963,"o":"m 219 92 l 414 92 q 609 126 526 92 q 747 216 692 160 q 828 344 801 272 q 854 492 854 415 q 828 640 854 568 q 747 767 801 711 q 609 858 692 824 q 414 892 526 892 l 219 892 l 219 557 l 578 557 l 578 482 l 219 482 l 219 92 m 119 482 l 18 482 l 18 557 l 119 557 l 119 983 l 446 983 q 630 953 538 983 q 797 860 722 922 q 917 706 871 799 q 963 492 963 614 q 917 276 963 368 q 797 123 871 185 q 630 31 722 61 q 446 0 538 0 l 119 0 l 119 482 z "},"đ":{"ha":849,"x_min":56,"x_max":824,"o":"m 824 778 l 749 778 l 749 0 l 657 0 l 657 108 l 654 108 q 601 51 632 75 q 538 13 571 28 q 469 -10 504 -3 q 401 -17 433 -17 q 262 9 325 -17 q 153 81 199 35 q 81 189 107 126 q 56 325 56 251 q 81 461 56 399 q 153 569 107 524 q 262 641 199 615 q 401 667 325 667 q 469 660 433 667 q 538 638 504 653 q 601 599 571 622 q 654 542 632 575 l 657 542 l 657 778 l 381 778 l 381 850 l 657 850 l 657 1050 l 749 1050 l 749 850 l 824 850 l 824 778 m 156 325 q 173 224 156 271 q 222 142 190 176 q 299 87 254 107 q 401 67 344 67 q 505 87 457 67 q 588 142 553 107 q 642 224 622 176 q 661 325 661 271 q 642 426 661 379 q 588 508 622 474 q 505 563 553 543 q 401 583 457 583 q 299 563 344 583 q 222 508 254 543 q 173 426 190 474 q 156 325 156 379 z "},"Ē":{"ha":824,"x_min":133,"x_max":760,"o":"m 233 92 l 760 92 l 760 0 l 133 0 l 133 983 l 743 983 l 743 892 l 233 892 l 233 557 l 710 557 l 710 465 l 233 465 l 233 92 m 632 1099 l 257 1099 l 257 1174 l 632 1174 l 632 1099 z "},"ē":{"ha":772,"x_min":67,"x_max":706,"o":"m 606 375 q 550 526 606 468 q 394 583 494 583 q 308 566 350 583 q 235 519 267 549 q 185 453 204 490 q 167 375 167 415 l 606 375 m 164 300 q 188 208 168 251 q 239 134 207 165 q 313 85 271 103 q 403 67 354 67 q 530 101 476 67 q 611 179 583 135 l 682 121 q 553 15 624 47 q 403 -17 483 -17 q 269 9 331 -17 q 163 81 207 35 q 92 189 118 126 q 67 325 67 251 q 92 461 67 399 q 161 569 117 524 q 265 641 206 615 q 394 667 325 667 q 526 640 468 667 q 624 570 585 614 q 685 467 664 526 q 706 342 706 408 l 706 300 l 164 300 m 578 833 l 203 833 l 203 908 l 578 908 l 578 833 z "},"Ĕ":{"ha":824,"x_min":133,"x_max":760,"o":"m 233 92 l 760 92 l 760 0 l 133 0 l 133 983 l 743 983 l 743 892 l 233 892 l 233 557 l 710 557 l 710 465 l 233 465 l 233 92 m 651 1247 q 590 1112 646 1160 q 447 1064 533 1064 q 305 1112 361 1064 q 243 1247 249 1160 l 304 1247 q 354 1166 314 1193 q 447 1139 394 1139 q 540 1166 500 1139 q 590 1247 581 1193 l 651 1247 z "},"ĕ":{"ha":772,"x_min":67,"x_max":706,"o":"m 606 375 q 550 526 606 468 q 394 583 494 583 q 308 566 350 583 q 235 519 267 549 q 185 453 204 490 q 167 375 167 415 l 606 375 m 164 300 q 188 208 168 251 q 239 134 207 165 q 313 85 271 103 q 403 67 354 67 q 530 101 476 67 q 611 179 583 135 l 682 121 q 553 15 624 47 q 403 -17 483 -17 q 269 9 331 -17 q 163 81 207 35 q 92 189 118 126 q 67 325 67 251 q 92 461 67 399 q 161 569 117 524 q 265 641 206 615 q 394 667 325 667 q 526 640 468 667 q 624 570 585 614 q 685 467 664 526 q 706 342 706 408 l 706 300 l 164 300 m 603 983 q 541 848 597 896 q 399 800 485 800 q 256 848 313 800 q 194 983 200 896 l 256 983 q 306 902 265 929 q 399 875 346 875 q 492 902 451 875 q 542 983 532 929 l 603 983 z "},"Ė":{"ha":824,"x_min":133,"x_max":760,"o":"m 233 92 l 760 92 l 760 0 l 133 0 l 133 983 l 743 983 l 743 892 l 233 892 l 233 557 l 710 557 l 710 465 l 233 465 l 233 92 m 388 1135 q 407 1184 388 1163 q 458 1206 426 1206 q 510 1184 490 1206 q 529 1135 529 1163 q 510 1085 529 1107 q 458 1064 490 1064 q 407 1085 426 1064 q 388 1135 388 1107 z "},"ė":{"ha":772,"x_min":67,"x_max":706,"o":"m 606 375 q 550 526 606 468 q 394 583 494 583 q 308 566 350 583 q 235 519 267 549 q 185 453 204 490 q 167 375 167 415 l 606 375 m 164 300 q 188 208 168 251 q 239 134 207 165 q 313 85 271 103 q 403 67 354 67 q 530 101 476 67 q 611 179 583 135 l 682 121 q 553 15 624 47 q 403 -17 483 -17 q 269 9 331 -17 q 163 81 207 35 q 92 189 118 126 q 67 325 67 251 q 92 461 67 399 q 161 569 117 524 q 265 641 206 615 q 394 667 325 667 q 526 640 468 667 q 624 570 585 614 q 685 467 664 526 q 706 342 706 408 l 706 300 l 164 300 m 331 913 q 350 962 331 940 q 401 983 369 983 q 453 962 433 983 q 472 913 472 940 q 453 863 472 885 q 401 842 433 842 q 350 863 369 842 q 331 913 331 885 z "},"Ę":{"ha":824,"x_min":133,"x_max":806,"o":"m 806 -251 q 749 -288 782 -275 q 681 -301 715 -301 q 633 -293 656 -301 q 594 -269 611 -285 q 566 -231 576 -253 q 556 -183 556 -210 q 567 -127 556 -154 q 596 -76 578 -100 q 636 -29 614 -51 q 668 0 653 -14 l 133 0 l 133 983 l 743 983 l 743 892 l 233 892 l 233 557 l 710 557 l 710 465 l 233 465 l 233 92 l 760 92 l 760 0 l 738 0 q 667 -81 692 -46 q 639 -160 639 -119 q 660 -208 639 -189 q 708 -226 681 -226 q 747 -219 728 -226 q 779 -196 765 -211 l 806 -251 z "},"ę":{"ha":772,"x_min":67,"x_max":706,"o":"m 542 -251 q 485 -288 518 -275 q 417 -301 451 -301 q 369 -293 392 -301 q 330 -269 347 -285 q 302 -231 313 -253 q 292 -183 292 -210 q 303 -127 292 -154 q 332 -76 314 -100 q 372 -29 350 -51 q 386 -17 379 -22 q 268 8 324 -14 q 163 81 207 35 q 92 189 118 126 q 67 325 67 251 q 92 461 67 399 q 161 569 117 524 q 265 641 206 615 q 394 667 325 667 q 526 640 468 667 q 624 570 585 614 q 685 467 664 526 q 706 342 706 408 l 706 300 l 164 300 q 188 208 168 251 q 239 134 207 165 q 313 85 271 103 q 403 67 354 67 q 530 101 476 67 q 611 179 583 135 l 682 121 q 553 15 624 47 q 461 -11 510 -4 q 403 -81 425 -50 q 375 -160 375 -119 q 396 -208 375 -189 q 444 -226 417 -226 q 483 -219 464 -226 q 515 -196 501 -211 l 542 -251 m 606 375 q 550 526 606 468 q 394 583 494 583 q 308 566 350 583 q 235 519 267 549 q 185 453 204 490 q 167 375 167 415 l 606 375 z "},"Ě":{"ha":824,"x_min":133,"x_max":760,"o":"m 233 92 l 760 92 l 760 0 l 133 0 l 133 983 l 743 983 l 743 892 l 233 892 l 233 557 l 710 557 l 710 465 l 233 465 l 233 92 m 504 1056 l 393 1056 l 242 1256 l 333 1256 l 449 1106 l 564 1256 l 656 1256 l 504 1056 z "},"ě":{"ha":772,"x_min":67,"x_max":706,"o":"m 606 375 q 550 526 606 468 q 394 583 494 583 q 308 566 350 583 q 235 519 267 549 q 185 453 204 490 q 167 375 167 415 l 606 375 m 164 300 q 188 208 168 251 q 239 134 207 165 q 313 85 271 103 q 403 67 354 67 q 530 101 476 67 q 611 179 583 135 l 682 121 q 553 15 624 47 q 403 -17 483 -17 q 269 9 331 -17 q 163 81 207 35 q 92 189 118 126 q 67 325 67 251 q 92 461 67 399 q 161 569 117 524 q 265 641 206 615 q 394 667 325 667 q 526 640 468 667 q 624 570 585 614 q 685 467 664 526 q 706 342 706 408 l 706 300 l 164 300 m 460 783 l 349 783 l 197 983 l 289 983 l 404 833 l 519 983 l 611 983 l 460 783 z "},"Ĝ":{"ha":1081,"x_min":67,"x_max":951,"o":"m 860 803 q 740 886 810 856 q 579 917 671 917 q 410 882 485 917 q 283 789 335 847 q 203 653 231 731 q 175 492 175 576 q 203 330 175 407 q 283 194 231 253 q 410 101 335 136 q 579 67 485 67 q 726 85 656 67 q 851 136 796 104 l 851 465 l 617 465 l 617 557 l 951 557 l 951 75 q 769 1 868 26 q 579 -25 669 -25 q 376 14 469 -25 q 213 122 282 53 q 106 285 144 190 q 67 492 67 379 q 106 699 67 604 q 213 862 144 793 q 376 969 282 931 q 579 1008 469 1008 q 783 976 697 1008 q 935 876 868 943 l 860 803 m 775 1056 l 683 1056 l 568 1206 l 453 1056 l 361 1056 l 513 1256 l 624 1256 l 775 1056 z "},"ĝ":{"ha":849,"x_min":67,"x_max":743,"o":"m 167 333 q 185 237 167 282 q 237 158 204 192 q 313 103 269 124 q 408 83 357 83 q 503 101 458 83 q 583 152 549 119 q 637 231 618 185 q 654 333 656 276 q 638 430 654 385 q 589 509 621 475 q 511 563 557 543 q 408 583 465 583 q 313 563 357 583 q 237 509 269 543 q 185 430 204 475 q 167 333 167 385 m 150 -131 q 255 -217 190 -185 q 399 -250 319 -250 q 517 -230 468 -250 q 595 -175 565 -210 q 638 -94 625 -140 q 651 6 651 -47 l 651 122 l 649 122 q 540 28 604 56 q 406 0 476 0 q 273 25 335 0 q 165 94 211 50 q 93 199 119 138 q 67 331 67 260 q 92 463 67 401 q 160 569 117 524 q 265 641 204 615 q 397 667 325 667 q 459 661 426 667 q 524 642 492 656 q 589 603 557 628 q 649 542 621 579 l 651 542 l 651 650 l 743 650 l 743 6 q 730 -107 743 -47 q 678 -217 717 -167 q 572 -300 640 -267 q 394 -333 504 -333 q 221 -301 297 -333 q 82 -203 144 -269 l 150 -131 m 626 783 l 535 783 l 419 933 l 304 783 l 213 783 l 364 983 l 475 983 l 626 783 z "},"Ğ":{"ha":1081,"x_min":67,"x_max":951,"o":"m 860 803 q 740 886 810 856 q 579 917 671 917 q 410 882 485 917 q 283 789 335 847 q 203 653 231 731 q 175 492 175 576 q 203 330 175 407 q 283 194 231 253 q 410 101 335 136 q 579 67 485 67 q 726 85 656 67 q 851 136 796 104 l 851 465 l 617 465 l 617 557 l 951 557 l 951 75 q 769 1 868 26 q 579 -25 669 -25 q 376 14 469 -25 q 213 122 282 53 q 106 285 144 190 q 67 492 67 379 q 106 699 67 604 q 213 862 144 793 q 376 969 282 931 q 579 1008 469 1008 q 783 976 697 1008 q 935 876 868 943 l 860 803 m 774 1247 q 712 1112 768 1160 q 569 1064 656 1064 q 427 1112 483 1064 q 365 1247 371 1160 l 426 1247 q 476 1166 436 1193 q 569 1139 517 1139 q 663 1166 622 1139 q 713 1247 703 1193 l 774 1247 z "},"ğ":{"ha":849,"x_min":67,"x_max":743,"o":"m 167 333 q 185 237 167 282 q 237 158 204 192 q 313 103 269 124 q 408 83 357 83 q 503 101 458 83 q 583 152 549 119 q 637 231 618 185 q 654 333 656 276 q 638 430 654 385 q 589 509 621 475 q 511 563 557 543 q 408 583 465 583 q 313 563 357 583 q 237 509 269 543 q 185 430 204 475 q 167 333 167 385 m 150 -131 q 255 -217 190 -185 q 399 -250 319 -250 q 517 -230 468 -250 q 595 -175 565 -210 q 638 -94 625 -140 q 651 6 651 -47 l 651 122 l 649 122 q 540 28 604 56 q 406 0 476 0 q 273 25 335 0 q 165 94 211 50 q 93 199 119 138 q 67 331 67 260 q 92 463 67 401 q 160 569 117 524 q 265 641 204 615 q 397 667 325 667 q 459 661 426 667 q 524 642 492 656 q 589 603 557 628 q 649 542 621 579 l 651 542 l 651 650 l 743 650 l 743 6 q 730 -107 743 -47 q 678 -217 717 -167 q 572 -300 640 -267 q 394 -333 504 -333 q 221 -301 297 -333 q 82 -203 144 -269 l 150 -131 m 629 983 q 567 848 624 896 q 425 800 511 800 q 283 848 339 800 q 221 983 226 896 l 282 983 q 332 902 292 929 q 425 875 372 875 q 518 902 478 875 q 568 983 558 929 l 629 983 z "},"Ġ":{"ha":1081,"x_min":67,"x_max":951,"o":"m 860 803 q 740 886 810 856 q 579 917 671 917 q 410 882 485 917 q 283 789 335 847 q 203 653 231 731 q 175 492 175 576 q 203 330 175 407 q 283 194 231 253 q 410 101 335 136 q 579 67 485 67 q 726 85 656 67 q 851 136 796 104 l 851 465 l 617 465 l 617 557 l 951 557 l 951 75 q 769 1 868 26 q 579 -25 669 -25 q 376 14 469 -25 q 213 122 282 53 q 106 285 144 190 q 67 492 67 379 q 106 699 67 604 q 213 862 144 793 q 376 969 282 931 q 579 1008 469 1008 q 783 976 697 1008 q 935 876 868 943 l 860 803 m 517 1135 q 536 1184 517 1163 q 588 1206 556 1206 q 639 1184 619 1206 q 658 1135 658 1163 q 639 1085 658 1107 q 588 1064 619 1064 q 536 1085 556 1064 q 517 1135 517 1107 z "},"ġ":{"ha":849,"x_min":67,"x_max":743,"o":"m 167 333 q 185 237 167 282 q 237 158 204 192 q 313 103 269 124 q 408 83 357 83 q 503 101 458 83 q 583 152 549 119 q 637 231 618 185 q 654 333 656 276 q 638 430 654 385 q 589 509 621 475 q 511 563 557 543 q 408 583 465 583 q 313 563 357 583 q 237 509 269 543 q 185 430 204 475 q 167 333 167 385 m 150 -131 q 255 -217 190 -185 q 399 -250 319 -250 q 517 -230 468 -250 q 595 -175 565 -210 q 638 -94 625 -140 q 651 6 651 -47 l 651 122 l 649 122 q 540 28 604 56 q 406 0 476 0 q 273 25 335 0 q 165 94 211 50 q 93 199 119 138 q 67 331 67 260 q 92 463 67 401 q 160 569 117 524 q 265 641 204 615 q 397 667 325 667 q 459 661 426 667 q 524 642 492 656 q 589 603 557 628 q 649 542 621 579 l 651 542 l 651 650 l 743 650 l 743 6 q 730 -107 743 -47 q 678 -217 717 -167 q 572 -300 640 -267 q 394 -333 504 -333 q 221 -301 297 -333 q 82 -203 144 -269 l 150 -131 m 356 913 q 375 962 356 940 q 426 983 394 983 q 478 962 458 983 q 497 913 497 940 q 478 863 497 885 q 426 842 458 842 q 375 863 394 842 q 356 913 356 885 z "},"Ģ":{"ha":1081,"x_min":67,"x_max":951,"o":"m 860 803 q 740 886 810 856 q 579 917 671 917 q 410 882 485 917 q 283 789 335 847 q 203 653 231 731 q 175 492 175 576 q 203 330 175 407 q 283 194 231 253 q 410 101 335 136 q 579 67 485 67 q 726 85 656 67 q 851 136 796 104 l 851 465 l 617 465 l 617 557 l 951 557 l 951 75 q 769 1 868 26 q 579 -25 669 -25 q 376 14 469 -25 q 213 122 282 53 q 106 285 144 190 q 67 492 67 379 q 106 699 67 604 q 213 862 144 793 q 376 969 282 931 q 579 1008 469 1008 q 783 976 697 1008 q 935 876 868 943 l 860 803 m 544 -319 l 465 -319 l 551 -62 l 650 -62 l 544 -319 z "},"ģ":{"ha":849,"x_min":67,"x_max":743,"o":"m 167 333 q 185 237 167 282 q 237 158 204 192 q 313 103 269 124 q 408 83 357 83 q 503 101 458 83 q 583 152 549 119 q 637 231 618 185 q 654 333 656 276 q 638 430 654 385 q 589 509 621 475 q 511 563 557 543 q 408 583 465 583 q 313 563 357 583 q 237 509 269 543 q 185 430 204 475 q 167 333 167 385 m 150 -131 q 255 -217 190 -185 q 399 -250 319 -250 q 517 -230 468 -250 q 595 -175 565 -210 q 638 -94 625 -140 q 651 6 651 -47 l 651 122 l 649 122 q 540 28 604 56 q 406 0 476 0 q 273 25 335 0 q 165 94 211 50 q 93 199 119 138 q 67 331 67 260 q 92 463 67 401 q 160 569 117 524 q 265 641 204 615 q 397 667 325 667 q 459 661 426 667 q 524 642 492 656 q 589 603 557 628 q 649 542 621 579 l 651 542 l 651 650 l 743 650 l 743 6 q 730 -107 743 -47 q 678 -217 717 -167 q 572 -300 640 -267 q 394 -333 504 -333 q 221 -301 297 -333 q 82 -203 144 -269 l 150 -131 m 469 1040 l 549 1040 l 463 783 l 364 783 l 469 1040 z "},"Ĥ":{"ha":1003,"x_min":133,"x_max":869,"o":"m 133 983 l 233 983 l 233 557 l 769 557 l 769 983 l 869 983 l 869 0 l 769 0 l 769 465 l 233 465 l 233 0 l 133 0 l 133 983 m 710 1056 l 618 1056 l 503 1206 l 388 1056 l 296 1056 l 447 1256 l 558 1256 l 710 1056 z "},"ĥ":{"ha":772,"x_min":100,"x_max":657,"o":"m 100 1050 l 192 1050 l 192 546 l 194 546 q 233 594 210 572 q 286 633 257 617 q 348 658 315 649 q 413 667 381 667 q 597 601 538 667 q 657 413 657 535 l 657 0 l 565 0 l 565 360 q 528 526 565 468 q 389 583 490 583 q 350 578 382 583 q 283 547 318 572 q 219 472 247 522 q 192 333 192 422 l 192 0 l 100 0 l 100 1050 m 597 1106 l 506 1106 l 390 1256 l 275 1106 l 183 1106 l 335 1306 l 446 1306 l 597 1106 z "},"Ħ":{"ha":1003,"x_min":133,"x_max":869,"o":"m 133 983 l 233 983 l 233 754 l 769 754 l 769 983 l 869 983 l 869 0 l 769 0 l 769 465 l 233 465 l 233 0 l 133 0 l 133 983 m 769 557 l 769 671 l 233 671 l 233 557 l 769 557 z "},"ħ":{"ha":772,"x_min":17,"x_max":657,"o":"m 460 776 l 192 776 l 192 546 l 194 546 q 233 594 210 572 q 286 633 257 617 q 348 658 315 649 q 413 667 381 667 q 597 601 538 667 q 657 413 657 535 l 657 0 l 565 0 l 565 360 q 528 526 565 468 q 389 583 490 583 q 350 578 382 583 q 283 547 318 572 q 219 472 247 522 q 192 333 192 422 l 192 0 l 100 0 l 100 776 l 17 776 l 17 850 l 100 850 l 100 1050 l 192 1050 l 192 850 l 460 850 l 460 776 z "},"Ĩ":{"ha":367,"x_min":-40,"x_max":410,"o":"m 233 0 l 133 0 l 133 983 l 233 983 l 233 0 m -40 1071 q -27 1124 -36 1097 q -3 1170 -18 1150 q 34 1203 13 1190 q 88 1215 56 1215 q 138 1206 113 1215 q 189 1183 164 1196 q 238 1162 214 1172 q 282 1151 261 1151 q 328 1173 314 1151 q 350 1221 343 1194 l 410 1221 q 397 1167 406 1193 q 372 1122 388 1142 q 335 1089 357 1101 q 282 1076 313 1076 q 231 1087 257 1076 q 181 1108 206 1097 q 133 1131 157 1121 q 88 1140 110 1140 q 41 1119 56 1140 q 19 1071 26 1097 l -40 1071 z "},"ĩ":{"ha":333,"x_min":-56,"x_max":394,"o":"m 213 0 l 121 0 l 121 650 l 213 650 l 213 0 m -56 800 q -42 853 -51 826 q -18 899 -33 879 q 19 932 -3 919 q 72 944 40 944 q 123 935 97 944 q 174 913 149 925 q 222 891 199 901 q 267 881 246 881 q 313 902 299 881 q 335 950 328 924 l 394 950 q 381 897 390 922 q 357 851 372 871 q 319 818 342 831 q 267 806 297 806 q 216 816 242 806 q 165 838 190 826 q 118 860 142 850 q 72 869 94 869 q 26 848 40 869 q 4 800 11 826 l -56 800 z "},"Ī":{"ha":367,"x_min":-6,"x_max":369,"o":"m 233 0 l 133 0 l 133 983 l 233 983 l 233 0 m 369 1099 l -6 1099 l -6 1174 l 369 1174 l 369 1099 z "},"ī":{"ha":333,"x_min":-19,"x_max":356,"o":"m 213 0 l 121 0 l 121 650 l 213 650 l 213 0 m 356 833 l -19 833 l -19 908 l 356 908 l 356 833 z "},"Į":{"ha":367,"x_min":26,"x_max":276,"o":"m 276 -251 q 219 -288 253 -275 q 151 -301 186 -301 q 104 -293 126 -301 q 65 -269 82 -285 q 37 -231 47 -253 q 26 -183 26 -210 q 38 -127 26 -154 q 67 -76 49 -100 q 107 -29 85 -51 q 139 0 124 -14 l 133 0 l 133 983 l 233 983 l 233 0 l 208 0 q 138 -81 163 -46 q 110 -160 110 -119 q 131 -208 110 -189 q 179 -226 151 -226 q 217 -219 199 -226 q 250 -196 236 -211 l 276 -251 z "},"į":{"ha":333,"x_min":11,"x_max":261,"o":"m 261 -251 q 204 -288 238 -275 q 136 -301 171 -301 q 89 -293 111 -301 q 49 -269 67 -285 q 22 -231 32 -253 q 11 -183 11 -210 q 22 -127 11 -154 q 51 -76 33 -100 q 92 -29 69 -51 q 124 0 108 -14 l 121 0 l 121 650 l 213 650 l 213 0 l 193 0 q 122 -81 147 -46 q 94 -160 94 -119 q 115 -208 94 -189 q 164 -226 136 -226 q 202 -219 183 -226 q 235 -196 221 -211 l 261 -251 m 233 900 q 213 852 233 871 q 167 833 192 833 q 121 852 142 833 q 100 900 100 871 q 121 948 100 929 q 167 967 142 967 q 213 948 192 967 q 233 900 233 929 z "},"İ":{"ha":367,"x_min":114,"x_max":256,"o":"m 233 0 l 133 0 l 133 983 l 233 983 l 233 0 m 114 1135 q 133 1184 114 1163 q 185 1206 153 1206 q 236 1184 217 1206 q 256 1135 256 1163 q 236 1085 256 1107 q 185 1064 217 1064 q 133 1085 153 1064 q 114 1135 114 1107 z "},"ı":{"ha":333,"x_min":121,"x_max":213,"o":"m 213 0 l 121 0 l 121 650 l 213 650 l 213 0 z "},"Ĳ":{"ha":956,"x_min":133,"x_max":836,"o":"m 233 0 l 133 0 l 133 983 l 233 983 l 233 0 m 407 201 q 458 103 421 139 q 563 67 496 67 q 651 88 617 67 q 703 144 685 110 q 729 222 722 178 q 736 311 736 265 l 736 983 l 836 983 l 836 269 q 823 167 836 219 q 777 73 810 115 q 692 3 744 31 q 560 -25 639 -25 q 390 27 458 -25 q 306 181 322 79 l 407 201 z "},"ĳ":{"ha":660,"x_min":100,"x_max":560,"o":"m 233 900 q 213 852 233 871 q 167 833 192 833 q 121 852 142 833 q 100 900 100 871 q 121 948 100 929 q 167 967 142 967 q 213 948 192 967 q 233 900 233 929 m 213 0 l 121 0 l 121 650 l 213 650 l 213 0 m 560 900 q 539 852 560 871 q 493 833 518 833 q 447 852 468 833 q 426 900 426 871 q 447 948 426 929 q 493 967 468 967 q 539 948 518 967 q 560 900 560 929 m 296 -240 l 300 -242 q 324 -247 311 -244 q 349 -250 338 -250 q 402 -237 382 -250 q 432 -205 422 -225 q 444 -161 442 -185 q 447 -114 447 -137 l 447 650 l 539 650 l 539 -129 q 538 -177 539 -143 q 520 -246 536 -211 q 466 -307 504 -281 q 356 -333 428 -333 q 283 -319 317 -333 l 296 -240 z "},"Ĵ":{"ha":669,"x_min":19,"x_max":704,"o":"m 121 201 q 172 103 135 139 q 276 67 210 67 q 365 88 331 67 q 417 144 399 110 q 443 222 436 178 q 450 311 450 265 l 450 983 l 550 983 l 550 269 q 537 167 550 219 q 491 73 524 115 q 406 3 458 31 q 274 -25 353 -25 q 104 27 172 -25 q 19 181 36 79 l 121 201 m 704 1056 l 613 1056 l 497 1206 l 382 1056 l 290 1056 l 442 1256 l 553 1256 l 704 1056 z "},"ĵ":{"ha":333,"x_min":-43,"x_max":371,"o":"m -31 -240 l -26 -242 q -2 -247 -15 -244 q 22 -250 11 -250 q 76 -237 56 -250 q 106 -205 96 -225 q 118 -161 115 -185 q 121 -114 121 -137 l 121 650 l 213 650 l 213 -129 q 211 -177 213 -143 q 194 -246 210 -211 q 140 -307 178 -281 q 29 -333 101 -333 q -43 -319 -10 -333 l -31 -240 m 371 783 l 279 783 l 164 933 l 49 783 l -43 783 l 108 983 l 219 983 l 371 783 z "},"Ķ":{"ha":875,"x_min":133,"x_max":881,"o":"m 233 557 l 235 557 l 247 557 l 710 983 l 853 983 l 357 538 l 881 0 l 733 0 l 250 507 l 235 507 l 233 507 l 233 0 l 133 0 l 133 983 l 233 983 l 233 557 m 400 -319 l 321 -319 l 407 -62 l 506 -62 l 400 -319 z "},"ķ":{"ha":669,"x_min":100,"x_max":671,"o":"m 192 357 l 499 650 l 636 650 l 313 353 l 671 0 l 529 0 l 192 342 l 192 0 l 100 0 l 100 1050 l 192 1050 l 192 357 m 275 -319 l 196 -319 l 282 -62 l 381 -62 l 275 -319 z "},"Ĺ":{"ha":694,"x_min":133,"x_max":692,"o":"m 233 92 l 692 92 l 692 0 l 133 0 l 133 983 l 233 983 l 233 92 m 233 1056 l 151 1056 l 290 1256 l 417 1256 l 233 1056 z "},"ĺ":{"ha":333,"x_min":121,"x_max":386,"o":"m 213 0 l 121 0 l 121 1050 l 213 1050 l 213 0 m 203 1100 l 121 1100 l 260 1300 l 386 1300 l 203 1100 z "},"Ļ":{"ha":694,"x_min":133,"x_max":692,"o":"m 233 92 l 692 92 l 692 0 l 133 0 l 133 983 l 233 983 l 233 92 m 371 -319 l 292 -319 l 378 -62 l 476 -62 l 371 -319 z "},"ļ":{"ha":333,"x_min":36,"x_max":221,"o":"m 213 0 l 121 0 l 121 1050 l 213 1050 l 213 0 m 115 -319 l 36 -319 l 122 -62 l 221 -62 l 115 -319 z "},"Ľ":{"ha":694,"x_min":133,"x_max":692,"o":"m 233 92 l 692 92 l 692 0 l 133 0 l 133 983 l 233 983 l 233 92 m 433 726 l 354 726 l 440 983 l 539 983 l 433 726 z "},"ľ":{"ha":333,"x_min":121,"x_max":465,"o":"m 213 0 l 121 0 l 121 1050 l 213 1050 l 213 0 m 360 726 l 281 726 l 367 983 l 465 983 l 360 726 z "},"Ŀ":{"ha":694,"x_min":133,"x_max":692,"o":"m 233 92 l 692 92 l 692 0 l 133 0 l 133 983 l 233 983 l 233 92 m 447 564 q 467 613 447 592 q 518 635 486 635 q 569 613 550 635 q 589 564 589 592 q 569 515 589 536 q 518 493 550 493 q 467 515 486 493 q 447 564 447 536 z "},"ŀ":{"ha":417,"x_min":121,"x_max":440,"o":"m 213 0 l 121 0 l 121 1050 l 213 1050 l 213 0 m 299 569 q 318 619 299 597 q 369 640 338 640 q 421 619 401 640 q 440 569 440 597 q 421 520 440 542 q 369 499 401 499 q 318 520 338 499 q 299 569 299 542 z "},"Ł":{"ha":694,"x_min":19,"x_max":692,"o":"m 233 503 l 533 761 l 533 664 l 233 406 l 233 92 l 692 92 l 692 0 l 133 0 l 133 319 l 19 222 l 19 319 l 133 417 l 133 983 l 233 983 l 233 503 z "},"ł":{"ha":333,"x_min":8,"x_max":325,"o":"m 213 636 l 325 753 l 325 651 l 213 536 l 213 0 l 121 0 l 121 440 l 8 325 l 8 426 l 121 540 l 121 1050 l 213 1050 l 213 636 z "},"Ń":{"ha":1081,"x_min":133,"x_max":947,"o":"m 844 150 l 847 150 l 847 983 l 947 983 l 947 0 l 822 0 l 236 842 l 233 842 l 233 0 l 133 0 l 133 983 l 258 983 l 844 150 m 556 1056 l 474 1056 l 613 1256 l 739 1256 l 556 1056 z "},"ń":{"ha":772,"x_min":93,"x_max":657,"o":"m 188 650 q 191 598 190 624 q 192 546 192 572 l 194 546 q 233 594 210 572 q 286 633 257 617 q 348 658 315 649 q 413 667 381 667 q 597 601 538 667 q 657 413 657 535 l 657 0 l 565 0 l 565 360 q 528 526 565 468 q 389 583 490 583 q 350 578 382 583 q 283 547 318 572 q 219 472 247 522 q 192 333 192 422 l 192 0 l 100 0 l 100 507 q 98 574 100 533 q 93 650 96 614 l 188 650 m 404 783 l 322 783 l 461 983 l 588 983 l 404 783 z "},"Ņ":{"ha":1081,"x_min":133,"x_max":947,"o":"m 844 150 l 847 150 l 847 983 l 947 983 l 947 0 l 822 0 l 236 842 l 233 842 l 233 0 l 133 0 l 133 983 l 258 983 l 844 150 m 497 -319 l 418 -319 l 504 -62 l 603 -62 l 497 -319 z "},"ņ":{"ha":772,"x_min":93,"x_max":657,"o":"m 188 650 q 191 598 190 624 q 192 546 192 572 l 194 546 q 233 594 210 572 q 286 633 257 617 q 348 658 315 649 q 413 667 381 667 q 597 601 538 667 q 657 413 657 535 l 657 0 l 565 0 l 565 360 q 528 526 565 468 q 389 583 490 583 q 350 578 382 583 q 283 547 318 572 q 219 472 247 522 q 192 333 192 422 l 192 0 l 100 0 l 100 507 q 98 574 100 533 q 93 650 96 614 l 188 650 m 342 -319 l 263 -319 l 349 -62 l 447 -62 l 342 -319 z "},"Ň":{"ha":1081,"x_min":133,"x_max":947,"o":"m 844 150 l 847 150 l 847 983 l 947 983 l 947 0 l 822 0 l 236 842 l 233 842 l 233 0 l 133 0 l 133 983 l 258 983 l 844 150 m 599 1056 l 488 1056 l 336 1256 l 428 1256 l 543 1106 l 658 1256 l 750 1256 l 599 1056 z "},"ň":{"ha":772,"x_min":93,"x_max":657,"o":"m 188 650 q 191 598 190 624 q 192 546 192 572 l 194 546 q 233 594 210 572 q 286 633 257 617 q 348 658 315 649 q 413 667 381 667 q 597 601 538 667 q 657 413 657 535 l 657 0 l 565 0 l 565 360 q 528 526 565 468 q 389 583 490 583 q 350 578 382 583 q 283 547 318 572 q 219 472 247 522 q 192 333 192 422 l 192 0 l 100 0 l 100 507 q 98 574 100 533 q 93 650 96 614 l 188 650 m 436 783 l 325 783 l 174 983 l 265 983 l 381 833 l 496 983 l 588 983 l 436 783 z "},"ŉ":{"ha":772,"x_min":25,"x_max":657,"o":"m 188 650 q 191 598 190 624 q 192 546 192 572 l 194 546 q 233 594 210 572 q 286 633 257 617 q 348 658 315 649 q 413 667 381 667 q 597 601 538 667 q 657 413 657 535 l 657 0 l 565 0 l 565 360 q 528 526 565 468 q 389 583 490 583 q 350 578 382 583 q 283 547 318 572 q 219 472 247 522 q 192 333 192 422 l 192 0 l 100 0 l 100 507 q 98 574 100 533 q 93 650 96 614 l 188 650 m 104 726 l 25 726 l 111 983 l 210 983 l 104 726 z "},"Ō":{"ha":1158,"x_min":67,"x_max":1092,"o":"m 983 492 q 956 653 983 576 q 876 789 928 731 q 749 882 824 847 q 579 917 674 917 q 410 882 485 917 q 283 789 335 847 q 203 653 231 731 q 175 492 175 576 q 203 330 175 407 q 283 194 231 253 q 410 101 335 136 q 579 67 485 67 q 749 101 674 67 q 876 194 824 136 q 956 330 928 253 q 983 492 983 407 m 1092 492 q 1053 285 1092 379 q 945 122 1014 190 q 783 14 876 53 q 579 -25 689 -25 q 376 14 469 -25 q 213 122 282 53 q 106 285 144 190 q 67 492 67 379 q 106 699 67 604 q 213 862 144 793 q 376 969 282 931 q 579 1008 469 1008 q 783 969 689 1008 q 945 862 876 931 q 1053 699 1014 793 q 1092 492 1092 604 m 768 1099 l 393 1099 l 393 1174 l 768 1174 l 768 1099 z "},"ō":{"ha":824,"x_min":67,"x_max":757,"o":"m 657 325 q 640 426 657 379 q 590 508 622 474 q 513 563 558 543 q 411 583 468 583 q 309 563 354 583 q 233 508 264 543 q 184 426 201 474 q 167 325 167 379 q 184 224 167 271 q 233 142 201 176 q 309 87 264 107 q 411 67 354 67 q 513 87 468 67 q 590 142 558 107 q 640 224 622 176 q 657 325 657 271 m 757 325 q 731 189 757 251 q 660 81 706 126 q 551 9 614 35 q 411 -17 488 -17 q 273 9 336 -17 q 164 81 210 35 q 92 189 118 126 q 67 325 67 251 q 92 461 67 399 q 164 569 118 524 q 273 641 210 615 q 411 667 336 667 q 551 641 488 667 q 660 569 614 615 q 731 461 706 524 q 757 325 757 399 m 600 833 l 225 833 l 225 908 l 600 908 l 600 833 z "},"Ŏ":{"ha":1158,"x_min":67,"x_max":1092,"o":"m 983 492 q 956 653 983 576 q 876 789 928 731 q 749 882 824 847 q 579 917 674 917 q 410 882 485 917 q 283 789 335 847 q 203 653 231 731 q 175 492 175 576 q 203 330 175 407 q 283 194 231 253 q 410 101 335 136 q 579 67 485 67 q 749 101 674 67 q 876 194 824 136 q 956 330 928 253 q 983 492 983 407 m 1092 492 q 1053 285 1092 379 q 945 122 1014 190 q 783 14 876 53 q 579 -25 689 -25 q 376 14 469 -25 q 213 122 282 53 q 106 285 144 190 q 67 492 67 379 q 106 699 67 604 q 213 862 144 793 q 376 969 282 931 q 579 1008 469 1008 q 783 969 689 1008 q 945 862 876 931 q 1053 699 1014 793 q 1092 492 1092 604 m 782 1247 q 720 1112 776 1160 q 578 1064 664 1064 q 435 1112 492 1064 q 374 1247 379 1160 l 435 1247 q 485 1166 444 1193 q 578 1139 525 1139 q 671 1166 631 1139 q 721 1247 711 1193 l 782 1247 z "},"ŏ":{"ha":824,"x_min":67,"x_max":757,"o":"m 657 325 q 640 426 657 379 q 590 508 622 474 q 513 563 558 543 q 411 583 468 583 q 309 563 354 583 q 233 508 264 543 q 184 426 201 474 q 167 325 167 379 q 184 224 167 271 q 233 142 201 176 q 309 87 264 107 q 411 67 354 67 q 513 87 468 67 q 590 142 558 107 q 640 224 622 176 q 657 325 657 271 m 757 325 q 731 189 757 251 q 660 81 706 126 q 551 9 614 35 q 411 -17 488 -17 q 273 9 336 -17 q 164 81 210 35 q 92 189 118 126 q 67 325 67 251 q 92 461 67 399 q 164 569 118 524 q 273 641 210 615 q 411 667 336 667 q 551 641 488 667 q 660 569 614 615 q 731 461 706 524 q 757 325 757 399 m 617 983 q 555 848 611 896 q 413 800 499 800 q 270 848 326 800 q 208 983 214 896 l 269 983 q 319 902 279 929 q 413 875 360 875 q 506 902 465 875 q 556 983 546 929 l 617 983 z "},"Ő":{"ha":1158,"x_min":67,"x_max":1092,"o":"m 983 492 q 956 653 983 576 q 876 789 928 731 q 749 882 824 847 q 579 917 674 917 q 410 882 485 917 q 283 789 335 847 q 203 653 231 731 q 175 492 175 576 q 203 330 175 407 q 283 194 231 253 q 410 101 335 136 q 579 67 485 67 q 749 101 674 67 q 876 194 824 136 q 956 330 928 253 q 983 492 983 407 m 1092 492 q 1053 285 1092 379 q 945 122 1014 190 q 783 14 876 53 q 579 -25 689 -25 q 376 14 469 -25 q 213 122 282 53 q 106 285 144 190 q 67 492 67 379 q 106 699 67 604 q 213 862 144 793 q 376 969 282 931 q 579 1008 469 1008 q 783 969 689 1008 q 945 862 876 931 q 1053 699 1014 793 q 1092 492 1092 604 m 721 1056 l 639 1056 l 778 1256 l 904 1256 l 721 1056 m 442 1056 l 360 1056 l 500 1256 l 626 1256 l 442 1056 z "},"ő":{"ha":824,"x_min":67,"x_max":757,"o":"m 657 325 q 640 426 657 379 q 590 508 622 474 q 513 563 558 543 q 411 583 468 583 q 309 563 354 583 q 233 508 264 543 q 184 426 201 474 q 167 325 167 379 q 184 224 167 271 q 233 142 201 176 q 309 87 264 107 q 411 67 354 67 q 513 87 468 67 q 590 142 558 107 q 640 224 622 176 q 657 325 657 271 m 757 325 q 731 189 757 251 q 660 81 706 126 q 551 9 614 35 q 411 -17 488 -17 q 273 9 336 -17 q 164 81 210 35 q 92 189 118 126 q 67 325 67 251 q 92 461 67 399 q 164 569 118 524 q 273 641 210 615 q 411 667 336 667 q 551 641 488 667 q 660 569 614 615 q 731 461 706 524 q 757 325 757 399 m 558 783 l 476 783 l 615 983 l 742 983 l 558 783 m 279 783 l 197 783 l 338 983 l 464 983 l 279 783 z "},"Œ":{"ha":1311,"x_min":88,"x_max":1247,"o":"m 722 892 l 643 892 q 465 866 547 892 q 324 790 383 840 q 230 663 264 739 q 196 489 196 588 q 203 419 196 460 q 227 334 210 378 q 274 247 244 290 q 352 169 304 203 q 467 113 400 135 q 624 92 533 92 l 722 92 l 722 892 m 822 557 l 1214 557 l 1214 465 l 822 465 l 822 92 l 1247 92 l 1247 0 l 626 0 q 376 47 478 0 q 209 167 274 94 q 116 326 144 239 q 88 493 88 414 q 134 709 88 617 q 256 863 181 801 q 428 953 332 924 q 624 983 525 983 l 1231 983 l 1231 892 l 822 892 l 822 557 z "},"œ":{"ha":1281,"x_min":67,"x_max":1214,"o":"m 1122 375 q 1108 459 1122 421 q 1068 525 1094 497 q 1005 568 1042 553 q 922 583 968 583 q 845 567 881 583 q 783 524 810 551 q 742 458 757 496 q 726 375 726 419 l 1122 375 m 626 325 q 611 424 626 376 q 567 506 596 471 q 494 563 538 542 q 396 583 451 583 q 303 563 346 583 q 231 508 261 543 q 183 426 200 474 q 167 325 167 379 q 183 224 167 271 q 231 142 200 176 q 303 87 261 107 q 396 67 346 67 q 494 88 451 67 q 567 144 538 108 q 611 226 596 179 q 626 325 626 272 m 726 300 l 726 288 q 740 203 726 243 q 777 133 753 163 q 837 85 801 103 q 917 67 872 67 q 990 75 958 67 q 1044 98 1021 83 q 1086 132 1068 113 q 1119 172 1104 151 l 1192 115 q 1067 15 1139 47 q 919 -17 996 -17 q 773 19 840 -17 q 667 131 706 56 q 605 63 639 90 q 535 17 571 35 q 463 -8 499 0 q 396 -17 426 -17 q 260 9 321 -17 q 157 81 200 35 q 90 189 114 126 q 67 325 67 251 q 92 461 67 399 q 161 569 117 524 q 266 641 206 615 q 396 667 326 667 q 550 633 475 667 q 671 521 625 599 q 774 629 717 592 q 919 667 832 667 q 1047 642 992 667 q 1139 573 1101 617 q 1195 469 1176 529 q 1214 342 1214 410 l 1214 300 l 726 300 z "},"Ŕ":{"ha":824,"x_min":133,"x_max":792,"o":"m 233 549 l 411 549 q 524 563 478 549 q 599 599 571 576 q 639 653 626 622 q 651 721 651 685 q 639 787 651 756 q 599 842 626 818 q 524 878 571 865 q 411 892 478 892 l 233 892 l 233 549 m 233 0 l 133 0 l 133 983 l 436 983 q 673 918 586 983 q 760 721 760 853 q 695 548 760 618 q 508 467 631 478 l 792 0 l 669 0 l 400 457 l 233 457 l 233 0 m 419 1056 l 338 1056 l 476 1256 l 603 1256 l 419 1056 z "},"ŕ":{"ha":461,"x_min":104,"x_max":474,"o":"m 110 447 q 108 535 110 490 q 104 650 106 579 l 194 650 l 194 529 l 197 529 q 225 580 207 556 q 269 624 243 604 q 328 655 294 643 q 406 667 363 667 q 474 658 444 667 l 456 568 q 403 575 438 575 q 313 555 350 575 q 250 503 275 535 q 213 436 225 472 q 201 367 201 400 l 201 0 l 110 0 l 110 447 m 272 783 l 190 783 l 329 983 l 456 983 l 272 783 z "},"Ŗ":{"ha":824,"x_min":133,"x_max":792,"o":"m 233 549 l 411 549 q 524 563 478 549 q 599 599 571 576 q 639 653 626 622 q 651 721 651 685 q 639 787 651 756 q 599 842 626 818 q 524 878 571 865 q 411 892 478 892 l 233 892 l 233 549 m 233 0 l 133 0 l 133 983 l 436 983 q 673 918 586 983 q 760 721 760 853 q 695 548 760 618 q 508 467 631 478 l 792 0 l 669 0 l 400 457 l 233 457 l 233 0 m 383 -319 l 304 -319 l 390 -62 l 489 -62 l 383 -319 z "},"ŗ":{"ha":461,"x_min":28,"x_max":474,"o":"m 110 447 q 108 535 110 490 q 104 650 106 579 l 194 650 l 194 529 l 197 529 q 225 580 207 556 q 269 624 243 604 q 328 655 294 643 q 406 667 363 667 q 474 658 444 667 l 456 568 q 403 575 438 575 q 313 555 350 575 q 250 503 275 535 q 213 436 225 472 q 201 367 201 400 l 201 0 l 110 0 l 110 447 m 107 -319 l 28 -319 l 114 -62 l 213 -62 l 107 -319 z "},"Ř":{"ha":824,"x_min":133,"x_max":792,"o":"m 233 549 l 411 549 q 524 563 478 549 q 599 599 571 576 q 639 653 626 622 q 651 721 651 685 q 639 787 651 756 q 599 842 626 818 q 524 878 571 865 q 411 892 478 892 l 233 892 l 233 549 m 233 0 l 133 0 l 133 983 l 436 983 q 673 918 586 983 q 760 721 760 853 q 695 548 760 618 q 508 467 631 478 l 792 0 l 669 0 l 400 457 l 233 457 l 233 0 m 464 1056 l 353 1056 l 201 1256 l 293 1256 l 408 1106 l 524 1256 l 615 1256 l 464 1056 z "},"ř":{"ha":461,"x_min":42,"x_max":474,"o":"m 110 447 q 108 535 110 490 q 104 650 106 579 l 194 650 l 194 529 l 197 529 q 225 580 207 556 q 269 624 243 604 q 328 655 294 643 q 406 667 363 667 q 474 658 444 667 l 456 568 q 403 575 438 575 q 313 555 350 575 q 250 503 275 535 q 213 436 225 472 q 201 367 201 400 l 201 0 l 110 0 l 110 447 m 304 783 l 193 783 l 42 983 l 133 983 l 249 833 l 364 983 l 456 983 l 304 783 z "},"Ś":{"ha":772,"x_min":69,"x_max":703,"o":"m 599 821 q 408 917 533 917 q 332 906 369 917 q 265 874 294 896 q 217 819 235 853 q 199 739 199 785 q 236 635 199 672 q 329 575 274 599 q 451 533 385 551 q 572 483 517 514 q 665 400 628 451 q 703 260 703 349 q 674 140 703 193 q 599 50 646 86 q 495 -6 553 14 q 379 -25 438 -25 q 208 9 289 -25 q 69 121 126 43 l 160 186 q 249 99 192 132 q 383 67 306 67 q 458 78 421 67 q 526 113 496 90 q 575 169 556 136 q 594 246 594 203 q 573 331 594 297 q 516 388 551 365 q 435 426 481 411 q 342 457 390 442 q 249 492 294 472 q 169 541 204 511 q 112 616 133 571 q 90 729 90 661 q 117 853 90 800 q 190 940 144 906 q 292 992 235 975 q 408 1008 349 1008 q 560 982 492 1008 q 686 889 628 956 l 599 821 m 431 1056 l 349 1056 l 488 1256 l 614 1256 l 431 1056 z "},"ś":{"ha":592,"x_min":46,"x_max":549,"o":"m 444 496 q 389 560 424 536 q 304 583 354 583 q 256 578 281 583 q 213 560 232 572 q 181 531 193 549 q 169 486 169 513 q 201 419 169 440 q 297 383 233 399 l 390 361 q 503 299 458 346 q 549 183 549 253 q 527 92 549 131 q 470 30 506 54 q 389 -6 435 6 q 296 -17 343 -17 q 156 12 221 -17 q 46 110 92 40 l 125 164 q 195 93 153 119 q 296 67 238 67 q 351 73 324 67 q 401 92 379 79 q 435 126 422 106 q 449 175 449 147 q 413 245 449 224 q 325 279 376 267 l 236 300 q 191 314 219 304 q 135 343 163 324 q 89 394 108 363 q 69 471 69 425 q 90 558 69 521 q 144 619 110 596 q 221 655 178 643 q 310 667 264 667 q 436 640 378 667 q 526 550 494 614 l 444 496 m 329 783 l 247 783 l 386 983 l 513 983 l 329 783 z "},"Ŝ":{"ha":772,"x_min":69,"x_max":703,"o":"m 599 821 q 408 917 533 917 q 332 906 369 917 q 265 874 294 896 q 217 819 235 853 q 199 739 199 785 q 236 635 199 672 q 329 575 274 599 q 451 533 385 551 q 572 483 517 514 q 665 400 628 451 q 703 260 703 349 q 674 140 703 193 q 599 50 646 86 q 495 -6 553 14 q 379 -25 438 -25 q 208 9 289 -25 q 69 121 126 43 l 160 186 q 249 99 192 132 q 383 67 306 67 q 458 78 421 67 q 526 113 496 90 q 575 169 556 136 q 594 246 594 203 q 573 331 594 297 q 516 388 551 365 q 435 426 481 411 q 342 457 390 442 q 249 492 294 472 q 169 541 204 511 q 112 616 133 571 q 90 729 90 661 q 117 853 90 800 q 190 940 144 906 q 292 992 235 975 q 408 1008 349 1008 q 560 982 492 1008 q 686 889 628 956 l 599 821 m 622 1056 l 531 1056 l 415 1206 l 300 1056 l 208 1056 l 360 1256 l 471 1256 l 622 1056 z "},"ŝ":{"ha":592,"x_min":46,"x_max":549,"o":"m 444 496 q 389 560 424 536 q 304 583 354 583 q 256 578 281 583 q 213 560 232 572 q 181 531 193 549 q 169 486 169 513 q 201 419 169 440 q 297 383 233 399 l 390 361 q 503 299 458 346 q 549 183 549 253 q 527 92 549 131 q 470 30 506 54 q 389 -6 435 6 q 296 -17 343 -17 q 156 12 221 -17 q 46 110 92 40 l 125 164 q 195 93 153 119 q 296 67 238 67 q 351 73 324 67 q 401 92 379 79 q 435 126 422 106 q 449 175 449 147 q 413 245 449 224 q 325 279 376 267 l 236 300 q 191 314 219 304 q 135 343 163 324 q 89 394 108 363 q 69 471 69 425 q 90 558 69 521 q 144 619 110 596 q 221 655 178 643 q 310 667 264 667 q 436 640 378 667 q 526 550 494 614 l 444 496 m 506 783 l 414 783 l 299 933 l 183 783 l 92 783 l 243 983 l 354 983 l 506 783 z "},"Ş":{"ha":772,"x_min":69,"x_max":703,"o":"m 371 -83 l 374 -85 q 397 -78 385 -81 q 424 -75 408 -75 q 498 -102 465 -75 q 531 -179 531 -129 q 516 -235 531 -211 q 478 -273 501 -258 q 427 -294 456 -287 q 371 -301 399 -301 q 236 -268 299 -301 l 258 -218 q 361 -243 306 -243 q 419 -229 392 -243 q 447 -181 447 -215 q 444 -165 447 -175 q 435 -147 442 -156 q 414 -131 428 -137 q 379 -125 400 -125 q 344 -129 360 -125 q 315 -140 329 -133 l 290 -117 l 358 -24 q 207 8 279 -21 q 69 121 126 43 l 160 186 q 249 99 192 132 q 383 67 306 67 q 458 78 421 67 q 526 113 496 90 q 575 169 556 136 q 594 246 594 203 q 573 331 594 297 q 516 388 551 365 q 435 426 481 411 q 342 457 390 442 q 249 492 294 472 q 169 541 204 511 q 112 616 133 571 q 90 729 90 661 q 117 853 90 800 q 190 940 144 906 q 292 992 235 975 q 408 1008 349 1008 q 560 982 492 1008 q 686 889 628 956 l 599 821 q 408 917 533 917 q 332 906 369 917 q 265 874 294 896 q 217 819 235 853 q 199 739 199 785 q 236 635 199 672 q 329 575 274 599 q 451 533 385 551 q 572 483 517 514 q 665 400 628 451 q 703 260 703 349 q 674 140 703 193 q 599 50 646 86 q 494 -6 553 14 q 415 -22 456 -18 l 371 -83 z "},"ş":{"ha":592,"x_min":46,"x_max":549,"o":"m 286 -83 l 289 -85 q 312 -78 300 -81 q 339 -75 324 -75 q 413 -102 381 -75 q 446 -179 446 -129 q 431 -235 446 -211 q 394 -273 417 -258 q 342 -294 371 -287 q 286 -301 314 -301 q 151 -268 214 -301 l 174 -218 q 276 -243 221 -243 q 335 -229 307 -243 q 363 -181 363 -215 q 360 -165 363 -175 q 350 -147 357 -156 q 329 -131 343 -137 q 294 -125 315 -125 q 260 -129 275 -125 q 231 -140 244 -133 l 206 -117 l 279 -17 q 156 11 213 -12 q 46 110 92 40 l 125 164 q 195 93 153 119 q 296 67 238 67 q 351 73 324 67 q 401 92 379 79 q 435 126 422 106 q 449 175 449 147 q 413 245 449 224 q 325 279 376 267 l 236 300 q 191 314 219 304 q 135 343 163 324 q 89 394 108 363 q 69 471 69 425 q 90 558 69 521 q 144 619 110 596 q 221 655 178 643 q 310 667 264 667 q 436 640 378 667 q 526 550 494 614 l 444 496 q 389 560 424 536 q 304 583 354 583 q 256 578 281 583 q 213 560 232 572 q 181 531 193 549 q 169 486 169 513 q 201 419 169 440 q 297 383 233 399 l 390 361 q 503 299 458 346 q 549 183 549 253 q 527 92 549 131 q 470 30 506 54 q 389 -6 435 6 q 338 -14 363 -11 l 286 -83 z "},"Š":{"ha":772,"x_min":69,"x_max":703,"o":"m 599 821 q 408 917 533 917 q 332 906 369 917 q 265 874 294 896 q 217 819 235 853 q 199 739 199 785 q 236 635 199 672 q 329 575 274 599 q 451 533 385 551 q 572 483 517 514 q 665 400 628 451 q 703 260 703 349 q 674 140 703 193 q 599 50 646 86 q 495 -6 553 14 q 379 -25 438 -25 q 208 9 289 -25 q 69 121 126 43 l 160 186 q 249 99 192 132 q 383 67 306 67 q 458 78 421 67 q 526 113 496 90 q 575 169 556 136 q 594 246 594 203 q 573 331 594 297 q 516 388 551 365 q 435 426 481 411 q 342 457 390 442 q 249 492 294 472 q 169 541 204 511 q 112 616 133 571 q 90 729 90 661 q 117 853 90 800 q 190 940 144 906 q 292 992 235 975 q 408 1008 349 1008 q 560 982 492 1008 q 686 889 628 956 l 599 821 m 442 1026 l 331 1026 l 179 1226 l 271 1226 l 386 1076 l 501 1226 l 593 1226 l 442 1026 z "},"š":{"ha":592,"x_min":46,"x_max":549,"o":"m 444 496 q 389 560 424 536 q 304 583 354 583 q 256 578 281 583 q 213 560 232 572 q 181 531 193 549 q 169 486 169 513 q 201 419 169 440 q 297 383 233 399 l 390 361 q 503 299 458 346 q 549 183 549 253 q 527 92 549 131 q 470 30 506 54 q 389 -6 435 6 q 296 -17 343 -17 q 156 12 221 -17 q 46 110 92 40 l 125 164 q 195 93 153 119 q 296 67 238 67 q 351 73 324 67 q 401 92 379 79 q 435 126 422 106 q 449 175 449 147 q 413 245 449 224 q 325 279 376 267 l 236 300 q 191 314 219 304 q 135 343 163 324 q 89 394 108 363 q 69 471 69 425 q 90 558 69 521 q 144 619 110 596 q 221 655 178 643 q 310 667 264 667 q 436 640 378 667 q 526 550 494 614 l 444 496 m 351 783 l 240 783 l 89 983 l 181 983 l 296 833 l 411 983 l 503 983 l 351 783 z "},"Ţ":{"ha":797,"x_min":19,"x_max":778,"o":"m 449 0 l 349 0 l 349 892 l 19 892 l 19 983 l 778 983 l 778 892 l 449 892 l 449 0 m 356 -319 l 276 -319 l 363 -62 l 461 -62 l 356 -319 z "},"ţ":{"ha":461,"x_min":19,"x_max":442,"o":"m 436 567 l 249 567 l 249 183 q 256 124 249 147 q 275 89 263 101 q 305 72 288 76 q 343 67 322 67 q 392 74 367 67 q 438 92 417 81 l 442 7 q 318 -17 390 -17 q 263 -10 292 -17 q 211 17 235 -3 q 172 69 188 36 q 157 157 157 103 l 157 567 l 19 567 l 19 650 l 157 650 l 157 833 l 249 833 l 249 650 l 436 650 l 436 567 m 224 -319 l 144 -319 l 231 -62 l 329 -62 l 224 -319 z "},"Ť":{"ha":797,"x_min":19,"x_max":778,"o":"m 449 0 l 349 0 l 349 892 l 19 892 l 19 983 l 778 983 l 778 892 l 449 892 l 449 0 m 454 1056 l 343 1056 l 192 1256 l 283 1256 l 399 1106 l 514 1256 l 606 1256 l 454 1056 z "},"ť":{"ha":461,"x_min":19,"x_max":518,"o":"m 436 567 l 249 567 l 249 183 q 256 124 249 147 q 275 89 263 101 q 305 72 288 76 q 343 67 322 67 q 392 74 367 67 q 438 92 417 81 l 442 7 q 318 -17 390 -17 q 263 -10 292 -17 q 211 17 235 -3 q 172 69 188 36 q 157 157 157 103 l 157 567 l 19 567 l 19 650 l 157 650 l 157 833 l 249 833 l 249 650 l 436 650 l 436 567 m 413 726 l 333 726 l 419 983 l 518 983 l 413 726 z "},"Ŧ":{"ha":797,"x_min":19,"x_max":778,"o":"m 753 560 l 449 560 l 449 0 l 349 0 l 349 560 l 44 560 l 44 643 l 349 643 l 349 892 l 19 892 l 19 983 l 778 983 l 778 892 l 449 892 l 449 643 l 753 643 l 753 560 z "},"ŧ":{"ha":461,"x_min":19,"x_max":442,"o":"m 436 567 l 249 567 l 249 425 l 408 425 l 408 351 l 249 351 l 249 183 q 256 124 249 147 q 275 89 263 101 q 305 72 288 76 q 343 67 322 67 q 392 74 367 67 q 438 92 417 81 l 442 7 q 318 -17 390 -17 q 263 -10 292 -17 q 211 17 235 -3 q 172 69 188 36 q 157 157 157 103 l 157 351 l 49 351 l 49 425 l 157 425 l 157 567 l 19 567 l 19 650 l 157 650 l 157 833 l 249 833 l 249 650 l 436 650 l 436 567 z "},"Ũ":{"ha":953,"x_min":117,"x_max":836,"o":"m 836 367 q 822 237 836 306 q 767 110 807 168 q 656 13 726 51 q 476 -25 586 -25 q 296 13 365 -25 q 186 110 226 51 q 131 237 146 168 q 117 367 117 306 l 117 983 l 217 983 l 217 378 q 231 256 217 307 q 267 171 244 206 q 319 116 290 136 q 376 85 347 96 q 431 70 404 74 q 476 67 457 67 q 522 70 494 67 q 577 85 549 74 q 634 116 606 96 q 685 171 663 136 q 722 256 708 206 q 736 378 736 307 l 736 983 l 836 983 l 836 367 m 264 1071 q 277 1124 268 1097 q 301 1170 286 1150 q 338 1203 317 1190 q 392 1215 360 1215 q 442 1206 417 1215 q 493 1183 468 1196 q 542 1162 518 1172 q 586 1151 565 1151 q 633 1173 618 1151 q 654 1221 647 1194 l 714 1221 q 701 1167 710 1193 q 676 1122 692 1142 q 639 1089 661 1101 q 586 1076 617 1076 q 535 1087 561 1076 q 485 1108 510 1097 q 438 1131 461 1121 q 392 1140 414 1140 q 345 1119 360 1140 q 324 1071 331 1097 l 264 1071 z "},"ũ":{"ha":772,"x_min":100,"x_max":664,"o":"m 569 0 q 566 52 567 26 q 565 104 565 78 l 563 104 q 524 56 547 78 q 471 17 500 33 q 409 -8 442 1 q 344 -17 376 -17 q 160 49 219 -17 q 100 238 100 115 l 100 650 l 192 650 l 192 290 q 200 194 192 236 q 228 124 208 153 q 283 81 249 96 q 368 67 317 67 q 407 72 375 67 q 474 103 439 78 q 538 178 510 128 q 565 317 565 228 l 565 650 l 657 650 l 657 143 q 659 76 657 117 q 664 0 661 36 l 569 0 m 161 800 q 174 853 165 826 q 199 899 183 879 q 235 932 214 919 q 289 944 257 944 q 340 935 314 944 q 390 913 365 925 q 439 891 415 901 q 483 881 463 881 q 530 902 515 881 q 551 950 544 924 l 611 950 q 598 897 607 922 q 574 851 589 871 q 536 818 558 831 q 483 806 514 806 q 433 816 458 806 q 382 838 407 826 q 335 860 358 850 q 289 869 311 869 q 242 848 257 869 q 221 800 228 826 l 161 800 z "},"Ū":{"ha":953,"x_min":117,"x_max":836,"o":"m 836 367 q 822 237 836 306 q 767 110 807 168 q 656 13 726 51 q 476 -25 586 -25 q 296 13 365 -25 q 186 110 226 51 q 131 237 146 168 q 117 367 117 306 l 117 983 l 217 983 l 217 378 q 231 256 217 307 q 267 171 244 206 q 319 116 290 136 q 376 85 347 96 q 431 70 404 74 q 476 67 457 67 q 522 70 494 67 q 577 85 549 74 q 634 116 606 96 q 685 171 663 136 q 722 256 708 206 q 736 378 736 307 l 736 983 l 836 983 l 836 367 m 667 1099 l 292 1099 l 292 1174 l 667 1174 l 667 1099 z "},"ū":{"ha":772,"x_min":100,"x_max":664,"o":"m 569 0 q 566 52 567 26 q 565 104 565 78 l 563 104 q 524 56 547 78 q 471 17 500 33 q 409 -8 442 1 q 344 -17 376 -17 q 160 49 219 -17 q 100 238 100 115 l 100 650 l 192 650 l 192 290 q 200 194 192 236 q 228 124 208 153 q 283 81 249 96 q 368 67 317 67 q 407 72 375 67 q 474 103 439 78 q 538 178 510 128 q 565 317 565 228 l 565 650 l 657 650 l 657 143 q 659 76 657 117 q 664 0 661 36 l 569 0 m 568 833 l 193 833 l 193 908 l 568 908 l 568 833 z "},"Ŭ":{"ha":953,"x_min":117,"x_max":836,"o":"m 836 367 q 822 237 836 306 q 767 110 807 168 q 656 13 726 51 q 476 -25 586 -25 q 296 13 365 -25 q 186 110 226 51 q 131 237 146 168 q 117 367 117 306 l 117 983 l 217 983 l 217 378 q 231 256 217 307 q 267 171 244 206 q 319 116 290 136 q 376 85 347 96 q 431 70 404 74 q 476 67 457 67 q 522 70 494 67 q 577 85 549 74 q 634 116 606 96 q 685 171 663 136 q 722 256 708 206 q 736 378 736 307 l 736 983 l 836 983 l 836 367 m 683 1247 q 622 1112 678 1160 q 479 1064 565 1064 q 337 1112 393 1064 q 275 1247 281 1160 l 336 1247 q 386 1166 346 1193 q 479 1139 426 1139 q 572 1166 532 1139 q 622 1247 613 1193 l 683 1247 z "},"ŭ":{"ha":772,"x_min":100,"x_max":664,"o":"m 569 0 q 566 52 567 26 q 565 104 565 78 l 563 104 q 524 56 547 78 q 471 17 500 33 q 409 -8 442 1 q 344 -17 376 -17 q 160 49 219 -17 q 100 238 100 115 l 100 650 l 192 650 l 192 290 q 200 194 192 236 q 228 124 208 153 q 283 81 249 96 q 368 67 317 67 q 407 72 375 67 q 474 103 439 78 q 538 178 510 128 q 565 317 565 228 l 565 650 l 657 650 l 657 143 q 659 76 657 117 q 664 0 661 36 l 569 0 m 588 983 q 526 848 582 896 q 383 800 469 800 q 241 848 297 800 q 179 983 185 896 l 240 983 q 290 902 250 929 q 383 875 331 875 q 476 902 436 875 q 526 983 517 929 l 588 983 z "},"Ů":{"ha":953,"x_min":117,"x_max":836,"o":"m 836 367 q 822 237 836 306 q 767 110 807 168 q 656 13 726 51 q 476 -25 586 -25 q 296 13 365 -25 q 186 110 226 51 q 131 237 146 168 q 117 367 117 306 l 117 983 l 217 983 l 217 378 q 231 256 217 307 q 267 171 244 206 q 319 116 290 136 q 376 85 347 96 q 431 70 404 74 q 476 67 457 67 q 522 70 494 67 q 577 85 549 74 q 634 116 606 96 q 685 171 663 136 q 722 256 708 206 q 736 378 736 307 l 736 983 l 836 983 l 836 367 m 565 1160 q 541 1218 565 1194 q 482 1242 517 1242 q 423 1218 447 1242 q 399 1160 399 1194 q 423 1101 399 1125 q 482 1078 447 1078 q 541 1101 517 1078 q 565 1160 565 1125 m 615 1160 q 605 1108 615 1132 q 576 1065 594 1083 q 533 1038 557 1047 q 482 1028 508 1028 q 431 1038 454 1028 q 388 1065 407 1047 q 359 1108 369 1083 q 349 1160 349 1132 q 359 1212 349 1188 q 388 1253 369 1236 q 431 1281 407 1271 q 482 1292 454 1292 q 533 1281 508 1292 q 576 1253 557 1271 q 605 1212 594 1236 q 615 1160 615 1188 z "},"ů":{"ha":772,"x_min":100,"x_max":664,"o":"m 569 0 q 566 52 567 26 q 565 104 565 78 l 563 104 q 524 56 547 78 q 471 17 500 33 q 409 -8 442 1 q 344 -17 376 -17 q 160 49 219 -17 q 100 238 100 115 l 100 650 l 192 650 l 192 290 q 200 194 192 236 q 228 124 208 153 q 283 81 249 96 q 368 67 317 67 q 407 72 375 67 q 474 103 439 78 q 538 178 510 128 q 565 317 565 228 l 565 650 l 657 650 l 657 143 q 659 76 657 117 q 664 0 661 36 l 569 0 m 463 903 q 438 961 463 938 q 379 985 414 985 q 320 961 344 985 q 296 903 296 938 q 320 844 296 868 q 379 821 344 821 q 438 844 414 821 q 463 903 463 868 m 513 903 q 502 851 513 875 q 473 808 492 826 q 430 781 454 790 q 379 771 406 771 q 328 781 351 771 q 285 808 304 790 q 256 851 267 826 q 246 903 246 875 q 256 955 246 931 q 285 997 267 979 q 328 1024 304 1014 q 379 1035 351 1035 q 430 1024 406 1035 q 473 997 454 1014 q 502 955 492 979 q 513 903 513 931 z "},"Ű":{"ha":953,"x_min":117,"x_max":836,"o":"m 836 367 q 822 237 836 306 q 767 110 807 168 q 656 13 726 51 q 476 -25 586 -25 q 296 13 365 -25 q 186 110 226 51 q 131 237 146 168 q 117 367 117 306 l 117 983 l 217 983 l 217 378 q 231 256 217 307 q 267 171 244 206 q 319 116 290 136 q 376 85 347 96 q 431 70 404 74 q 476 67 457 67 q 522 70 494 67 q 577 85 549 74 q 634 116 606 96 q 685 171 663 136 q 722 256 708 206 q 736 378 736 307 l 736 983 l 836 983 l 836 367 m 629 1056 l 547 1056 l 686 1256 l 813 1256 l 629 1056 m 350 1056 l 268 1056 l 408 1256 l 535 1256 l 350 1056 z "},"ű":{"ha":772,"x_min":100,"x_max":736,"o":"m 569 0 q 566 52 567 26 q 565 104 565 78 l 563 104 q 524 56 547 78 q 471 17 500 33 q 409 -8 442 1 q 344 -17 376 -17 q 160 49 219 -17 q 100 238 100 115 l 100 650 l 192 650 l 192 290 q 200 194 192 236 q 228 124 208 153 q 283 81 249 96 q 368 67 317 67 q 407 72 375 67 q 474 103 439 78 q 538 178 510 128 q 565 317 565 228 l 565 650 l 657 650 l 657 143 q 659 76 657 117 q 664 0 661 36 l 569 0 m 553 783 l 471 783 l 610 983 l 736 983 l 553 783 m 274 783 l 192 783 l 332 983 l 458 983 l 274 783 z "},"Ų":{"ha":953,"x_min":117,"x_max":836,"o":"m 618 -251 q 561 -288 594 -275 q 493 -301 528 -301 q 446 -293 468 -301 q 406 -269 424 -285 q 378 -231 389 -253 q 368 -183 368 -210 q 379 -127 368 -154 q 408 -76 390 -100 q 449 -29 426 -51 l 453 -25 q 296 13 358 -21 q 186 110 226 51 q 131 237 146 168 q 117 367 117 306 l 117 983 l 217 983 l 217 378 q 231 256 217 307 q 267 171 244 206 q 319 116 290 136 q 376 85 347 96 q 431 70 404 74 q 476 67 457 67 q 522 70 494 67 q 577 85 549 74 q 634 116 606 96 q 685 171 663 136 q 722 256 708 206 q 736 378 736 307 l 736 983 l 836 983 l 836 367 q 822 237 836 306 q 767 110 807 168 q 656 13 726 51 q 528 -22 603 -15 q 479 -81 497 -56 q 451 -160 451 -119 q 472 -208 451 -189 q 521 -226 493 -226 q 559 -219 540 -226 q 592 -196 578 -211 l 618 -251 z "},"ų":{"ha":772,"x_min":100,"x_max":710,"o":"m 710 -251 q 653 -288 686 -275 q 585 -301 619 -301 q 538 -293 560 -301 q 498 -269 515 -285 q 470 -231 481 -253 q 460 -183 460 -210 q 471 -127 460 -154 q 500 -76 482 -100 q 540 -29 518 -51 q 572 0 557 -14 l 569 0 q 566 52 567 26 q 565 104 565 78 l 563 104 q 524 56 547 78 q 471 17 500 33 q 409 -8 442 1 q 344 -17 376 -17 q 160 49 219 -17 q 100 238 100 115 l 100 650 l 192 650 l 192 290 q 200 194 192 236 q 228 124 208 153 q 283 81 249 96 q 368 67 317 67 q 407 72 375 67 q 474 103 439 78 q 538 178 510 128 q 565 317 565 228 l 565 650 l 657 650 l 657 143 q 659 76 657 117 q 664 0 661 36 l 642 0 q 571 -81 596 -46 q 543 -160 543 -119 q 564 -208 543 -189 q 613 -226 585 -226 q 651 -219 632 -226 q 683 -196 669 -211 l 710 -251 z "},"Ŵ":{"ha":1311,"x_min":0,"x_max":1311,"o":"m 347 142 l 350 142 l 597 983 l 717 983 l 964 142 l 967 142 l 1200 983 l 1311 983 l 1021 0 l 904 0 l 657 842 l 654 842 l 407 0 l 290 0 l 0 983 l 111 983 l 347 142 m 864 1056 l 772 1056 l 657 1206 l 542 1056 l 450 1056 l 601 1256 l 713 1256 l 864 1056 z "},"ŵ":{"ha":1003,"x_min":19,"x_max":983,"o":"m 128 650 l 278 122 l 281 122 l 454 650 l 549 650 l 722 122 l 725 122 l 875 650 l 983 650 l 778 0 l 675 0 l 503 533 l 500 533 l 328 0 l 225 0 l 19 650 l 128 650 m 708 783 l 617 783 l 501 933 l 386 783 l 294 783 l 446 983 l 557 983 l 708 783 z "},"Ŷ":{"ha":797,"x_min":-19,"x_max":817,"o":"m 449 0 l 349 0 l 349 424 l -19 983 l 106 983 l 399 519 l 692 983 l 817 983 l 449 424 l 449 0 m 606 1056 l 514 1056 l 399 1206 l 283 1056 l 192 1056 l 343 1256 l 454 1256 l 606 1056 z "},"ŷ":{"ha":669,"x_min":22,"x_max":651,"o":"m 342 113 l 540 650 l 651 650 l 326 -169 q 252 -289 297 -244 q 122 -333 207 -333 q 80 -332 101 -333 q 38 -324 58 -331 l 47 -235 q 117 -250 76 -250 q 193 -219 165 -250 q 242 -133 221 -189 l 289 -8 l 22 650 l 138 650 l 342 113 m 539 783 l 447 783 l 332 933 l 217 783 l 125 783 l 276 983 l 388 983 l 539 783 z "},"Ÿ":{"ha":797,"x_min":-19,"x_max":817,"o":"m 449 0 l 349 0 l 349 424 l -19 983 l 106 983 l 399 519 l 692 983 l 817 983 l 449 424 l 449 0 m 461 1142 q 481 1191 461 1169 q 532 1213 500 1213 q 583 1191 564 1213 q 603 1142 603 1169 q 583 1092 603 1114 q 532 1071 564 1071 q 481 1092 500 1071 q 461 1142 461 1114 m 194 1142 q 214 1191 194 1169 q 265 1213 233 1213 q 317 1191 297 1213 q 336 1142 336 1169 q 317 1092 336 1114 q 265 1071 297 1071 q 214 1092 233 1071 q 194 1142 194 1114 z "},"Ź":{"ha":772,"x_min":32,"x_max":740,"o":"m 732 900 l 158 92 l 740 92 l 740 0 l 32 0 l 32 83 l 607 892 l 40 892 l 40 983 l 732 983 l 732 900 m 381 1056 l 299 1056 l 438 1256 l 564 1256 l 381 1056 z "},"ź":{"ha":592,"x_min":32,"x_max":560,"o":"m 546 583 l 165 83 l 560 83 l 560 0 l 32 0 l 32 67 l 413 567 l 51 567 l 51 650 l 546 650 l 546 583 m 300 783 l 218 783 l 357 983 l 483 983 l 300 783 z "},"Ż":{"ha":772,"x_min":32,"x_max":740,"o":"m 732 900 l 158 92 l 740 92 l 740 0 l 32 0 l 32 83 l 607 892 l 40 892 l 40 983 l 732 983 l 732 900 m 301 1135 q 321 1184 301 1163 q 372 1206 340 1206 q 424 1184 404 1206 q 443 1135 443 1163 q 424 1085 443 1107 q 372 1064 404 1064 q 321 1085 340 1064 q 301 1135 301 1107 z "},"ż":{"ha":592,"x_min":32,"x_max":560,"o":"m 546 583 l 165 83 l 560 83 l 560 0 l 32 0 l 32 67 l 413 567 l 51 567 l 51 650 l 546 650 l 546 583 m 225 913 q 244 962 225 940 q 296 983 264 983 q 347 962 328 983 q 367 913 367 940 q 347 863 367 885 q 296 842 328 842 q 244 863 264 842 q 225 913 225 885 z "},"Ž":{"ha":772,"x_min":32,"x_max":740,"o":"m 732 900 l 158 92 l 740 92 l 740 0 l 32 0 l 32 83 l 607 892 l 40 892 l 40 983 l 732 983 l 732 900 m 442 1026 l 331 1026 l 179 1226 l 271 1226 l 386 1076 l 501 1226 l 593 1226 l 442 1026 z "},"ž":{"ha":592,"x_min":32,"x_max":560,"o":"m 546 583 l 165 83 l 560 83 l 560 0 l 32 0 l 32 67 l 413 567 l 51 567 l 51 650 l 546 650 l 546 583 m 351 783 l 240 783 l 89 983 l 181 983 l 296 833 l 411 983 l 503 983 l 351 783 z "},"ƒ":{"ha":772,"x_min":0,"x_max":719,"o":"m 588 507 l 422 507 l 329 18 q 308 -57 322 -19 q 270 -125 294 -94 q 208 -174 246 -156 q 114 -193 169 -193 q 53 -185 83 -193 q 0 -160 24 -178 l 44 -93 q 79 -106 60 -101 q 117 -110 99 -110 q 169 -97 149 -110 q 203 -62 190 -83 q 224 -15 217 -42 q 236 38 232 11 l 324 507 l 174 507 l 174 582 l 339 582 l 376 782 q 399 864 385 825 q 438 933 413 903 q 499 982 463 964 q 588 1000 535 1000 q 719 960 660 1000 l 672 893 q 634 910 654 904 q 593 917 614 917 q 536 900 558 917 q 500 858 514 883 q 479 806 486 833 q 468 756 472 778 l 438 582 l 588 582 l 588 507 z "},"Ș":{"ha":772,"x_min":69,"x_max":703,"o":"m 599 821 q 408 917 533 917 q 332 906 369 917 q 265 874 294 896 q 217 819 235 853 q 199 739 199 785 q 236 635 199 672 q 329 575 274 599 q 451 533 385 551 q 572 483 517 514 q 665 400 628 451 q 703 260 703 349 q 674 140 703 193 q 599 50 646 86 q 495 -6 553 14 q 379 -25 438 -25 q 208 9 289 -25 q 69 121 126 43 l 160 186 q 249 99 192 132 q 383 67 306 67 q 458 78 421 67 q 526 113 496 90 q 575 169 556 136 q 594 246 594 203 q 573 331 594 297 q 516 388 551 365 q 435 426 481 411 q 342 457 390 442 q 249 492 294 472 q 169 541 204 511 q 112 616 133 571 q 90 729 90 661 q 117 853 90 800 q 190 940 144 906 q 292 992 235 975 q 408 1008 349 1008 q 560 982 492 1008 q 686 889 628 956 l 599 821 m 354 -319 l 275 -319 l 361 -62 l 460 -62 l 354 -319 z "},"ș":{"ha":592,"x_min":46,"x_max":549,"o":"m 444 496 q 389 560 424 536 q 304 583 354 583 q 256 578 281 583 q 213 560 232 572 q 181 531 193 549 q 169 486 169 513 q 201 419 169 440 q 297 383 233 399 l 390 361 q 503 299 458 346 q 549 183 549 253 q 527 92 549 131 q 470 30 506 54 q 389 -6 435 6 q 296 -17 343 -17 q 156 12 221 -17 q 46 110 92 40 l 125 164 q 195 93 153 119 q 296 67 238 67 q 351 73 324 67 q 401 92 379 79 q 435 126 422 106 q 449 175 449 147 q 413 245 449 224 q 325 279 376 267 l 236 300 q 191 314 219 304 q 135 343 163 324 q 89 394 108 363 q 69 471 69 425 q 90 558 69 521 q 144 619 110 596 q 221 655 178 643 q 310 667 264 667 q 436 640 378 667 q 526 550 494 614 l 444 496 m 263 -319 l 183 -319 l 269 -62 l 368 -62 l 263 -319 z "},"Ț":{"ha":797,"x_min":19,"x_max":778,"o":"m 449 0 l 349 0 l 349 892 l 19 892 l 19 983 l 778 983 l 778 892 l 449 892 l 449 0 m 356 -319 l 276 -319 l 363 -62 l 461 -62 l 356 -319 z "},"ț":{"ha":461,"x_min":19,"x_max":442,"o":"m 436 567 l 249 567 l 249 183 q 256 124 249 147 q 275 89 263 101 q 305 72 288 76 q 343 67 322 67 q 392 74 367 67 q 438 92 417 81 l 442 7 q 318 -17 390 -17 q 263 -10 292 -17 q 211 17 235 -3 q 172 69 188 36 q 157 157 157 103 l 157 567 l 19 567 l 19 650 l 157 650 l 157 833 l 249 833 l 249 650 l 436 650 l 436 567 m 224 -319 l 144 -319 l 231 -62 l 329 -62 l 224 -319 z "},"ˆ":{"ha":333,"x_min":-40,"x_max":374,"o":"m 374 783 l 282 783 l 167 933 l 51 783 l -40 783 l 111 983 l 222 983 l 374 783 z "},"ˇ":{"ha":333,"x_min":-40,"x_max":374,"o":"m 222 783 l 111 783 l -40 983 l 51 983 l 167 833 l 282 983 l 374 983 l 222 783 z "},"ˉ":{"ha":333,"x_min":-21,"x_max":354,"o":"m 354 833 l -21 833 l -21 908 l 354 908 l 354 833 z "},"˘":{"ha":333,"x_min":-37,"x_max":371,"o":"m 371 983 q 309 848 365 896 q 167 800 253 800 q 24 848 81 800 q -37 983 -32 896 l 24 983 q 74 902 33 929 q 167 875 114 875 q 260 902 219 875 q 310 983 300 929 l 371 983 z "},"˙":{"ha":333,"x_min":96,"x_max":238,"o":"m 96 913 q 115 962 96 940 q 167 983 135 983 q 218 962 199 983 q 238 913 238 940 q 218 863 238 885 q 167 842 199 842 q 115 863 135 842 q 96 913 96 885 z "},"˚":{"ha":333,"x_min":33,"x_max":300,"o":"m 250 903 q 226 961 250 938 q 167 985 201 985 q 108 961 132 985 q 83 903 83 938 q 108 844 83 868 q 167 821 132 821 q 226 844 201 821 q 250 903 250 868 m 300 903 q 290 851 300 875 q 260 808 279 826 q 217 781 242 790 q 167 771 193 771 q 115 781 139 771 q 73 808 92 790 q 44 851 54 826 q 33 903 33 875 q 44 955 33 931 q 73 997 54 979 q 115 1024 92 1014 q 167 1035 139 1035 q 217 1024 193 1035 q 260 997 242 1014 q 290 955 279 979 q 300 903 300 931 z "},"˛":{"ha":333,"x_min":42,"x_max":292,"o":"m 292 -251 q 235 -288 268 -275 q 167 -301 201 -301 q 119 -293 142 -301 q 80 -269 97 -285 q 52 -231 63 -253 q 42 -183 42 -210 q 53 -127 42 -154 q 82 -76 64 -100 q 122 -30 100 -51 q 165 8 144 -8 l 232 8 q 153 -81 181 -43 q 125 -160 125 -119 q 146 -208 125 -189 q 194 -226 167 -226 q 233 -219 214 -226 q 265 -196 251 -211 l 292 -251 z "},"˜":{"ha":333,"x_min":-58,"x_max":392,"o":"m -58 800 q -45 853 -54 826 q -21 899 -36 879 q 16 932 -6 919 q 69 944 38 944 q 120 935 94 944 q 171 913 146 925 q 219 891 196 901 q 264 881 243 881 q 310 902 296 881 q 332 950 325 924 l 392 950 q 378 897 388 922 q 354 851 369 871 q 317 818 339 831 q 264 806 294 806 q 213 816 239 806 q 163 838 188 826 q 115 860 139 850 q 69 869 92 869 q 23 848 38 869 q 1 800 8 826 l -58 800 z "},"˝":{"ha":333,"x_min":-106,"x_max":439,"o":"m 256 783 l 174 783 l 313 983 l 439 983 l 256 783 m -24 783 l -106 783 l 35 983 l 161 983 l -24 783 z "},"Δ":{"ha":931,"x_min":21,"x_max":913,"o":"m 21 0 l 411 989 l 514 989 l 913 0 l 21 0 m 461 896 l 147 86 l 779 86 l 461 896 z "},"Ω":{"ha":1033,"x_min":65,"x_max":951,"o":"m 603 0 l 603 251 q 713 291 665 263 q 794 363 761 319 q 842 460 826 406 q 858 576 858 514 q 831 714 858 651 q 757 822 804 776 q 646 892 710 867 q 508 917 582 917 q 371 891 435 917 q 260 820 307 865 q 185 713 213 775 q 158 576 158 650 q 174 460 158 515 q 223 363 190 406 q 303 290 256 319 q 414 251 351 261 l 414 0 l 65 0 l 65 81 l 339 81 l 339 194 q 223 250 274 213 q 137 338 172 288 q 83 450 101 389 q 65 578 65 511 q 101 749 65 671 q 197 883 136 826 q 339 970 258 939 q 510 1001 419 1001 q 680 970 600 1001 q 820 883 760 939 q 916 749 881 826 q 951 579 951 671 q 933 451 951 513 q 881 338 915 389 q 795 250 846 288 q 678 194 744 213 l 678 81 l 951 81 l 951 0 l 603 0 z "},"μ":{"ha":772,"x_min":100,"x_max":664,"o":"m 100 650 l 192 650 l 192 290 q 230 119 192 171 q 368 67 268 67 q 446 83 410 67 q 508 132 482 100 q 550 210 535 164 q 565 317 565 257 l 565 650 l 657 650 l 657 143 q 659 72 657 107 q 664 0 661 36 l 565 0 l 565 106 l 563 106 q 524 58 547 81 q 471 19 500 36 q 409 -7 442 3 q 344 -17 376 -17 q 192 24 249 -17 l 192 -317 l 100 -317 l 100 650 z "},"π":{"ha":782,"x_min":44,"x_max":736,"o":"m 736 15 q 692 -2 713 4 q 647 -8 672 -8 q 584 5 607 -8 q 551 41 561 18 q 538 93 540 64 q 536 154 536 122 l 536 568 l 231 568 l 231 0 l 142 0 l 142 568 l 44 568 l 44 650 l 731 650 l 731 568 l 625 568 l 625 144 q 633 92 625 114 q 678 69 640 69 q 736 83 706 69 l 736 15 l 736 15 z "},"–":{"ha":694,"x_min":0,"x_max":694,"o":"m 694 288 l 0 288 l 0 379 l 694 379 l 694 288 z "},"—":{"ha":1389,"x_min":0,"x_max":1389,"o":"m 1389 288 l 0 288 l 0 379 l 1389 379 l 1389 288 z "},"‘":{"ha":361,"x_min":78,"x_max":283,"o":"m 190 983 l 283 983 l 190 657 l 78 657 l 190 983 z "},"’":{"ha":361,"x_min":78,"x_max":283,"o":"m 171 657 l 78 657 l 171 983 l 283 983 l 171 657 z "},"‚":{"ha":361,"x_min":78,"x_max":283,"o":"m 171 -194 l 78 -194 l 171 132 l 283 132 l 171 -194 z "},"“":{"ha":721,"x_min":132,"x_max":589,"o":"m 496 983 l 589 983 l 496 657 l 383 657 l 496 983 m 244 983 l 338 983 l 244 657 l 132 657 l 244 983 z "},"”":{"ha":721,"x_min":132,"x_max":589,"o":"m 225 657 l 132 657 l 225 983 l 338 983 l 225 657 m 476 657 l 383 657 l 476 983 l 589 983 l 476 657 z "},"„":{"ha":721,"x_min":132,"x_max":589,"o":"m 225 -194 l 132 -194 l 225 132 l 338 132 l 225 -194 m 476 -194 l 383 -194 l 476 132 l 589 132 l 476 -194 z "},"†":{"ha":772,"x_min":57,"x_max":715,"o":"m 432 700 l 715 700 l 715 617 l 432 617 l 432 -175 l 340 -175 l 340 617 l 57 617 l 57 700 l 340 700 l 340 983 l 432 983 l 432 700 z "},"‡":{"ha":772,"x_min":69,"x_max":703,"o":"m 432 717 l 703 717 l 703 633 l 432 633 l 432 175 l 703 175 l 703 92 l 432 92 l 432 -175 l 340 -175 l 340 92 l 69 92 l 69 175 l 340 175 l 340 633 l 69 633 l 69 717 l 340 717 l 340 983 l 432 983 l 432 717 z "},"•":{"ha":694,"x_min":101,"x_max":593,"o":"m 101 492 q 121 588 101 543 q 174 665 140 632 q 251 718 207 699 q 347 738 296 738 q 443 718 399 738 q 521 665 488 699 q 574 588 554 632 q 593 492 593 543 q 574 396 593 440 q 521 318 554 351 q 443 265 488 285 q 347 246 399 246 q 251 265 296 246 q 174 318 207 285 q 121 396 140 351 q 101 492 101 440 z "},"…":{"ha":1389,"x_min":157,"x_max":1232,"o":"m 1232 67 q 1211 15 1232 38 q 1157 -8 1190 -8 q 1103 15 1124 -8 q 1082 67 1082 38 q 1103 119 1082 96 q 1157 142 1124 142 q 1211 119 1190 142 q 1232 67 1232 96 m 769 67 q 749 15 769 38 q 694 -8 728 -8 q 640 15 661 -8 q 619 67 619 38 q 640 119 619 96 q 694 142 661 142 q 749 119 728 142 q 769 67 769 96 m 307 67 q 286 15 307 38 q 232 -8 265 -8 q 178 15 199 -8 q 157 67 157 38 q 178 119 157 96 q 232 142 199 142 q 286 119 265 142 q 307 67 307 96 z "},"‰":{"ha":1389,"x_min":35,"x_max":1354,"o":"m 174 -43 l 101 -6 l 728 1026 l 799 989 l 174 -43 m 1279 197 q 1240 296 1279 256 q 1142 336 1200 336 q 1044 296 1083 336 q 1004 197 1004 256 q 1044 99 1004 139 q 1142 58 1083 58 q 1240 99 1200 58 q 1279 197 1279 139 m 1354 197 q 1338 114 1354 153 q 1292 46 1321 75 q 1225 0 1264 17 q 1142 -17 1186 -17 q 1058 0 1097 -17 q 991 46 1019 17 q 946 114 963 75 q 929 197 929 153 q 946 279 929 240 q 991 347 963 318 q 1058 394 1019 376 q 1142 411 1097 411 q 1225 394 1186 411 q 1292 347 1264 376 q 1338 279 1321 318 q 1354 197 1354 240 m 793 197 q 753 296 793 256 q 656 336 714 336 q 558 296 597 336 q 518 197 518 256 q 558 99 518 139 q 656 58 597 58 q 753 99 714 58 q 793 197 793 139 m 868 197 q 851 114 868 153 q 806 46 835 75 q 739 0 778 17 q 656 -17 700 -17 q 572 0 611 -17 q 505 46 533 17 q 460 114 476 75 q 443 197 443 153 q 460 279 443 240 q 505 347 476 318 q 572 394 533 376 q 656 411 611 411 q 739 394 700 411 q 806 347 778 376 q 851 279 835 318 q 868 197 868 240 m 385 786 q 345 885 385 844 q 247 925 306 925 q 149 885 189 925 q 110 786 110 844 q 149 688 110 728 q 247 647 189 647 q 345 688 306 647 q 385 786 385 728 m 460 786 q 443 703 460 742 q 398 635 426 664 q 331 589 369 606 q 247 572 292 572 q 164 589 203 572 q 97 635 125 606 q 51 703 68 664 q 35 786 35 742 q 51 868 35 829 q 97 936 68 907 q 164 983 125 965 q 247 1000 203 1000 q 331 983 292 1000 q 398 936 369 965 q 443 868 426 907 q 460 786 460 829 z "},"‹":{"ha":438,"x_min":82,"x_max":342,"o":"m 342 89 l 276 43 l 82 333 l 276 624 l 342 578 l 182 333 l 342 89 z "},"›":{"ha":438,"x_min":96,"x_max":356,"o":"m 96 578 l 161 624 l 356 333 l 161 43 l 96 89 l 256 333 l 96 578 z "},"⁄":{"ha":233,"x_min":-232,"x_max":465,"o":"m -232 0 l 394 1028 l 465 985 l -160 -44 l -232 0 z "},"€":{"ha":772,"x_min":32,"x_max":719,"o":"m 690 858 q 610 897 658 882 q 504 913 563 913 q 246 660 296 913 l 639 660 l 615 582 l 233 582 q 229 476 229 532 q 230 438 229 457 q 232 400 231 419 l 565 400 l 540 324 l 240 324 q 319 135 261 203 q 476 67 376 67 q 579 92 532 67 q 650 156 626 118 l 715 108 q 608 14 676 44 q 464 -17 539 -17 q 333 8 389 -17 q 237 78 276 33 q 172 186 197 124 q 136 324 147 249 l 32 324 l 60 400 l 128 400 q 126 440 126 419 q 125 481 125 460 q 129 582 125 533 l 33 582 l 61 660 l 140 660 q 273 917 175 835 q 506 1000 371 1000 q 624 983 564 1000 q 719 944 685 967 l 690 858 z "},"ℓ":{"ha":694,"x_min":100,"x_max":576,"o":"m 576 57 q 396 -19 494 -19 q 269 24 319 -19 q 219 158 219 68 l 219 317 l 139 231 l 136 231 l 100 282 l 219 399 l 219 758 q 233 862 219 817 q 272 938 247 907 q 328 985 296 969 q 399 1001 361 1001 q 508 954 465 1001 q 551 824 551 907 q 491 611 551 721 q 314 382 431 501 l 314 174 q 324 114 314 138 q 349 77 333 90 q 382 58 364 64 q 418 53 400 53 q 477 65 446 53 q 540 106 508 78 l 543 106 l 576 57 l 576 57 m 472 817 q 451 902 472 869 q 399 935 431 935 q 340 896 367 935 q 314 774 314 857 l 314 465 q 432 647 392 556 q 472 817 472 738 z "},"™":{"ha":1389,"x_min":100,"x_max":1289,"o":"m 1289 411 l 1206 411 l 1206 892 l 1203 892 l 1010 411 l 956 411 l 763 892 l 760 892 l 760 411 l 676 411 l 676 983 l 806 983 l 985 544 l 1164 983 l 1289 983 l 1289 411 m 557 908 l 372 908 l 372 411 l 289 411 l 289 908 l 100 908 l 100 983 l 557 983 l 557 908 z "},"Ω":{"ha":1033,"x_min":65,"x_max":951,"o":"m 603 0 l 603 251 q 713 291 665 263 q 794 363 761 319 q 842 460 826 406 q 858 576 858 514 q 831 714 858 651 q 757 822 804 776 q 646 892 710 867 q 508 917 582 917 q 371 891 435 917 q 260 820 307 865 q 185 713 213 775 q 158 576 158 650 q 174 460 158 515 q 223 363 190 406 q 303 290 256 319 q 414 251 351 261 l 414 0 l 65 0 l 65 81 l 339 81 l 339 194 q 223 250 274 213 q 137 338 172 288 q 83 450 101 389 q 65 578 65 511 q 101 749 65 671 q 197 883 136 826 q 339 970 258 939 q 510 1001 419 1001 q 680 970 600 1001 q 820 883 760 939 q 916 749 881 826 q 951 579 951 671 q 933 451 951 513 q 881 338 915 389 q 795 250 846 288 q 678 194 744 213 l 678 81 l 951 81 l 951 0 l 603 0 z "},"℮":{"ha":839,"x_min":61,"x_max":779,"o":"m 218 360 l 218 108 q 419 26 300 26 q 571 66 507 26 q 688 193 635 106 l 736 164 q 672 78 704 114 q 601 20 639 43 q 518 -13 563 -3 q 419 -24 474 -24 q 272 6 338 -24 q 158 88 206 36 q 86 210 111 140 q 61 360 61 279 q 86 510 61 440 q 158 632 111 581 q 272 713 206 683 q 419 743 338 743 q 566 715 500 743 q 679 635 632 686 q 753 515 726 585 q 779 360 779 444 l 218 360 m 622 410 l 622 611 q 418 694 535 694 q 218 611 301 694 l 218 410 l 622 410 z "},"∂":{"ha":689,"x_min":43,"x_max":632,"o":"m 632 504 q 621 337 632 428 q 576 167 610 246 q 481 36 543 89 q 319 -17 419 -17 q 203 9 254 -17 q 116 78 151 35 q 62 177 81 121 q 43 294 43 233 q 61 408 43 354 q 114 503 79 463 q 199 567 149 543 q 313 590 249 590 q 440 558 381 590 q 543 474 500 526 q 544 510 543 492 q 544 546 544 528 q 533 670 544 604 q 492 793 521 736 q 416 888 464 850 q 296 925 368 925 q 212 907 247 925 q 140 861 176 889 l 90 921 q 183 981 135 960 q 292 1001 232 1001 q 410 980 358 1001 q 499 921 461 958 q 562 834 536 883 q 603 729 588 785 q 625 616 618 674 q 632 504 632 558 m 536 386 q 443 474 499 436 q 321 513 388 513 q 238 494 274 513 q 178 446 203 476 q 142 375 154 415 q 131 292 131 335 q 142 208 131 250 q 178 133 154 167 q 238 78 203 99 q 321 57 274 57 q 421 90 381 57 q 486 174 461 124 q 522 281 511 224 q 536 386 533 339 z "},"∆":{"ha":931,"x_min":21,"x_max":913,"o":"m 21 0 l 411 989 l 514 989 l 913 0 l 21 0 m 461 896 l 147 86 l 779 86 l 461 896 z "},"∏":{"ha":988,"x_min":99,"x_max":890,"o":"m 799 -297 l 799 1006 l 190 1006 l 190 -297 l 99 -297 l 99 1092 l 890 1092 l 890 -297 l 799 -297 z "},"∑":{"ha":839,"x_min":35,"x_max":803,"o":"m 35 -297 l 35 -221 l 492 401 l 54 1014 l 54 1092 l 786 1092 l 786 1006 l 172 1006 l 601 401 l 146 -212 l 803 -212 l 803 -297 l 35 -297 z "},"−":{"ha":925,"x_min":108,"x_max":817,"o":"m 817 379 l 108 379 l 108 463 l 817 463 l 817 379 z "},"∕":{"ha":233,"x_min":-232,"x_max":465,"o":"m -232 0 l 394 1028 l 465 985 l -160 -44 l -232 0 z "},"∙":{"ha":386,"x_min":118,"x_max":268,"o":"m 268 436 q 247 384 268 407 q 193 361 226 361 q 139 384 160 361 q 118 436 118 407 q 139 488 118 465 q 193 511 160 511 q 247 488 226 511 q 268 436 268 465 z "},"√":{"ha":685,"x_min":-11,"x_max":697,"o":"m 406 -297 l 314 -297 l 86 175 l 22 144 l -11 214 l 128 281 l 347 -181 l 610 1092 l 697 1092 l 406 -297 z "},"∞":{"ha":1029,"x_min":57,"x_max":972,"o":"m 972 350 q 958 269 972 307 q 919 204 944 232 q 858 160 894 176 q 778 144 822 144 q 701 158 738 144 q 633 192 665 171 q 572 240 601 214 q 515 293 542 267 q 456 242 485 268 q 395 194 426 215 q 328 158 364 172 q 251 144 293 144 q 172 160 207 144 q 110 202 136 175 q 71 266 85 229 q 57 346 57 303 q 70 425 57 388 q 108 491 83 463 q 169 535 133 519 q 249 551 204 551 q 326 537 289 551 q 395 499 363 522 q 458 449 428 476 q 515 396 488 422 q 572 450 543 422 q 631 501 600 478 q 698 538 663 524 q 775 553 733 553 q 856 538 819 553 q 918 495 892 522 q 958 431 944 468 q 972 350 972 393 m 893 346 q 864 436 893 399 q 778 474 835 474 q 720 460 749 474 q 665 428 692 447 q 613 385 638 408 q 568 344 589 363 q 615 304 590 325 q 666 265 639 283 q 722 236 693 247 q 782 225 750 225 q 864 260 835 225 q 893 346 893 294 m 463 346 q 417 385 442 364 q 363 426 392 407 q 306 459 335 446 q 247 472 276 472 q 200 462 221 472 q 165 434 179 451 q 144 394 151 417 q 136 347 136 372 q 167 260 136 294 q 253 225 197 225 q 310 237 281 225 q 367 267 339 249 q 419 306 394 285 q 463 346 443 328 z "},"∫":{"ha":754,"x_min":140,"x_max":564,"o":"m 564 1022 q 549 987 564 999 q 513 975 535 975 q 483 983 493 975 q 467 1002 474 992 q 456 1022 461 1013 q 440 1031 450 1031 q 414 1013 424 1031 q 399 967 404 994 q 392 908 394 940 q 391 847 390 876 q 392 794 392 817 q 393 765 393 772 l 393 65 q 392 -41 393 21 q 375 -160 390 -103 q 325 -256 360 -217 q 224 -296 290 -296 q 167 -281 194 -296 q 140 -231 140 -265 q 153 -199 140 -211 q 186 -186 167 -186 q 214 -194 204 -186 q 230 -212 224 -203 q 242 -231 236 -222 q 256 -239 247 -239 q 283 -208 274 -239 q 297 -137 293 -176 q 300 -62 300 -97 q 300 -18 300 -26 l 301 11 l 301 699 q 300 772 301 731 q 301 858 299 814 q 310 943 303 901 q 337 1018 318 985 q 387 1072 356 1051 q 467 1092 418 1092 q 499 1088 482 1092 q 531 1076 517 1085 q 555 1055 546 1068 q 564 1022 564 1042 z "},"≈":{"ha":925,"x_min":99,"x_max":828,"o":"m 828 558 q 812 488 824 522 q 779 426 800 453 q 728 384 758 400 q 657 368 699 368 q 560 384 613 368 q 456 419 508 400 q 356 454 404 439 q 271 469 308 469 q 196 435 224 469 q 161 358 168 401 l 99 358 q 115 429 103 394 q 147 491 126 464 q 199 535 168 518 q 271 551 229 551 q 367 536 317 551 q 469 501 418 521 q 570 466 522 482 q 658 450 618 450 q 733 482 708 450 q 768 558 758 514 l 828 558 l 828 558 m 828 322 q 812 251 824 286 q 779 190 800 217 q 728 147 758 163 q 656 131 697 131 q 559 147 611 131 q 456 182 507 163 q 356 217 404 201 q 271 232 308 232 q 196 198 224 232 q 161 121 168 164 l 99 121 q 115 192 104 157 q 147 254 126 226 q 197 299 167 282 q 269 315 228 315 q 366 300 315 315 q 469 265 417 285 q 569 230 521 246 q 658 214 618 214 q 732 246 707 214 q 767 322 757 278 l 828 322 l 828 322 z "},"≠":{"ha":925,"x_min":114,"x_max":811,"o":"m 413 167 l 307 -33 l 235 4 l 321 167 l 114 167 l 114 250 l 365 250 l 460 431 l 114 431 l 114 514 l 506 514 l 613 718 l 685 679 l 597 514 l 811 514 l 811 431 l 553 431 l 457 250 l 811 250 l 811 167 l 413 167 z "},"≤":{"ha":925,"x_min":114,"x_max":811,"o":"m 114 411 l 114 501 l 811 764 l 811 674 l 229 456 l 811 240 l 811 150 l 114 411 m 114 8 l 114 90 l 811 90 l 811 8 l 114 8 z "},"≥":{"ha":925,"x_min":114,"x_max":811,"o":"m 114 150 l 114 240 l 697 456 l 114 674 l 114 764 l 811 501 l 811 411 l 114 150 m 114 8 l 114 90 l 811 90 l 811 8 l 114 8 z "},"◊":{"ha":824,"x_min":132,"x_max":692,"o":"m 454 -49 l 367 -49 l 132 494 l 367 1038 l 454 1038 l 692 494 l 454 -49 m 411 946 l 222 494 l 411 43 l 601 494 l 411 946 z "},"":{"ha":333,"x_min":-43,"x_max":213,"o":"m -31 -240 l -26 -242 q -2 -247 -15 -244 q 22 -250 11 -250 q 76 -237 56 -250 q 106 -205 96 -225 q 118 -161 115 -185 q 121 -114 121 -137 l 121 650 l 213 650 l 213 -129 q 211 -177 213 -143 q 194 -246 210 -211 q 140 -307 178 -281 q 29 -333 101 -333 q -43 -319 -10 -333 l -31 -240 z "},"":{"ha":333,"x_min":-14,"x_max":251,"o":"m -14 1256 l 113 1256 l 251 1056 l 169 1056 l -14 1256 z "},"":{"ha":333,"x_min":82,"x_max":347,"o":"m 164 1056 l 82 1056 l 221 1256 l 347 1256 l 164 1056 z "},"":{"ha":333,"x_min":-40,"x_max":374,"o":"m 374 1056 l 282 1056 l 167 1206 l 51 1056 l -40 1056 l 111 1256 l 222 1256 l 374 1056 z "},"":{"ha":333,"x_min":-40,"x_max":374,"o":"m 222 1056 l 111 1056 l -40 1256 l 51 1256 l 167 1106 l 282 1256 l 374 1256 l 222 1056 z "},"":{"ha":333,"x_min":-58,"x_max":392,"o":"m -58 1071 q -45 1124 -54 1097 q -21 1170 -36 1150 q 16 1203 -6 1190 q 69 1215 38 1215 q 120 1206 94 1215 q 171 1183 146 1196 q 219 1162 196 1172 q 264 1151 243 1151 q 310 1173 296 1151 q 332 1221 325 1194 l 392 1221 q 378 1167 388 1193 q 354 1122 369 1142 q 317 1089 339 1101 q 264 1076 294 1076 q 213 1087 239 1076 q 163 1108 188 1097 q 115 1131 139 1121 q 69 1140 92 1140 q 23 1119 38 1140 q 1 1071 8 1097 l -58 1071 z "},"":{"ha":333,"x_min":-37,"x_max":371,"o":"m 229 1142 q 249 1191 229 1169 q 300 1213 268 1213 q 351 1191 332 1213 q 371 1142 371 1169 q 351 1092 371 1114 q 300 1071 332 1071 q 249 1092 268 1071 q 229 1142 229 1114 m -37 1142 q -18 1191 -37 1169 q 33 1213 1 1213 q 85 1191 65 1213 q 104 1142 104 1169 q 85 1092 104 1114 q 33 1071 65 1071 q -18 1092 1 1071 q -37 1142 -37 1114 z "},"":{"ha":333,"x_min":-21,"x_max":354,"o":"m 354 1099 l -21 1099 l -21 1174 l 354 1174 l 354 1099 z "},"":{"ha":333,"x_min":-37,"x_max":371,"o":"m 371 1247 q 309 1112 365 1160 q 167 1064 253 1064 q 24 1112 81 1064 q -37 1247 -32 1160 l 24 1247 q 74 1166 33 1193 q 167 1139 114 1139 q 260 1166 219 1139 q 310 1247 300 1193 l 371 1247 z "},"":{"ha":333,"x_min":33,"x_max":300,"o":"m 250 1160 q 226 1218 250 1194 q 167 1242 201 1242 q 108 1218 132 1242 q 83 1160 83 1194 q 108 1101 83 1125 q 167 1078 132 1078 q 226 1101 201 1078 q 250 1160 250 1125 m 300 1160 q 290 1108 300 1132 q 260 1065 279 1083 q 217 1038 242 1047 q 167 1028 193 1028 q 115 1038 139 1028 q 73 1065 92 1047 q 44 1108 54 1083 q 33 1160 33 1132 q 44 1212 33 1188 q 73 1253 54 1236 q 115 1281 92 1271 q 167 1292 139 1292 q 217 1281 193 1292 q 260 1253 242 1271 q 290 1212 279 1236 q 300 1160 300 1188 z "},"":{"ha":333,"x_min":-78,"x_max":467,"o":"m 283 1056 l 201 1056 l 340 1256 l 467 1256 l 283 1056 m 4 1056 l -78 1056 l 63 1256 l 189 1256 l 4 1056 z "},"":{"ha":333,"x_min":96,"x_max":238,"o":"m 96 1135 q 115 1184 96 1163 q 167 1206 135 1206 q 218 1184 199 1206 q 238 1135 238 1163 q 218 1085 238 1107 q 167 1064 199 1064 q 115 1085 135 1064 q 96 1135 96 1107 z "},"":{"ha":333,"x_min":119,"x_max":304,"o":"m 199 726 l 119 726 l 206 983 l 304 983 l 199 726 z "},"":{"ha":333,"x_min":67,"x_max":251,"o":"m 146 -319 l 67 -319 l 153 -62 l 251 -62 l 146 -319 z "},"":{"ha":333,"x_min":133,"x_max":318,"o":"m 239 1040 l 318 1040 l 232 783 l 133 783 l 239 1040 z "},"":{"ha":711,"x_min":0,"x_max":711,"o":"m 308 163 l 308 256 l 386 256 l 386 163 l 308 163 m 313 325 l 310 349 q 328 461 310 426 q 353 499 338 479 q 392 543 368 519 q 428 580 414 564 q 449 609 442 596 q 458 634 456 622 q 461 658 461 646 q 430 742 461 708 q 356 776 399 776 q 281 746 313 776 q 242 644 250 715 l 172 656 q 233 801 182 756 q 360 846 285 846 q 483 797 435 846 q 532 664 532 747 q 515 583 532 619 q 444 497 497 546 q 385 425 393 451 q 376 325 376 397 l 313 325 m 642 69 l 642 926 l 69 926 l 69 69 l 642 69 m 711 997 l 711 0 l 0 0 l 0 997 l 711 997 z "},"ﬁ":{"ha":746,"x_min":19,"x_max":646,"o":"m 646 900 q 625 852 646 871 q 579 833 604 833 q 533 852 554 833 q 513 900 513 871 q 533 948 513 929 q 579 967 554 967 q 625 948 604 967 q 646 900 646 929 m 625 0 l 533 0 l 533 650 l 625 650 l 625 0 m 403 567 l 249 567 l 249 0 l 157 0 l 157 567 l 19 567 l 19 650 l 157 650 l 157 828 q 217 1012 157 957 q 375 1067 276 1067 q 415 1064 394 1067 q 454 1057 435 1061 l 438 974 q 403 981 421 978 q 367 983 385 983 q 306 971 329 983 q 269 935 282 958 q 253 882 257 913 q 249 817 249 851 l 249 650 l 403 650 l 403 567 z "},"ﬂ":{"ha":746,"x_min":19,"x_max":625,"o":"m 625 0 l 533 0 l 533 1050 l 625 1050 l 625 0 m 403 567 l 249 567 l 249 0 l 157 0 l 157 567 l 19 567 l 19 650 l 157 650 l 157 828 q 217 1012 157 957 q 375 1067 276 1067 q 415 1064 394 1067 q 454 1057 435 1061 l 438 974 q 403 981 421 978 q 367 983 385 983 q 306 971 329 983 q 269 935 282 958 q 253 882 257 913 q 249 817 249 851 l 249 650 l 403 650 l 403 567 z "}}}
